<svg width="400" height="400" viewBox="0 0 400 400" fill="none" xmlns="http://www.w3.org/2000/svg">
<path d="M99.32 348.254C99.32 348.254 141.041 369.941 188.723 347.079C236.406 324.218 251.879 279.904 276.623 246.618C289.582 229.186 310.787 219.472 326.961 204.814C378.675 157.946 360.018 79.5848 312.702 58.0824C271.74 39.4672 224.419 46.1352 165.785 77.6512C107.15 109.167 64.9032 129.5 34.12 192.303C3.33684 255.106 47.4488 317.866 99.32 348.254Z" fill="#556B2F"/>
<path opacity="0.8" d="M99.32 348.254C99.32 348.254 141.041 369.941 188.723 347.079C236.406 324.218 251.879 279.904 276.623 246.618C289.582 229.186 310.787 219.472 326.961 204.814C378.675 157.946 360.018 79.5848 312.702 58.0824C271.74 39.4672 224.419 46.1352 165.785 77.6512C107.15 109.167 64.9032 129.5 34.12 192.303C3.33684 255.106 47.4488 317.866 99.32 348.254Z" fill="white"/>
<path d="M29.3271 294.605H351.767" stroke="#333333" stroke-miterlimit="10"/>
<path d="M29.3271 233.558H351.767" stroke="#333333" stroke-miterlimit="10"/>
<path d="M29.3271 172.512H351.767" stroke="#333333" stroke-miterlimit="10"/>
<path d="M29.3271 111.466H351.767" stroke="#333333" stroke-miterlimit="10"/>
<path d="M102.642 76.7976V294.752" stroke="#333333" stroke-miterlimit="10"/>
<path d="M296.449 76.7976V294.752" stroke="#333333" stroke-miterlimit="10"/>
<path d="M109.839 157.594L107.442 160.121" stroke="#333333" stroke-miterlimit="10"/>
<path d="M150.708 114.486L112.73 154.544" stroke="#333333" stroke-miterlimit="10"/>
<path d="M153.078 121.005L131.742 142.934" stroke="#333333" stroke-miterlimit="10"/>
<path d="M304.741 157.594L302.345 160.121" stroke="#333333" stroke-miterlimit="10"/>
<path d="M345.61 114.486L307.633 154.544" stroke="#333333" stroke-miterlimit="10"/>
<path d="M347.981 121.005L326.644 142.934" stroke="#333333" stroke-miterlimit="10"/>
<path d="M24.4927 280.872L22.0959 283.4" stroke="#333333" stroke-miterlimit="10"/>
<path d="M65.3615 237.763L27.3839 277.822" stroke="#333333" stroke-miterlimit="10"/>
<path d="M67.7328 244.282L46.396 266.212" stroke="#333333" stroke-miterlimit="10"/>
<path d="M55.9047 105.438L53.5079 107.966" stroke="#333333" stroke-miterlimit="10"/>
<path d="M96.7735 62.3296L58.7959 102.388" stroke="#333333" stroke-miterlimit="10"/>
<path d="M99.1448 68.8489L77.808 90.7785" stroke="#333333" stroke-miterlimit="10"/>
<path d="M233.505 105.438L231.108 107.966" stroke="#333333" stroke-miterlimit="10"/>
<path d="M274.373 62.3296L236.396 102.388" stroke="#333333" stroke-miterlimit="10"/>
<path d="M276.745 68.8489L255.408 90.7785" stroke="#333333" stroke-miterlimit="10"/>
<path d="M178.59 221.011L176.194 223.539" stroke="#333333" stroke-miterlimit="10"/>
<path d="M219.459 177.902L181.482 217.961" stroke="#333333" stroke-miterlimit="10"/>
<path d="M221.83 184.422L200.494 206.351" stroke="#333333" stroke-miterlimit="10"/>
<path d="M342.34 339.722C342.34 339.722 322.524 297.516 326.834 296.293C331.145 295.07 340.163 301.798 340.163 301.798C340.163 301.798 313.676 230.842 320.532 225.337C327.389 219.832 340.191 247.969 340.191 247.969C340.191 247.969 326.521 204.539 328.128 188.023C329.735 171.508 347.104 187.411 347.104 187.411C347.104 187.411 333.192 128.078 346.108 125.019C359.025 121.961 358.598 192.916 358.598 192.916C358.598 192.916 362.837 142.146 368.014 156.215C373.193 170.284 362.31 217.384 362.31 217.384C362.31 217.384 369.409 201.48 373.349 216.161C377.29 230.842 365.51 290.174 365.51 290.174C365.51 290.174 375.525 280.387 376.464 292.621C377.402 304.854 355.723 342.779 355.723 342.779L343.461 344.002L342.34 339.722Z" fill="#556B2F"/>
<path opacity="0.6" d="M342.34 339.722C342.34 339.722 322.524 297.516 326.834 296.293C331.145 295.07 340.163 301.798 340.163 301.798C340.163 301.798 313.676 230.842 320.532 225.337C327.389 219.832 340.191 247.969 340.191 247.969C340.191 247.969 326.521 204.539 328.128 188.023C329.735 171.508 347.104 187.411 347.104 187.411C347.104 187.411 333.192 128.078 346.108 125.019C359.025 121.961 358.598 192.916 358.598 192.916C358.598 192.916 362.837 142.146 368.014 156.215C373.193 170.284 362.31 217.384 362.31 217.384C362.31 217.384 369.409 201.48 373.349 216.161C377.29 230.842 365.51 290.174 365.51 290.174C365.51 290.174 375.525 280.387 376.464 292.621C377.402 304.854 355.723 342.779 355.723 342.779L343.461 344.002L342.34 339.722Z" fill="white"/>
<path d="M346.57 341.558C346.57 341.558 330.054 312.197 333.113 306.691C336.171 301.186 345.346 314.031 345.346 314.031C345.346 314.031 324.549 262.038 327.608 257.145C330.666 252.251 340.454 273.66 340.454 273.66C340.454 273.66 336.783 202.093 342.9 204.54C349.017 206.986 349.629 241.241 349.629 241.241C349.629 241.241 345.958 159.886 351.464 162.334C356.97 164.781 356.358 255.31 356.358 255.31C356.358 255.31 367.368 220.444 369.203 236.347C371.038 252.251 355.134 295.069 355.134 295.069C355.134 295.069 370.426 261.426 372.262 279.165C374.097 296.904 360.028 329.934 360.028 329.934C360.028 329.934 365.534 316.478 365.534 323.818C365.534 331.158 361.252 340.333 361.252 340.333" stroke="#333333" stroke-miterlimit="10" stroke-linecap="round" stroke-linejoin="round"/>
<path d="M301.137 250.59L323.42 299.214L309.402 303.17L292.872 282.595L301.137 250.59Z" fill="#556B2F"/>
<mask id="mask0_169_6807" style="mask-type:luminance" maskUnits="userSpaceOnUse" x="292" y="250" width="32" height="54">
<path d="M301.137 250.59L323.42 299.214L309.402 303.17L292.872 282.595L301.137 250.59Z" fill="white"/>
</mask>
<g mask="url(#mask0_169_6807)">
<g opacity="0.1">
<path d="M297.116 266.16L296.167 269.835L314.675 301.682L317.326 300.934L297.116 266.16Z" fill="#333333"/>
<path d="M309.506 303.141L312.176 302.387L294.964 274.493L294.039 278.073L309.506 303.141Z" fill="#333333"/>
<path d="M299.403 257.304L298.424 261.094L319.669 300.274L322.299 299.531L299.403 257.304Z" fill="#333333"/>
</g>
</g>
<path d="M301.137 250.59L323.42 299.214L309.402 303.17L292.872 282.595L301.137 250.59Z" stroke="#333333" stroke-miterlimit="10" stroke-linecap="round" stroke-linejoin="round"/>
<path d="M256.822 237.048L227.805 250.413L243.28 313.194L238.356 339.601H293.399L287.948 310.908L301.313 250.589L270.89 238.103L256.822 237.048Z" fill="#556B2F"/>
<mask id="mask1_169_6807" style="mask-type:luminance" maskUnits="userSpaceOnUse" x="227" y="237" width="75" height="103">
<path d="M256.822 237.048L227.805 250.413L243.28 313.194L238.356 339.601H293.399L287.948 310.908L301.313 250.589L270.89 238.103L256.822 237.048Z" fill="white"/>
</mask>
<g mask="url(#mask1_169_6807)">
<g opacity="0.1">
<path d="M257.084 339.602L258.204 314.595C258.21 314.476 258.202 314.358 258.184 314.239L246.783 241.671L243.426 243.218L254.643 314.614L253.524 339.602H257.084Z" fill="#333333"/>
<path d="M263.757 308.604C263.755 308.573 263.751 308.542 263.747 308.511L254.72 238.016L251.335 239.575L260.214 308.916L262.507 339.601H266.073L263.757 308.604Z" fill="#333333"/>
<path d="M247.022 339.601L250.19 315.189C250.213 315.009 250.209 314.829 250.178 314.65L237.977 245.728L234.638 247.266L246.629 315.001L243.436 339.601H247.022Z" fill="#333333"/>
<path d="M300.05 250.071L296.694 248.693L284.464 311.955C284.424 312.161 284.422 312.372 284.455 312.578L288.859 339.601H292.462L288.016 312.32L288.117 311.797L287.948 310.908L290.624 298.832L300.05 250.071Z" fill="#333333"/>
<path d="M267.984 244.228L264.43 244.337L267.381 339.601H270.938L267.984 244.228Z" fill="#333333"/>
<path d="M280.458 311.859L292.273 246.879L288.91 245.499L276.904 311.531C276.866 311.734 276.866 311.942 276.901 312.147L281.57 339.602H285.178L280.458 311.859Z" fill="#333333"/>
<path d="M273.999 309.647L282.986 243.068L279.585 241.672L270.445 309.388C270.426 309.532 270.424 309.677 270.441 309.822L273.75 339.601H277.327L273.999 309.647Z" fill="#333333"/>
</g>
</g>
<path d="M256.822 237.048L227.805 250.413L243.28 313.194L238.356 339.601H293.399L287.948 310.908L301.313 250.589L270.89 238.103L256.822 237.048Z" stroke="#333333" stroke-miterlimit="10" stroke-linecap="round" stroke-linejoin="round"/>
<path d="M227.805 250.414L204.948 299.91L219.54 302.994L236.07 282.419L227.805 250.414Z" fill="#556B2F"/>
<mask id="mask2_169_6807" style="mask-type:luminance" maskUnits="userSpaceOnUse" x="204" y="250" width="33" height="53">
<path d="M227.805 250.414L204.948 299.91L219.54 302.994L236.07 282.419L227.805 250.414Z" fill="white"/>
</mask>
<g mask="url(#mask2_169_6807)">
<g opacity="0.1">
<path d="M233.814 273.682L217.892 302.646L219.54 302.994L223.354 298.248L234.786 277.449L233.814 273.682Z" fill="#333333"/>
<path d="M232.385 268.146L231.342 264.109L213.574 301.733L216.256 302.3L232.385 268.146Z" fill="#333333"/>
<path d="M207.774 300.507L210.454 301.074L230.109 259.334L229.064 255.29L207.774 300.507Z" fill="#333333"/>
</g>
</g>
<mask id="mask3_169_6807" style="mask-type:luminance" maskUnits="userSpaceOnUse" x="204" y="250" width="33" height="53">
<path d="M227.805 250.414L204.948 299.91L219.54 302.994L236.07 282.419L227.805 250.414Z" fill="white"/>
</mask>
<g mask="url(#mask3_169_6807)">
<path d="M227.21 258.656L235.271 280.294L227.174 267.904" stroke="#333333" stroke-miterlimit="10"/>
</g>
<path d="M227.805 250.414L204.948 299.91L219.54 302.994L236.07 282.419L227.805 250.414Z" stroke="#333333" stroke-miterlimit="10" stroke-linecap="round" stroke-linejoin="round"/>
<path d="M220.595 295.609L249.436 328.494L243.809 334.825L207.467 305.884C207.467 305.884 202.483 303.522 205.473 298.598" fill="#556B2F"/>
<mask id="mask4_169_6807" style="mask-type:luminance" maskUnits="userSpaceOnUse" x="204" y="295" width="46" height="40">
<path d="M220.595 295.609L249.436 328.494L243.809 334.825L207.467 305.884C207.467 305.884 202.483 303.522 205.473 298.598" fill="white"/>
</mask>
<g mask="url(#mask4_169_6807)">
<g opacity="0.1">
<path d="M246.41 330.787L249.109 328.471L234.569 311.542L220.595 295.609L216.834 296.352L246.41 330.787Z" fill="#333333"/>
<path d="M240.646 332.306L243.053 334.223L245.317 332.234L214.22 296.869L210.186 297.666L240.646 332.306Z" fill="#333333"/>
</g>
</g>
<path d="M220.595 295.609L249.436 328.494L243.809 334.825L207.467 305.884C207.467 305.884 202.483 303.522 205.473 298.598" stroke="#333333" stroke-miterlimit="10" stroke-linecap="round" stroke-linejoin="round"/>
<path d="M244.808 327.255C245.638 326.808 259.524 323.482 259.713 325.18C259.902 326.878 264.052 328.765 265.938 328.765C267.825 328.765 269.712 327.255 270.089 329.519C270.466 331.783 268.391 331.972 266.693 332.161C264.995 332.35 259.146 330.463 259.146 330.463C259.146 330.463 253.675 334.991 251.411 336.123C249.147 337.255 244.997 336.878 243.487 335.746C241.978 334.614 239.902 329.897 244.808 327.255Z" fill="white" stroke="#333333" stroke-miterlimit="10" stroke-linecap="round" stroke-linejoin="round"/>
<path d="M257.637 324.992C257.637 324.992 262.919 323.482 264.051 324.049C265.183 324.614 265.749 335.934 265.749 335.934C265.749 335.934 265.183 337.066 264.051 335.934C262.919 334.802 259.146 326.313 259.146 326.313" fill="white"/>
<path d="M257.637 324.992C257.637 324.992 262.919 323.482 264.051 324.049C265.183 324.614 265.749 335.934 265.749 335.934C265.749 335.934 265.183 337.066 264.051 335.934C262.919 334.802 259.146 326.313 259.146 326.313" stroke="#333333" stroke-miterlimit="10" stroke-linecap="round" stroke-linejoin="round"/>
<path d="M254.996 325.369C254.996 325.369 260.467 324.048 261.599 326.123C262.731 328.198 265.561 337.443 263.297 337.821C261.033 338.198 260.278 335.179 260.278 335.179L256.694 328.576L254.241 328.198" fill="white"/>
<path d="M254.996 325.369C254.996 325.369 260.467 324.048 261.599 326.123C262.731 328.198 265.561 337.443 263.297 337.821C261.033 338.198 260.278 335.179 260.278 335.179L256.694 328.576L254.241 328.198" stroke="#333333" stroke-miterlimit="10" stroke-linecap="round" stroke-linejoin="round"/>
<path d="M253.11 327.067C253.11 327.067 255.751 325.935 257.071 326.878C258.392 327.822 264.429 337.444 263.297 337.821C262.165 338.198 259.523 338.01 259.146 337.255C258.769 336.501 253.864 330.086 253.864 330.086" fill="white"/>
<path d="M253.11 327.067C253.11 327.067 255.751 325.935 257.071 326.878C258.392 327.822 264.429 337.444 263.297 337.821C262.165 338.198 259.523 338.01 259.146 337.255C258.769 336.501 253.864 330.086 253.864 330.086" stroke="#333333" stroke-miterlimit="10" stroke-linecap="round" stroke-linejoin="round"/>
<path d="M251.222 330.274C251.222 330.274 253.675 328.01 254.996 328.765C256.317 329.519 261.788 336.689 260.656 337.443C259.524 338.198 258.77 337.443 257.638 335.934C256.506 334.424 254.808 333.292 254.808 333.292L252.544 334.046" fill="white"/>
<path d="M251.222 330.274C251.222 330.274 253.675 328.01 254.996 328.765C256.317 329.519 261.788 336.689 260.656 337.443C259.524 338.198 258.77 337.443 257.638 335.934C256.506 334.424 254.808 333.292 254.808 333.292L252.544 334.046" stroke="#333333" stroke-miterlimit="10" stroke-linecap="round" stroke-linejoin="round"/>
<path d="M306.94 296.663L297.314 329.325L304.258 334.175L319.941 308.957C319.941 308.957 326.389 301.678 322.337 297.583" fill="#556B2F"/>
<mask id="mask5_169_6807" style="mask-type:luminance" maskUnits="userSpaceOnUse" x="297" y="296" width="27" height="39">
<path d="M306.94 296.663L297.314 329.325L304.258 334.175L319.941 308.957C319.941 308.957 326.389 301.678 322.337 297.583" fill="white"/>
</mask>
<g mask="url(#mask5_169_6807)">
<g opacity="0.1">
<path d="M304.504 333.78L304.626 333.583L317.909 297.319L314.204 297.097L301.364 332.153L302.799 333.156L304.504 333.78Z" fill="#333333"/>
<path d="M297.358 329.355L300.377 331.464L312.774 297.116L312.429 296.991L309.111 296.793L297.358 329.355Z" fill="#333333"/>
<path d="M323.471 299.496C323.271 298.814 322.913 298.165 322.336 297.583L320.433 297.469L310.374 324.34L319.913 308.999L323.471 299.496Z" fill="#333333"/>
</g>
</g>
<path d="M306.94 296.663L297.314 329.325L304.258 334.175L319.941 308.957C319.941 308.957 326.389 301.678 322.337 297.583" stroke="#333333" stroke-miterlimit="10" stroke-linecap="round" stroke-linejoin="round"/>
<path d="M302.175 327.255C301.345 326.808 287.459 323.482 287.27 325.18C287.082 326.878 282.931 328.765 281.045 328.765C279.158 328.765 277.271 327.255 276.894 329.519C276.517 331.783 278.592 331.972 280.29 332.161C281.988 332.35 287.837 330.463 287.837 330.463C287.837 330.463 293.308 334.991 295.572 336.123C297.836 337.255 301.986 336.878 303.496 335.746C305.006 334.614 307.081 329.897 302.175 327.255Z" fill="white" stroke="#333333" stroke-miterlimit="10" stroke-linecap="round" stroke-linejoin="round"/>
<path d="M289.346 324.992C289.346 324.992 284.064 323.482 282.932 324.049C281.8 324.614 281.234 335.934 281.234 335.934C281.234 335.934 281.8 337.066 282.932 335.934C284.064 334.802 287.838 326.313 287.838 326.313" fill="white"/>
<path d="M289.346 324.992C289.346 324.992 284.064 323.482 282.932 324.049C281.8 324.614 281.234 335.934 281.234 335.934C281.234 335.934 281.8 337.066 282.932 335.934C284.064 334.802 287.838 326.313 287.838 326.313" stroke="#333333" stroke-miterlimit="10" stroke-linecap="round" stroke-linejoin="round"/>
<path d="M291.987 325.369C291.987 325.369 286.516 324.048 285.384 326.123C284.252 328.198 281.421 337.443 283.686 337.821C285.95 338.198 286.705 335.179 286.705 335.179L290.289 328.576L292.742 328.198" fill="white"/>
<path d="M291.987 325.369C291.987 325.369 286.516 324.048 285.384 326.123C284.252 328.198 281.421 337.443 283.686 337.821C285.95 338.198 286.705 335.179 286.705 335.179L290.289 328.576L292.742 328.198" stroke="#333333" stroke-miterlimit="10" stroke-linecap="round" stroke-linejoin="round"/>
<path d="M293.874 327.067C293.874 327.067 291.233 325.935 289.913 326.878C288.592 327.822 282.554 337.444 283.686 337.821C284.818 338.198 287.46 338.01 287.837 337.255C288.214 336.501 293.119 330.086 293.119 330.086" fill="white"/>
<path d="M293.874 327.067C293.874 327.067 291.233 325.935 289.913 326.878C288.592 327.822 282.554 337.444 283.686 337.821C284.818 338.198 287.46 338.01 287.837 337.255C288.214 336.501 293.119 330.086 293.119 330.086" stroke="#333333" stroke-miterlimit="10" stroke-linecap="round" stroke-linejoin="round"/>
<path d="M295.761 330.274C295.761 330.274 293.308 328.01 291.987 328.765C290.666 329.519 285.195 336.689 286.327 337.443C287.459 338.198 288.214 337.443 289.346 335.934C290.478 334.424 292.175 333.292 292.175 333.292L294.439 334.046" fill="white"/>
<path d="M295.761 330.274C295.761 330.274 293.308 328.01 291.987 328.765C290.666 329.519 285.195 336.689 286.327 337.443C287.459 338.198 288.214 337.443 289.346 335.934C290.478 334.424 292.175 333.292 292.175 333.292L294.439 334.046" stroke="#333333" stroke-miterlimit="10" stroke-linecap="round" stroke-linejoin="round"/>
<path d="M258.931 233.707C258.931 233.707 254.359 235.113 252.425 237.928C250.49 240.741 252.777 262.548 252.777 262.548L267.373 254.458L282.672 264.13C282.672 264.13 281.265 241.797 280.034 238.631C278.803 235.465 271.066 231.773 268.428 232.125C265.79 232.476 258.931 233.707 258.931 233.707Z" fill="#556B2F" stroke="#333333" stroke-miterlimit="10" stroke-linecap="round" stroke-linejoin="round"/>
<path d="M256.822 221.573V241.797L266.494 267.823L274.758 241.269V221.397L256.822 221.573Z" fill="white" stroke="#333333" stroke-miterlimit="10" stroke-linecap="round" stroke-linejoin="round"/>
<path d="M256.822 228.839C259.464 230.687 262.673 231.779 266.142 231.779C269.31 231.779 272.258 230.861 274.759 229.296V221.397L256.822 221.573V228.839Z" fill="#333333" stroke="#333333" stroke-miterlimit="10" stroke-linecap="round" stroke-linejoin="round"/>
<path d="M266.142 227.169C257.143 227.169 249.849 219.875 249.849 210.877L246.974 187.985C246.974 177.398 255.555 168.817 266.142 168.817C276.728 168.817 285.31 177.398 285.31 187.985L282.434 210.877C282.434 219.875 275.14 227.169 266.142 227.169Z" fill="white" stroke="#333333" stroke-miterlimit="10" stroke-linecap="round" stroke-linejoin="round"/>
<path d="M270.329 204.641C270.329 204.641 274.482 201.157 279.44 204.909" stroke="#333333" stroke-miterlimit="10" stroke-linecap="round" stroke-linejoin="round"/>
<path d="M262.826 204.239C262.826 204.239 260.816 202.899 258.672 203.301" stroke="#333333" stroke-miterlimit="10" stroke-linecap="round" stroke-linejoin="round"/>
<path d="M271.937 196.334C271.937 196.334 276.358 194.19 279.038 198.344" stroke="#333333" stroke-miterlimit="10" stroke-linecap="round" stroke-linejoin="round"/>
<path d="M264.835 213.886C264.835 213.886 266.711 215.36 268.318 213.886" stroke="#333333" stroke-miterlimit="10" stroke-linecap="round" stroke-linejoin="round"/>
<path d="M262.96 217.102C262.96 217.102 266.846 219.514 269.123 217.102" stroke="#333333" stroke-miterlimit="10" stroke-linecap="round" stroke-linejoin="round"/>
<path d="M274.338 185.598C274.338 185.598 258.27 200.429 253.79 211.244C249.31 222.058 253.326 233.337 255.798 236.581C258.27 239.826 259.814 240.289 259.814 240.289C259.814 240.289 251.317 243.533 245.755 235.036C240.194 226.539 241.584 216.96 243.283 210.317C244.982 203.674 244.519 184.207 248.382 177.718C252.244 171.23 257.806 166.44 267.075 167.522C276.345 168.603 281.289 173.393 284.224 179.418C287.159 185.443 285.769 195.639 286.696 200.12C287.623 204.6 291.64 218.042 292.567 226.075C293.494 234.109 282.525 239.826 280.826 240.598C279.126 241.37 277.118 241.37 277.118 241.37C277.118 241.37 280.826 222.831 281.598 212.171C282.37 201.511 282.37 195.177 282.37 195.177C282.37 195.177 275.11 186.062 274.338 185.598Z" fill="#333333"/>
<mask id="mask6_169_6807" style="mask-type:luminance" maskUnits="userSpaceOnUse" x="241" y="167" width="52" height="75">
<path d="M274.338 185.598C274.338 185.598 258.27 200.429 253.79 211.244C249.31 222.058 253.326 233.337 255.798 236.581C258.27 239.826 259.814 240.289 259.814 240.289C259.814 240.289 251.317 243.533 245.755 235.036C240.194 226.539 241.584 216.96 243.283 210.317C244.982 203.674 244.519 184.207 248.382 177.718C252.244 171.23 257.806 166.44 267.075 167.522C276.345 168.603 281.289 173.393 284.224 179.418C287.159 185.443 285.769 195.639 286.696 200.12C287.623 204.6 291.64 218.042 292.567 226.075C293.494 234.109 282.525 239.826 280.826 240.598C279.126 241.37 277.118 241.37 277.118 241.37C277.118 241.37 280.826 222.831 281.598 212.171C282.37 201.511 282.37 195.177 282.37 195.177C282.37 195.177 275.11 186.062 274.338 185.598Z" fill="white"/>
</mask>
<g mask="url(#mask6_169_6807)">
<path d="M272.453 175.162C272.453 175.162 270.559 180.387 256.922 195.352C243.284 210.317 239.578 224.602 243.72 238.58" stroke="#333333" stroke-miterlimit="10"/>
</g>
<mask id="mask7_169_6807" style="mask-type:luminance" maskUnits="userSpaceOnUse" x="241" y="167" width="52" height="75">
<path d="M274.338 185.598C274.338 185.598 258.27 200.429 253.79 211.244C249.31 222.058 253.326 233.337 255.798 236.581C258.27 239.826 259.814 240.289 259.814 240.289C259.814 240.289 251.317 243.533 245.755 235.036C240.194 226.539 241.584 216.96 243.283 210.317C244.982 203.674 244.519 184.207 248.382 177.718C252.244 171.23 257.806 166.44 267.075 167.522C276.345 168.603 281.289 173.393 284.224 179.418C287.159 185.443 285.769 195.639 286.696 200.12C287.623 204.6 291.64 218.042 292.567 226.075C293.494 234.109 282.525 239.826 280.826 240.598C279.126 241.37 277.118 241.37 277.118 241.37C277.118 241.37 280.826 222.831 281.598 212.171C282.37 201.511 282.37 195.177 282.37 195.177C282.37 195.177 275.11 186.062 274.338 185.598Z" fill="white"/>
</mask>
<g mask="url(#mask7_169_6807)">
<path d="M269.088 169.985C269.088 169.985 261.582 176.197 252.262 185.516C242.944 194.834 237.767 204.929 237.767 204.929" stroke="#333333" stroke-miterlimit="10"/>
</g>
<mask id="mask8_169_6807" style="mask-type:luminance" maskUnits="userSpaceOnUse" x="241" y="167" width="52" height="75">
<path d="M274.338 185.598C274.338 185.598 258.27 200.429 253.79 211.244C249.31 222.058 253.326 233.337 255.798 236.581C258.27 239.826 259.814 240.289 259.814 240.289C259.814 240.289 251.317 243.533 245.755 235.036C240.194 226.539 241.584 216.96 243.283 210.317C244.982 203.674 244.519 184.207 248.382 177.718C252.244 171.23 257.806 166.44 267.075 167.522C276.345 168.603 281.289 173.393 284.224 179.418C287.159 185.443 285.769 195.639 286.696 200.12C287.623 204.6 291.64 218.042 292.567 226.075C293.494 234.109 282.525 239.826 280.826 240.598C279.126 241.37 277.118 241.37 277.118 241.37C277.118 241.37 280.826 222.831 281.598 212.171C282.37 201.511 282.37 195.177 282.37 195.177C282.37 195.177 275.11 186.062 274.338 185.598Z" fill="white"/>
</mask>
<g mask="url(#mask8_169_6807)">
<path d="M275.818 176.456C275.818 176.456 281.513 186.81 284.619 193.022C287.726 199.235 291.35 234.18 280.478 246.605" stroke="#333333" stroke-miterlimit="10"/>
</g>
<mask id="mask9_169_6807" style="mask-type:luminance" maskUnits="userSpaceOnUse" x="241" y="167" width="52" height="75">
<path d="M274.338 185.598C274.338 185.598 258.27 200.429 253.79 211.244C249.31 222.058 253.326 233.337 255.798 236.581C258.27 239.826 259.814 240.289 259.814 240.289C259.814 240.289 251.317 243.533 245.755 235.036C240.194 226.539 241.584 216.96 243.283 210.317C244.982 203.674 244.519 184.207 248.382 177.718C252.244 171.23 257.806 166.44 267.075 167.522C276.345 168.603 281.289 173.393 284.224 179.418C287.159 185.443 285.769 195.639 286.696 200.12C287.623 204.6 291.64 218.042 292.567 226.075C293.494 234.109 282.525 239.826 280.826 240.598C279.126 241.37 277.118 241.37 277.118 241.37C277.118 241.37 280.826 222.831 281.598 212.171C282.37 201.511 282.37 195.177 282.37 195.177C282.37 195.177 275.11 186.062 274.338 185.598Z" fill="white"/>
</mask>
<g mask="url(#mask9_169_6807)">
<path d="M271.935 167.914L274.338 185.598" stroke="#333333" stroke-miterlimit="10"/>
</g>
<path d="M274.338 185.598C274.338 185.598 258.27 200.429 253.79 211.244C249.31 222.058 253.326 233.337 255.798 236.581C258.27 239.826 259.814 240.289 259.814 240.289C259.814 240.289 251.317 243.533 245.755 235.036C240.194 226.539 241.584 216.96 243.283 210.317C244.982 203.674 244.519 184.207 248.382 177.718C252.244 171.23 257.806 166.44 267.075 167.522C276.345 168.603 281.289 173.393 284.224 179.418C287.159 185.443 285.769 195.639 286.696 200.12C287.623 204.6 291.64 218.042 292.567 226.075C293.494 234.109 282.525 239.826 280.826 240.598C279.126 241.37 277.118 241.37 277.118 241.37C277.118 241.37 280.826 222.831 281.598 212.171C282.37 201.511 282.37 195.177 282.37 195.177C282.37 195.177 275.11 186.062 274.338 185.598Z" stroke="#333333" stroke-miterlimit="10" stroke-linecap="round" stroke-linejoin="round"/>
<path d="M245.393 210.162H243.03C241.72 210.162 240.658 209.101 240.658 207.79V198.32C240.658 197.01 241.719 195.949 243.03 195.949H245.393C246.702 195.949 247.765 197.01 247.765 198.32V207.79C247.765 209.101 246.703 210.162 245.393 210.162Z" fill="white" stroke="#333333" stroke-miterlimit="10" stroke-linecap="round" stroke-linejoin="round"/>
<path d="M288.806 210.162H286.443C285.134 210.162 284.071 209.101 284.071 207.79V198.32C284.071 197.01 285.133 195.949 286.443 195.949H288.806C290.116 195.949 291.178 197.01 291.178 198.32V207.79C291.178 209.101 290.116 210.162 288.806 210.162Z" fill="white" stroke="#333333" stroke-miterlimit="10" stroke-linecap="round" stroke-linejoin="round"/>
<path d="M288.242 195.949V188.224C288.242 175.766 278.144 165.668 265.686 165.668C253.229 165.668 243.13 175.766 243.13 188.224V195.949" stroke="#333333" stroke-width="2" stroke-miterlimit="10" stroke-linejoin="round"/>
<path d="M287.624 210.095C287.624 210.095 286.621 217.834 277.162 220.987" stroke="#333333" stroke-miterlimit="10" stroke-linecap="round" stroke-linejoin="round"/>
<path d="M276.829 220.648C277.231 221.807 276.102 223.251 274.308 223.874C272.514 224.498 270.733 224.062 270.33 222.904C269.928 221.745 271.057 220.301 272.851 219.678C274.646 219.054 276.426 219.489 276.829 220.648Z" stroke="#333333" stroke-miterlimit="10" stroke-linecap="round" stroke-linejoin="round"/>
<path d="M114.88 230.626L81.8208 246.379L91.3608 339.787H157.258L166.576 244.826L135.514 230.404L114.88 230.626Z" fill="#556B2F" stroke="#333333" stroke-miterlimit="10" stroke-linecap="round" stroke-linejoin="round"/>
<path d="M128.127 259.13C128.746 259.13 129.247 258.628 129.247 258.01C129.247 257.391 128.746 256.89 128.127 256.89C127.509 256.89 127.007 257.391 127.007 258.01C127.007 258.628 127.509 259.13 128.127 259.13Z" fill="#333333"/>
<path d="M129.247 264.727C129.247 265.346 128.746 265.847 128.127 265.847C127.509 265.847 127.007 265.346 127.007 264.727C127.007 264.109 127.509 263.607 128.127 263.607C128.746 263.607 129.247 264.109 129.247 264.727Z" fill="#333333"/>
<path d="M139.595 235.393L130.557 245.468L126.704 255.247L122.555 245.32L113.814 235.393V217.76H139.595V235.393Z" fill="white" stroke="#333333" stroke-miterlimit="10" stroke-linecap="round" stroke-linejoin="round"/>
<path d="M113.814 225.594C117.142 229.625 122.179 232.194 127.816 232.194C132.315 232.194 136.424 230.548 139.595 227.837V217.76H113.814V225.594Z" fill="#333333" stroke="#333333" stroke-miterlimit="10" stroke-linecap="round" stroke-linejoin="round"/>
<path d="M129.634 227.243H125.999C116.978 227.243 109.665 219.93 109.665 210.91V184.753C109.665 175.732 116.978 168.419 125.999 168.419H129.634C138.655 168.419 145.967 175.732 145.967 184.753V210.91C145.967 219.93 138.654 227.243 129.634 227.243Z" fill="white" stroke="#333333" stroke-miterlimit="10" stroke-linecap="round" stroke-linejoin="round"/>
<path d="M131.298 194.498L130.762 207.355C130.714 208.487 130.01 209.537 128.926 209.87C127.963 210.166 126.852 209.907 126.259 207.685" stroke="#333333" stroke-miterlimit="10" stroke-linecap="round" stroke-linejoin="round"/>
<path d="M120.778 212.427H135.151C135.151 212.427 132.631 217.909 127.742 217.909C122.852 217.909 120.778 212.427 120.778 212.427Z" fill="#333333" stroke="#333333" stroke-miterlimit="10" stroke-linecap="round" stroke-linejoin="round"/>
<path d="M121.823 214.352H133.949C134.743 213.302 135.151 212.426 135.151 212.426H120.778C120.778 212.426 121.115 213.302 121.823 214.352Z" fill="white" stroke="#333333" stroke-miterlimit="10" stroke-linecap="round" stroke-linejoin="round"/>
<path d="M120.63 200.276C121.202 200.276 121.666 199.182 121.666 197.831C121.666 196.481 121.202 195.386 120.63 195.386C120.057 195.386 119.593 196.481 119.593 197.831C119.593 199.182 120.057 200.276 120.63 200.276Z" fill="#333333"/>
<path d="M136.187 200.276C136.76 200.276 137.224 199.182 137.224 197.831C137.224 196.481 136.76 195.386 136.187 195.386C135.615 195.386 135.151 196.481 135.151 197.831C135.151 199.182 135.615 200.276 136.187 200.276Z" fill="#333333"/>
<path d="M132.928 191.386C132.928 191.386 136.484 189.163 140.485 192.719" stroke="#333333" stroke-miterlimit="10" stroke-linecap="round" stroke-linejoin="round"/>
<path d="M127.816 168.419C117.791 168.419 109.665 176.546 109.665 186.57V203.1L109.813 203.091H111.295V196.275C111.295 196.275 118.703 196.275 127.445 191.534C136.187 186.792 138.41 179.087 138.41 179.087C138.41 179.087 140.336 188.422 142.411 190.2C144.485 191.978 144.485 191.978 144.485 191.978V203.239H145.967V186.57C145.967 176.546 137.84 168.419 127.816 168.419Z" fill="#333333" stroke="#333333" stroke-miterlimit="10" stroke-linecap="round" stroke-linejoin="round"/>
<path d="M109.665 207.833H106.264C104.46 207.833 102.998 206.37 102.998 204.566V197.616C102.998 195.812 104.46 194.35 106.264 194.35H109.665V207.833Z" fill="white" stroke="#333333" stroke-miterlimit="10" stroke-linecap="round" stroke-linejoin="round"/>
<path d="M145.744 207.833H149.145C150.949 207.833 152.411 206.37 152.411 204.566V197.616C152.411 195.812 150.949 194.35 149.145 194.35H145.744V207.833Z" fill="white" stroke="#333333" stroke-miterlimit="10" stroke-linecap="round" stroke-linejoin="round"/>
<path d="M106.702 194.35V185.756C106.702 174.136 116.122 164.716 127.742 164.716C139.362 164.716 148.782 174.136 148.782 185.756V194.35" stroke="#333333" stroke-width="2" stroke-miterlimit="10" stroke-linejoin="round"/>
<path d="M148.782 207.833C148.782 207.833 147.745 215.834 137.965 219.094" stroke="#333333" stroke-miterlimit="10" stroke-linecap="round" stroke-linejoin="round"/>
<path d="M137.621 218.742C138.037 219.941 136.87 221.434 135.014 222.078C133.159 222.722 131.318 222.273 130.902 221.075C130.486 219.877 131.653 218.383 133.508 217.739C135.363 217.095 137.205 217.545 137.621 218.742Z" stroke="#333333" stroke-miterlimit="10" stroke-linecap="round" stroke-linejoin="round"/>
<path d="M81.8209 246.379L53.8673 305.535L65.4025 315.603L86.2585 289.422L81.8209 246.379Z" fill="#556B2F" stroke="#333333" stroke-miterlimit="10" stroke-linecap="round" stroke-linejoin="round"/>
<path d="M79.529 264.51L86.3178 287.421L78.257 274.268" stroke="#333333" stroke-miterlimit="10"/>
<path d="M166.576 244.826L193.201 304.288L176.782 311.388L162.138 287.87L166.576 244.826Z" fill="#556B2F" stroke="#333333" stroke-miterlimit="10" stroke-linecap="round" stroke-linejoin="round"/>
<path d="M68.9521 304.066L92.9144 326.475L86.2584 334.241L51.4272 312.635L55.4208 301.986" fill="#556B2F"/>
<path d="M68.9521 304.066L92.9144 326.475L86.2584 334.241L51.4272 312.635L55.4208 301.986" stroke="#333333" stroke-miterlimit="10" stroke-linecap="round" stroke-linejoin="round"/>
<path d="M88.9209 325.144C89.8977 324.618 106.227 320.706 106.449 322.703C106.67 324.7 111.552 326.919 113.77 326.919C115.989 326.919 118.208 325.144 118.652 327.806C119.096 330.469 116.655 330.69 114.658 330.913C112.662 331.134 105.783 328.916 105.783 328.916C105.783 328.916 99.3489 334.241 96.6865 335.572C94.0241 336.903 89.1425 336.459 87.3681 335.128C85.5929 333.797 83.1521 328.25 88.9209 325.144Z" fill="white" stroke="#333333" stroke-miterlimit="10" stroke-linecap="round" stroke-linejoin="round"/>
<path d="M104.008 322.482C104.008 322.482 110.221 320.706 111.552 321.372C112.883 322.038 113.549 335.35 113.549 335.35C113.549 335.35 112.883 336.682 111.552 335.35C110.221 334.019 105.783 324.035 105.783 324.035" fill="white"/>
<path d="M104.008 322.482C104.008 322.482 110.221 320.706 111.552 321.372C112.883 322.038 113.549 335.35 113.549 335.35C113.549 335.35 112.883 336.682 111.552 335.35C110.221 334.019 105.783 324.035 105.783 324.035" stroke="#333333" stroke-miterlimit="10" stroke-linecap="round" stroke-linejoin="round"/>
<path d="M100.902 322.925C100.902 322.925 107.336 321.372 108.667 323.812C109.999 326.253 113.327 337.125 110.664 337.568C108.002 338.012 107.115 334.462 107.115 334.462L102.899 326.696L100.015 326.252" fill="white"/>
<path d="M100.902 322.925C100.902 322.925 107.336 321.372 108.667 323.812C109.999 326.253 113.327 337.125 110.664 337.568C108.002 338.012 107.115 334.462 107.115 334.462L102.899 326.696L100.015 326.252" stroke="#333333" stroke-miterlimit="10" stroke-linecap="round" stroke-linejoin="round"/>
<path d="M98.6833 324.922C98.6833 324.922 101.79 323.591 103.343 324.701C104.895 325.81 111.995 337.126 110.664 337.57C109.333 338.014 106.227 337.791 105.783 336.904C105.339 336.017 99.5698 328.473 99.5698 328.473" fill="white"/>
<path d="M98.6833 324.922C98.6833 324.922 101.79 323.591 103.343 324.701C104.895 325.81 111.995 337.126 110.664 337.57C109.333 338.014 106.227 337.791 105.783 336.904C105.339 336.017 99.5698 328.473 99.5698 328.473" stroke="#333333" stroke-miterlimit="10" stroke-linecap="round" stroke-linejoin="round"/>
<path d="M96.4641 328.694C96.4641 328.694 99.3481 326.031 100.902 326.918C102.455 327.806 108.889 336.237 107.558 337.125C106.227 338.012 105.339 337.125 104.008 335.35C102.677 333.574 100.68 332.243 100.68 332.243L98.0177 333.13" fill="white"/>
<path d="M96.4641 328.694C96.4641 328.694 99.3481 326.031 100.902 326.918C102.455 327.806 108.889 336.237 107.558 337.125C106.227 338.012 105.339 337.125 104.008 335.35C102.677 333.574 100.68 332.243 100.68 332.243L98.0177 333.13" stroke="#333333" stroke-miterlimit="10" stroke-linecap="round" stroke-linejoin="round"/>
<path d="M172.76 298.401L158.709 328.047L167.753 332.824L194.323 304.672L186.695 296.235" fill="#556B2F"/>
<path d="M172.76 298.401L158.709 328.047L167.753 332.824L194.323 304.672L186.695 296.235" stroke="#333333" stroke-miterlimit="10" stroke-linecap="round" stroke-linejoin="round"/>
<path d="M165.742 325.144C164.765 324.618 148.435 320.706 148.214 322.703C147.992 324.7 143.11 326.919 140.892 326.919C138.674 326.919 136.454 325.144 136.01 327.806C135.566 330.469 138.007 330.69 140.004 330.913C142.001 331.134 148.879 328.916 148.879 328.916C148.879 328.916 155.314 334.241 157.976 335.572C160.638 336.903 165.52 336.459 167.294 335.128C169.07 333.797 171.51 328.25 165.742 325.144Z" fill="white" stroke="#333333" stroke-miterlimit="10" stroke-linecap="round" stroke-linejoin="round"/>
<path d="M150.654 322.482C150.654 322.482 144.442 320.706 143.11 321.372C141.779 322.038 141.114 335.35 141.114 335.35C141.114 335.35 141.779 336.682 143.11 335.35C144.442 334.019 148.879 324.035 148.879 324.035" fill="white"/>
<path d="M150.654 322.482C150.654 322.482 144.442 320.706 143.11 321.372C141.779 322.038 141.114 335.35 141.114 335.35C141.114 335.35 141.779 336.682 143.11 335.35C144.442 334.019 148.879 324.035 148.879 324.035" stroke="#333333" stroke-miterlimit="10" stroke-linecap="round" stroke-linejoin="round"/>
<path d="M153.761 322.925C153.761 322.925 147.326 321.372 145.995 323.812C144.664 326.253 141.336 337.125 143.998 337.568C146.661 338.012 147.548 334.462 147.548 334.462L151.764 326.696L154.648 326.252" fill="white"/>
<path d="M153.761 322.925C153.761 322.925 147.326 321.372 145.995 323.812C144.664 326.253 141.336 337.125 143.998 337.568C146.661 338.012 147.548 334.462 147.548 334.462L151.764 326.696L154.648 326.252" stroke="#333333" stroke-miterlimit="10" stroke-linecap="round" stroke-linejoin="round"/>
<path d="M155.979 324.922C155.979 324.922 152.873 323.591 151.32 324.701C149.767 325.81 142.667 337.126 143.998 337.57C145.33 338.014 148.436 337.791 148.88 336.904C149.324 336.017 155.093 328.473 155.093 328.473" fill="white"/>
<path d="M155.979 324.922C155.979 324.922 152.873 323.591 151.32 324.701C149.767 325.81 142.667 337.126 143.998 337.57C145.33 338.014 148.436 337.791 148.88 336.904C149.324 336.017 155.093 328.473 155.093 328.473" stroke="#333333" stroke-miterlimit="10" stroke-linecap="round" stroke-linejoin="round"/>
<path d="M158.198 328.694C158.198 328.694 155.314 326.031 153.76 326.918C152.207 327.806 145.773 336.237 147.104 337.125C148.435 338.012 149.323 337.125 150.654 335.35C151.986 333.574 153.982 332.243 153.982 332.243L156.645 333.13" fill="white"/>
<path d="M158.198 328.694C158.198 328.694 155.314 326.031 153.76 326.918C152.207 327.806 145.773 336.237 147.104 337.125C148.435 338.012 149.323 337.125 150.654 335.35C151.986 333.574 153.982 332.243 153.982 332.243L156.645 333.13" stroke="#333333" stroke-miterlimit="10" stroke-linecap="round" stroke-linejoin="round"/>
<path d="M207.724 134.566H155.71C150.689 134.566 146.618 138.637 146.618 143.658V158.882C146.618 163.903 150.689 167.974 155.71 167.974H162.116L153.385 179.391L173.009 167.974H207.725C212.746 167.974 216.817 163.903 216.817 158.882V143.658C216.816 138.637 212.746 134.566 207.724 134.566Z" fill="white" stroke="#333333" stroke-miterlimit="10"/>
<path d="M174.582 152.327C174.582 153.495 173.635 154.442 172.467 154.442C171.299 154.442 170.353 153.495 170.353 152.327C170.353 151.159 171.299 150.213 172.467 150.213C173.635 150.213 174.582 151.16 174.582 152.327Z" fill="#333333"/>
<path d="M183.832 152.327C183.832 153.495 182.886 154.442 181.718 154.442C180.55 154.442 179.603 153.495 179.603 152.327C179.603 151.159 180.55 150.213 181.718 150.213C182.885 150.213 183.832 151.16 183.832 152.327Z" fill="#333333"/>
<path d="M193.082 152.327C193.082 153.495 192.136 154.442 190.968 154.442C189.8 154.442 188.854 153.495 188.854 152.327C188.854 151.159 189.8 150.213 190.968 150.213C192.136 150.213 193.082 151.16 193.082 152.327Z" fill="#333333"/>
<path d="M313.963 337.38H217.048V341.29H313.963V337.38Z" fill="white" stroke="#333333" stroke-miterlimit="10" stroke-linecap="round" stroke-linejoin="round"/>
<path d="M328.842 337.38H244.374V341.29H328.842V337.38Z" fill="white" stroke="#333333" stroke-miterlimit="10" stroke-linecap="round" stroke-linejoin="round"/>
<path d="M330.485 330.428H249.67L258.382 268.731H339.198L330.485 330.428Z" fill="white" stroke="#333333" stroke-miterlimit="10" stroke-linecap="round" stroke-linejoin="round"/>
<path d="M333.828 330.428H253.013L261.726 268.731H342.541L333.828 330.428Z" fill="#333333" stroke="#333333" stroke-miterlimit="10" stroke-linecap="round" stroke-linejoin="round"/>
<path d="M309.068 301.752L317.175 341.29H296.319L288.212 301.752H309.068ZM294.917 313.484C294.997 313.817 295.296 314.051 295.639 314.047L307.453 313.934C307.926 313.929 308.271 313.486 308.161 313.027L307.095 308.589C307.015 308.256 306.716 308.022 306.374 308.025L294.56 308.138C294.087 308.143 293.742 308.586 293.852 309.046L294.917 313.484Z" fill="white" stroke="#333333" stroke-miterlimit="10" stroke-linecap="round" stroke-linejoin="round"/>
<path d="M170.622 337.38H73.7072V341.29H170.622V337.38Z" fill="white" stroke="#333333" stroke-miterlimit="10" stroke-linecap="round" stroke-linejoin="round"/>
<path d="M185.502 337.38H101.034V341.29H185.502V337.38Z" fill="white" stroke="#333333" stroke-miterlimit="10" stroke-linecap="round" stroke-linejoin="round"/>
<path d="M187.145 330.428H106.33L115.042 268.731H195.858L187.145 330.428Z" fill="white" stroke="#333333" stroke-miterlimit="10" stroke-linecap="round" stroke-linejoin="round"/>
<path d="M190.488 330.428H109.673L118.386 268.731H199.201L190.488 330.428Z" fill="#333333" stroke="#333333" stroke-miterlimit="10" stroke-linecap="round" stroke-linejoin="round"/>
<path d="M165.728 301.752L173.835 341.29H152.979L144.872 301.752H165.728ZM151.577 313.484C151.657 313.817 151.956 314.051 152.299 314.047L164.113 313.934C164.586 313.929 164.931 313.486 164.821 313.027L163.755 308.589C163.675 308.256 163.376 308.022 163.034 308.025L151.22 308.138C150.747 308.143 150.402 308.586 150.512 309.046L151.577 313.484Z" fill="white" stroke="#333333" stroke-miterlimit="10" stroke-linecap="round" stroke-linejoin="round"/>
<path d="M368.602 341.291H23.864V345.164H368.602V341.291Z" fill="#333333" stroke="#333333" stroke-miterlimit="10" stroke-linecap="round" stroke-linejoin="round"/>
</svg>
