<svg width="358" height="117" viewBox="0 0 358 117" fill="none" xmlns="http://www.w3.org/2000/svg">
<path d="M9 3.75L43.5 82.5L77.75 3.75H86.5V95H76.75V27.25L47 95H39.75L9.75 27.75L10 95H0.25V3.75H9ZM154.25 41.75V30.5H164.5V95H154.25V83.25C150.5 91.5 142.5 96 132.5 96C115.25 96 104 82.75 104 62.75C104 42.75 115.5 29 132.5 29C142.5 29 150.25 33.75 154.25 41.75ZM154.25 62.5C154.25 46.5 147.25 37.75 134.5 37.75C121.75 37.75 114.5 47 114.5 62.75C114.5 78.5 121.75 87.25 134.5 87.25C147.25 87.25 154.25 78.25 154.25 62.5ZM236 54.5V95H225.75V55C225.75 43.25 221 37.75 210.75 37.75C199 37.75 191 45.75 191 58.25V95H180.75V0.75H191V41C195.25 33.25 203.25 29 212.75 29C228.25 29 236 37.5 236 54.5ZM276 49.25C276.75 50 277.25 51 277.25 52.5V69.75C277.25 71.25 277 72.5 276 73.25C275 73.75 274 74.25 273 74.25H268.75V48H273C274 48 275 48.5 276 49.25ZM347 5C353 5 357.75 10 358 16V106.25C357.75 112.25 353 117 347 117H256.75C250.75 117 246 112.25 246 106.25V16C246 10 250.75 5 256.75 5H347ZM284.5 70V52.25C284.5 47.5 281.5 40.25 272.5 40.25H260.75V81.75H272.25C281.5 81.75 284.5 74.5 284.5 70ZM309.5 47.75V40.5H293.75C291 40.5 288.75 42.75 288.75 45.5V76.75C289 79.5 291.25 81.75 294 81.75H309.5V74.25H296.25V64.75H304.5V57.25H296.25V47.75H309.5ZM335.5 76.5L345 40.5H337L329.5 68.75L322.25 40.5H314L323.75 76.5C326.25 82.75 332.25 84.25 335.5 76.5Z" fill="white"/>
</svg>
