<svg width="300" height="300" viewBox="0 0 300 300" fill="none" xmlns="http://www.w3.org/2000/svg">
<g filter="url(#filter0_d_169_4991)">
<path d="M254.477 136.079H104.465C100.875 136.079 97.9661 133.169 97.9661 129.58V50.7906C97.9661 47.2014 100.875 44.292 104.465 44.292H254.477C258.066 44.292 260.975 47.2014 260.975 50.7906V129.58C260.975 133.169 258.066 136.079 254.477 136.079Z" fill="#F5F5F5"/>
<path d="M254.477 136.679H104.465C100.551 136.679 97.366 133.494 97.366 129.58V50.7906C97.366 46.8768 100.55 43.692 104.465 43.692H254.477C258.391 43.692 261.576 46.8768 261.576 50.7906V129.58C261.576 133.494 258.391 136.679 254.477 136.679ZM104.465 44.892C101.213 44.892 98.566 47.538 98.566 50.7906V129.58C98.566 132.833 101.212 135.479 104.465 135.479H254.477C257.73 135.479 260.376 132.833 260.376 129.58V50.7906C260.376 47.538 257.73 44.892 254.477 44.892H104.465Z" fill="#DAE1E2"/>
<path d="M97.5657 100.609H123.353V113.976H146.859V129.683H226.668V104.809H243.138V72.3732H260.574V126.997C260.574 131.948 256.561 135.961 251.61 135.961H107.327C101.936 135.961 97.5663 131.591 97.5663 126.2L97.5657 100.609Z" fill="#DAE1E2"/>
<path d="M106.802 148.993C106.79 149.915 106.587 165.559 106.244 192.066L106.243 192.112H106.197C85.7609 192.116 58.8449 192.122 29.1713 192.128H29.1089V192.065C29.1089 189.529 29.1089 186.812 29.1089 184.075C29.1101 167.95 29.1119 152.522 29.1131 138.374V138.316H29.1713C45.3293 138.32 59.8517 138.325 72.0083 138.329H72.0497L72.0533 138.37C72.1871 139.888 72.7511 141.309 73.5689 142.501C74.3843 143.701 75.4271 144.683 76.5431 145.477C78.8021 147.062 81.3761 147.767 83.7593 148.13C86.1587 148.493 88.4243 148.532 90.5009 148.589C92.5817 148.639 94.4831 148.685 96.1943 148.726C102.947 148.896 106.365 148.982 106.802 148.993C106.364 148.984 102.942 148.913 96.1811 148.774C94.4741 148.737 92.5763 148.696 90.5003 148.651C88.4231 148.597 86.1557 148.562 83.7491 148.201C81.3599 147.841 78.7733 147.137 76.4975 145.544C75.3731 144.746 74.3225 143.758 73.4987 142.55C72.6725 141.348 72.1001 139.913 71.9639 138.378L72.0089 138.419C59.8523 138.423 45.3293 138.428 29.1719 138.433L29.2301 138.374C29.2313 152.522 29.2325 167.95 29.2343 184.075C29.2343 186.812 29.2343 189.529 29.2343 192.065L29.1719 192.003C58.8455 192.009 85.7609 192.014 106.197 192.019L106.151 192.065C106.551 165.558 106.788 149.914 106.802 148.993Z" fill="#DAE1E2"/>
<path d="M155.589 263.034C155.589 263.034 155.581 262.748 155.576 262.202C155.573 261.651 155.569 260.845 155.563 259.791C155.556 257.672 155.546 254.565 155.533 250.576C155.518 242.603 155.495 231.113 155.468 217.014L155.589 217.135C134.47 217.145 106.991 217.157 77.0436 217.17H77.0376L77.1936 217.014C77.1894 233.307 77.1858 248.868 77.1828 263.034L77.0376 262.889C100.049 262.918 119.668 262.943 133.541 262.96C140.483 262.977 145.987 262.99 149.762 263C151.646 263.007 153.098 263.013 154.087 263.018C154.574 263.021 154.946 263.024 155.204 263.026C155.456 263.028 155.589 263.034 155.589 263.034C155.589 263.034 155.468 263.04 155.222 263.042C154.968 263.044 154.601 263.047 154.12 263.051C153.139 263.055 151.697 263.061 149.825 263.069C146.057 263.078 140.566 263.091 133.637 263.108C119.74 263.126 100.088 263.15 77.0376 263.179H76.8924V263.034C76.8888 248.867 76.8852 233.306 76.8816 217.014V216.858H77.0382H77.0442C106.991 216.871 134.47 216.884 155.59 216.893H155.711V217.014C155.684 231.144 155.662 242.66 155.647 250.65C155.633 254.628 155.623 257.726 155.616 259.838C155.61 260.883 155.606 261.681 155.603 262.227C155.597 262.764 155.589 263.034 155.589 263.034Z" fill="#DAE1E2"/>
<path d="M152.092 219.796C152.107 219.846 151.726 219.858 151.469 220.298C151.351 220.506 151.273 220.814 151.384 221.09C151.486 221.369 151.817 221.552 152.176 221.534C152.535 221.517 152.848 221.303 152.922 221.016C153.007 220.73 152.899 220.431 152.761 220.235C152.462 219.822 152.083 219.847 152.092 219.796C152.09 219.78 152.176 219.741 152.339 219.761C152.5 219.778 152.733 219.877 152.933 220.098C153.122 220.315 153.298 220.675 153.199 221.093C153.107 221.52 152.653 221.833 152.191 221.847C151.729 221.878 151.247 221.61 151.114 221.194C150.976 220.787 151.116 220.413 151.283 220.178C151.461 219.938 151.683 219.818 151.842 219.785C152.003 219.749 152.092 219.78 152.092 219.796Z" fill="#DAE1E2"/>
<path d="M80.4001 219.796C80.4145 219.846 80.0335 219.858 79.7773 220.298C79.6585 220.506 79.5805 220.814 79.6921 221.09C79.7935 221.369 80.1253 221.552 80.4841 221.534C80.8429 221.517 81.1555 221.303 81.2299 221.016C81.3145 220.73 81.2071 220.431 81.0691 220.235C80.7709 219.822 80.3905 219.847 80.4001 219.796C80.3983 219.78 80.4841 219.741 80.6467 219.761C80.8081 219.778 81.0409 219.877 81.2407 220.098C81.4297 220.315 81.6055 220.675 81.5071 221.093C81.4153 221.52 80.9611 221.833 80.4985 221.847C80.0371 221.878 79.5547 221.61 79.4221 221.194C79.2841 220.787 79.4239 220.413 79.5913 220.178C79.7683 219.938 79.9909 219.818 80.1499 219.785C80.3119 219.749 80.4007 219.78 80.4001 219.796Z" fill="#DAE1E2"/>
<path d="M152.182 258.782C152.196 258.832 151.815 258.844 151.559 259.285C151.44 259.492 151.362 259.801 151.474 260.077C151.576 260.356 151.907 260.538 152.266 260.52C152.624 260.503 152.937 260.289 153.011 260.002C153.096 259.717 152.989 259.417 152.851 259.222C152.552 258.809 152.172 258.833 152.182 258.782C152.18 258.766 152.266 258.727 152.428 258.747C152.59 258.764 152.822 258.863 153.022 259.084C153.212 259.301 153.387 259.661 153.289 260.079C153.197 260.506 152.743 260.819 152.28 260.833C151.819 260.864 151.336 260.596 151.204 260.18C151.065 259.774 151.205 259.399 151.373 259.164C151.55 258.925 151.772 258.804 151.931 258.771C152.093 258.736 152.182 258.766 152.182 258.782Z" fill="#DAE1E2"/>
<path d="M162.549 219.796C162.563 219.846 162.182 219.858 161.925 220.298C161.806 220.506 161.728 220.814 161.841 221.09C161.942 221.369 162.274 221.552 162.633 221.534C162.991 221.517 163.304 221.303 163.378 221.016C163.463 220.73 163.356 220.431 163.218 220.235C162.919 219.822 162.539 219.847 162.549 219.796C162.547 219.78 162.633 219.741 162.795 219.761C162.957 219.778 163.189 219.877 163.389 220.098C163.579 220.315 163.754 220.675 163.656 221.093C163.564 221.52 163.11 221.833 162.647 221.847C162.186 221.878 161.703 221.61 161.571 221.194C161.432 220.787 161.572 220.413 161.74 220.178C161.917 219.938 162.139 219.818 162.298 219.785C162.46 219.749 162.549 219.78 162.549 219.796Z" fill="#DAE1E2"/>
<path d="M162.638 258.782C162.652 258.832 162.271 258.844 162.014 259.285C161.896 259.492 161.818 259.801 161.929 260.077C162.031 260.356 162.362 260.538 162.721 260.52C163.08 260.503 163.393 260.289 163.467 260.002C163.552 259.717 163.444 259.417 163.306 259.222C163.008 258.809 162.628 258.833 162.638 258.782C162.636 258.766 162.722 258.727 162.884 258.747C163.046 258.764 163.279 258.863 163.478 259.084C163.668 259.301 163.843 259.661 163.745 260.079C163.653 260.506 163.199 260.819 162.736 260.833C162.275 260.864 161.792 260.596 161.66 260.18C161.521 259.774 161.662 259.399 161.829 259.164C162.007 258.925 162.229 258.804 162.388 258.771C162.549 258.736 162.638 258.766 162.638 258.782Z" fill="#DAE1E2"/>
<path d="M188.817 219.796C188.831 219.846 188.45 219.858 188.194 220.298C188.075 220.506 187.997 220.814 188.108 221.09C188.21 221.369 188.542 221.552 188.9 221.534C189.259 221.517 189.572 221.303 189.646 221.016C189.731 220.73 189.623 220.431 189.485 220.235C189.187 219.822 188.807 219.847 188.817 219.796C188.815 219.78 188.901 219.741 189.064 219.761C189.225 219.778 189.458 219.877 189.658 220.098C189.847 220.315 190.022 220.675 189.924 221.093C189.832 221.52 189.378 221.833 188.915 221.847C188.454 221.878 187.972 221.61 187.839 221.194C187.7 220.787 187.841 220.413 188.008 220.178C188.186 219.938 188.408 219.818 188.567 219.785C188.728 219.749 188.817 219.78 188.817 219.796Z" fill="#DAE1E2"/>
<path d="M188.906 258.782C188.921 258.832 188.54 258.844 188.284 259.285C188.165 259.492 188.087 259.801 188.198 260.077C188.3 260.356 188.632 260.538 188.99 260.52C189.349 260.503 189.662 260.289 189.736 260.002C189.821 259.717 189.713 259.417 189.575 259.222C189.277 258.809 188.897 258.833 188.906 258.782C188.905 258.766 188.99 258.727 189.153 258.747C189.314 258.764 189.547 258.863 189.747 259.084C189.937 259.301 190.112 259.661 190.013 260.079C189.922 260.506 189.467 260.819 189.005 260.833C188.543 260.864 188.061 260.596 187.928 260.18C187.79 259.774 187.93 259.399 188.098 259.164C188.275 258.925 188.497 258.804 188.656 258.771C188.818 258.736 188.906 258.766 188.906 258.782Z" fill="#DAE1E2"/>
<path d="M80.3107 258.782C80.3251 258.832 79.9441 258.844 79.6879 259.285C79.5691 259.492 79.4911 259.801 79.6027 260.077C79.7041 260.356 80.0359 260.538 80.3947 260.52C80.7535 260.503 81.0661 260.289 81.1405 260.002C81.2251 259.717 81.1177 259.417 80.9797 259.222C80.6815 258.809 80.3011 258.833 80.3107 258.782C80.3089 258.766 80.3947 258.727 80.5573 258.747C80.7187 258.764 80.9515 258.863 81.1513 259.084C81.3409 259.301 81.5161 259.661 81.4177 260.079C81.3259 260.506 80.8717 260.819 80.4091 260.833C79.9477 260.864 79.4653 260.596 79.3327 260.18C79.1947 259.774 79.3345 259.399 79.5019 259.164C79.6795 258.925 79.9015 258.804 80.0605 258.771C80.2225 258.736 80.3113 258.766 80.3107 258.782Z" fill="#DAE1E2"/>
<path d="M180.829 263.034C180.829 263.034 180.823 262.953 180.82 262.803C180.818 262.642 180.815 262.423 180.811 262.14C180.807 261.547 180.801 260.691 180.792 259.585C180.783 257.351 180.769 254.112 180.752 250.039C180.735 241.89 180.71 230.406 180.681 217.014L180.829 217.162C173.933 217.165 166.397 217.167 158.552 217.17H158.549L158.705 217.014C158.689 234.811 158.674 251.015 158.664 263.034L158.549 262.919C165.401 262.945 170.956 262.966 174.811 262.981C176.733 262.993 178.23 263.003 179.26 263.01C179.763 263.015 180.15 263.019 180.425 263.022C180.688 263.025 180.829 263.034 180.829 263.034C180.829 263.034 180.704 263.041 180.447 263.046C180.178 263.049 179.798 263.053 179.304 263.058C178.28 263.065 176.792 263.074 174.881 263.087C171.009 263.101 165.431 263.123 158.548 263.149L158.433 263.149V263.034C158.422 251.014 158.408 234.81 158.392 217.014V216.858H158.549H158.552C166.397 216.861 173.934 216.864 180.829 216.866H180.977L180.977 217.014C180.948 230.446 180.923 241.964 180.906 250.137C180.888 254.196 180.875 257.424 180.865 259.65C180.857 260.743 180.851 261.589 180.846 262.174C180.843 262.451 180.84 262.665 180.837 262.821C180.835 262.965 180.832 263.037 180.829 263.034Z" fill="#DAE1E2"/>
<path d="M180.315 239.234C180.315 239.32 175.586 239.39 169.755 239.39C163.921 239.39 159.194 239.32 159.194 239.234C159.194 239.148 163.921 239.078 169.755 239.078C175.587 239.078 180.315 239.147 180.315 239.234Z" fill="#DAE1E2"/>
<path d="M249.148 263.033C249.148 263.033 249.139 262.742 249.134 262.189C249.131 261.63 249.127 260.813 249.12 259.748C249.113 257.607 249.101 254.473 249.088 250.466C249.072 242.458 249.049 230.969 249.022 217.013L249.148 217.14C231.1 217.148 208.693 217.159 184.47 217.169H184.465L184.621 217.013C184.616 233.489 184.611 249.124 184.606 263.033L184.464 262.891C203.559 262.92 219.711 262.945 231.098 262.961C236.795 262.978 241.299 262.991 244.387 262.999C245.926 263.007 247.111 263.012 247.92 263.017C248.317 263.02 248.62 263.023 248.833 263.025C249.039 263.027 249.148 263.033 249.148 263.033C249.148 263.033 249.05 263.039 248.85 263.042C248.641 263.044 248.343 263.047 247.953 263.05C247.15 263.054 245.975 263.06 244.448 263.067C241.367 263.076 236.875 263.089 231.191 263.105C219.781 263.122 203.597 263.146 184.464 263.175H184.322V263.033C184.318 249.123 184.313 233.489 184.307 217.013V216.857H184.464H184.469C208.693 216.868 231.1 216.878 249.148 216.886H249.275V217.013C249.247 231.002 249.224 242.517 249.209 250.545C249.195 254.539 249.184 257.663 249.176 259.799C249.17 260.854 249.166 261.662 249.162 262.216C249.157 262.76 249.148 263.033 249.148 263.033Z" fill="#DAE1E2"/>
<path d="M30.9377 55.5786V126.263H83.5391V55.5648C83.5391 55.5648 30.9377 56.1492 30.9377 55.5786Z" fill="#DAE1E2"/>
<path d="M30.9377 55.725V66.723L83.5583 67.0446V55.5786L30.9377 55.725Z" fill="#DAE1E2"/>
<path d="M49.9661 60.639V62.7894H66.8147V60.9252C66.8147 60.9252 50.3981 60.639 49.9661 60.639Z" fill="white"/>
<path d="M50.3442 71.7822H33.8718V89.4444H50.3442V71.7822Z" fill="white"/>
<path d="M48.04 107.944C48.04 107.944 48.2914 107.934 48.7696 107.93C49.2724 107.927 49.9714 107.923 50.8582 107.917C52.696 107.912 55.3072 107.905 58.5136 107.896L58.4668 107.943C58.4626 102.69 58.4572 95.7408 58.4512 88.1364C58.4512 86.6286 58.4518 85.146 58.4518 83.7072V83.6454H58.5136C64.2742 83.6508 69.4894 83.6556 73.657 83.6598L73.6096 83.7066C73.6618 80.4312 73.7038 77.7606 73.7338 75.8814C73.7512 74.9742 73.765 74.2584 73.7746 73.7442C73.7854 73.2552 73.798 72.9978 73.798 72.9978C73.798 72.9978 73.804 73.2552 73.8022 73.7448C73.7986 74.259 73.7932 74.9742 73.7866 75.882C73.7668 77.7612 73.7386 80.4318 73.7038 83.7078L73.7032 83.7546H73.6558C69.4882 83.7588 64.273 83.7636 58.5124 83.769L58.5742 83.7072C58.5742 85.146 58.5748 86.6286 58.5748 88.1364C58.5688 95.7408 58.5634 102.69 58.5592 107.943V107.99H58.5124C55.306 107.982 52.6948 107.975 50.857 107.969C49.9702 107.964 49.2712 107.96 48.7684 107.957C48.2914 107.953 48.04 107.944 48.04 107.944Z" fill="white"/>
<path d="M79.0469 113.176C79.0469 113.176 78.6131 113.188 77.7995 113.193C76.9631 113.197 75.7757 113.201 74.2739 113.208C71.2151 113.213 66.8825 113.221 61.6925 113.23H61.6385V113.176C61.6361 108.101 61.6331 102.115 61.6301 95.7258C61.6307 92.9148 61.6313 90.1824 61.6319 87.5742V87.5136H61.6925C65.4401 87.5166 68.9387 87.519 72.0797 87.5214L72.0269 87.5742C72.0359 82.6914 72.0437 78.6306 72.0491 75.7662C72.0551 74.3622 72.0599 73.2522 72.0635 72.4698C72.0683 71.7096 72.0797 71.3052 72.0797 71.3052C72.0797 71.3052 72.0905 71.7096 72.0959 72.4698C72.0995 73.2522 72.1043 74.3622 72.1103 75.7662C72.1157 78.6312 72.1235 82.692 72.1325 87.5742V87.627H72.0797C68.9387 87.6294 65.4401 87.6318 61.6925 87.6348L61.7531 87.5742C61.7537 90.1824 61.7543 92.9148 61.7549 95.7258C61.7519 102.115 61.7489 108.101 61.7465 113.176L61.6925 113.122C66.8825 113.131 71.2145 113.139 74.2739 113.144C75.7751 113.151 76.9631 113.156 77.7995 113.159C78.6131 113.165 79.0469 113.176 79.0469 113.176Z" fill="#DAE1E2"/>
<path d="M33.9756 93.3048V94.9632H47.3016V92.973L33.9756 93.3048Z" fill="white"/>
<path d="M33.8718 96.1951V97.8535H47.1972V95.8633L33.8718 96.1951Z" fill="white"/>
<path d="M269.417 192.065C269.416 191.173 269.4 175.844 269.372 149.843L269.417 149.889C245.589 149.893 213.173 149.899 177.505 149.906H177.499L177.561 149.843C177.56 164.69 177.559 178.972 177.558 192.065L177.499 192.005C230.953 192.04 268.039 192.064 269.417 192.065C268.04 192.065 230.954 192.089 177.499 192.124H177.44V192.065C177.439 178.973 177.438 164.69 177.437 149.843V149.781H177.499H177.506C213.173 149.788 245.59 149.794 269.418 149.798H269.464V149.844C269.435 175.844 269.418 191.174 269.417 192.065Z" fill="#DAE1E2"/>
<path d="M269.927 268.259C269.927 268.345 216.23 268.415 150.005 268.415C83.7582 268.415 30.072 268.345 30.072 268.259C30.072 268.172 83.7582 268.103 150.005 268.103C216.23 268.102 269.927 268.172 269.927 268.259Z" fill="#333333"/>
<path d="M71.5775 204.208H66.4607V268.251H71.5775V204.208Z" fill="#333333"/>
<path d="M231.823 204.208H226.706V268.259H231.823V204.208Z" fill="#333333"/>
<path d="M236.228 204.865H64.5894C62.6208 204.865 61.0254 203.269 61.0254 201.301V200.324C61.0254 198.355 62.6214 196.76 64.5894 196.76H236.228C238.197 196.76 239.792 198.355 239.792 200.324V201.301C239.792 203.269 238.197 204.865 236.228 204.865Z" fill="#455A64"/>
<path d="M189.991 60.9007L169.683 53.6077L149.571 60.8029C147.004 62.0155 144.752 62.7415 144.752 65.1331V77.0419C144.752 85.3123 146.919 93.5071 151.377 100.742C155.129 106.831 160.938 113.1 169.881 117.084C178.101 114.413 184.237 107.295 187.989 101.207C192.447 93.9715 194.614 85.7767 194.614 77.5063V66.7975C194.614 63.3865 192.807 61.7209 189.991 60.9007Z" fill="#556B2F"/>
<g opacity="0.3">
<path d="M169.88 110.173C162.805 107.021 158.209 101.955 155.241 97.1383C151.713 91.4143 149.999 84.9301 149.999 78.3871V70.0333C149.999 68.1409 151.14 66.3685 153.407 65.3107L169.686 59.2237L169.683 53.6077L149.571 60.8029C147.46 61.7251 144.752 62.7415 144.752 65.1331V77.0419C144.752 85.3123 146.919 93.5071 151.377 100.742C155.129 106.831 160.938 113.1 169.881 117.084V110.173H169.88Z" fill="black"/>
</g>
<g opacity="0.4">
<path d="M169.88 117.084C171.304 116.607 172.613 116.057 173.87 115.373C177.241 113.536 180.118 111.014 182.313 108.731C184.768 106.177 186.597 103.418 188.186 100.84C192.644 93.6041 194.811 85.4093 194.614 76.9109L194.626 67.0787C194.614 62.1827 192.103 61.8221 189.992 60.8999L169.683 53.6069L169.687 59.2229L186.156 65.4083C188.422 66.4661 189.564 68.2385 189.564 70.1309V78.4847C189.564 85.0277 187.849 91.5113 184.322 97.2359C181.354 102.053 176.955 107.02 169.88 110.173V117.084Z" fill="black"/>
</g>
<path opacity="0.5" d="M175.071 77.8505L175.093 76.2431C175.093 73.3355 172.728 70.9703 169.821 70.9703C166.913 70.9703 164.548 73.3355 164.548 76.2353L164.525 77.8727C163.102 78.0833 162.009 79.3061 162.009 80.7875V90.2675C162.009 91.8971 163.33 93.2183 164.96 93.2183H174.802C176.431 93.2183 177.753 91.8971 177.753 90.2675V80.7875C177.752 79.2491 176.574 77.9873 175.071 77.8505ZM171.226 87.9083H168.652L169.054 86.0495C168.609 85.7729 168.311 85.2803 168.311 84.7169C168.311 83.8505 169.014 83.1473 169.881 83.1473C170.747 83.1473 171.45 83.8499 171.45 84.7169C171.45 85.2599 171.175 85.7381 170.755 86.0201C170.937 86.7401 171.226 87.9083 171.226 87.9083ZM173.935 77.8373H165.661L165.684 76.2437C165.684 73.9625 167.539 72.1067 169.821 72.1067C172.102 72.1067 173.958 73.9625 173.958 76.2353L173.935 77.8373Z" fill="#333333"/>
<path d="M153.29 77.7353C153.245 77.7413 153.104 77.1149 152.985 76.0859C152.863 75.0575 152.773 73.6247 152.82 72.0431C152.842 71.2523 152.895 70.4999 152.967 69.8183C153.032 69.1373 153.157 68.4983 153.42 68.0213C153.678 67.5413 154.039 67.2545 154.309 67.1273C154.585 66.9995 154.756 67.0055 154.759 67.0247C154.794 67.0691 154.074 67.2107 153.645 68.1341C153.433 68.5805 153.34 69.1739 153.292 69.8483C153.239 70.5251 153.197 71.2709 153.175 72.0533C153.129 73.6193 153.178 75.0383 153.235 76.0649C153.29 77.0915 153.343 77.7281 153.29 77.7353Z" fill="#333333"/>
<path d="M153.589 82.9187C153.491 82.9205 153.402 82.4315 153.39 81.8261C153.378 81.2207 153.448 80.7281 153.546 80.7263C153.643 80.7245 153.733 81.2135 153.745 81.8195C153.757 82.4243 153.687 82.9169 153.589 82.9187Z" fill="#333333"/>
<path d="M196.885 54.8753C196.885 54.8753 197.456 54.9887 198.494 55.3991C199.012 55.6025 199.639 55.9067 200.31 56.3795C200.971 56.8559 201.694 57.5177 202.204 58.4693C202.731 59.4083 203.044 60.5963 203.081 61.9067C203.112 63.2135 203.096 64.6289 203.106 66.1583C203.107 69.2159 203.135 72.7103 203.113 76.6019C203.078 80.4965 202.581 84.7877 201.47 89.2925C200.332 93.7871 198.526 98.4851 195.885 103.069C193.229 107.634 189.854 112.157 185.627 116.198C181.411 120.215 176.244 123.768 170.188 125.652L170.135 125.668L170.084 125.647C168.001 124.747 165.921 123.742 163.886 122.582C161.861 121.408 159.875 120.098 157.964 118.642C154.134 115.739 150.647 112.204 147.641 108.223C144.359 103.879 141.769 99.1223 139.956 94.2011C138.138 89.2805 137.083 84.2063 136.73 79.2293C136.54 76.7381 136.59 74.2763 136.583 71.8631C136.585 69.4469 136.586 67.0691 136.587 64.7321C136.588 63.5639 136.588 62.4053 136.589 61.2581C136.597 60.6857 136.564 60.1169 136.649 59.5259C136.73 58.9409 136.985 58.3829 137.345 57.9251C138.073 56.9987 139.102 56.4461 140.088 55.9571C141.089 55.4789 142.101 55.0673 143.084 54.6287L143.09 54.6263L143.096 54.6245C153.246 51.2045 162.279 48.1607 169.849 45.6095L169.882 45.5981L169.914 45.6095C178.385 48.5069 185.129 50.8133 189.762 52.3979C192.069 53.1935 193.849 53.8073 195.06 54.2249C195.656 54.4337 196.111 54.5933 196.425 54.7031C196.73 54.8129 196.885 54.8753 196.885 54.8753C196.885 54.8753 196.725 54.8315 196.416 54.7313C196.1 54.6275 195.643 54.4769 195.043 54.2801C193.828 53.8739 192.042 53.2775 189.728 52.5041C185.087 50.9399 178.333 48.6635 169.847 45.8033H169.913C162.349 48.3713 153.323 51.4361 143.182 54.8795L143.193 54.8747C142.205 55.3169 141.195 55.7303 140.206 56.2043C139.232 56.6873 138.237 57.2339 137.564 58.0961C137.231 58.5227 137 59.0297 136.925 59.5727C136.847 60.1073 136.877 60.6869 136.871 61.2599C136.872 62.4071 136.873 63.5657 136.874 64.7339C136.875 67.0709 136.876 69.4487 136.877 71.8649C136.887 74.2823 136.838 76.7345 137.029 79.2089C137.384 84.1595 138.436 89.2037 140.246 94.0955C142.05 98.9879 144.626 103.715 147.89 108.037C150.88 111.995 154.345 115.51 158.152 118.397C160.052 119.846 162.025 121.148 164.038 122.318C166.061 123.471 168.13 124.472 170.201 125.369L170.098 125.363C176.098 123.502 181.231 119.983 185.429 115.992C189.637 111.979 193.007 107.477 195.658 102.938C198.295 98.3813 200.102 93.7085 201.246 89.2361C202.363 84.7535 202.871 80.4803 202.918 76.5995C202.931 72.7115 202.943 69.2159 202.954 66.1583C202.952 64.6307 202.975 63.2087 202.952 61.9109C202.924 60.6155 202.622 59.4461 202.112 58.5191C201.618 57.5795 200.912 56.9213 200.263 56.4431C199.604 55.9685 198.985 55.6577 198.472 55.4477C197.962 55.2305 197.561 55.0949 197.29 55.0109C197.02 54.9257 196.885 54.8753 196.885 54.8753Z" fill="#556B2F"/>
<path d="M133.683 149.648L135.174 177.864L172.711 178.721L169.931 156.812L172.799 134.388C170.917 123.898 156.211 123.176 156.211 123.176L144.669 122.989C144.669 122.989 139.24 122.27 133.315 125.509C133.315 125.509 121.599 131.886 121.706 148.09" fill="#455A64"/>
<path d="M156.326 122.86C156.249 122.832 156.135 123.84 155.313 125.144C154.513 126.422 152.619 127.826 150.25 127.802C147.89 127.828 145.954 126.472 145.178 125.177C144.769 124.529 144.573 123.927 144.453 123.512C144.334 123.094 144.289 122.855 144.259 122.86C144.24 122.862 144.239 123.107 144.319 123.543C144.399 123.976 144.563 124.609 144.964 125.306C145.357 126.004 146.036 126.729 146.952 127.266C147.859 127.819 149.024 128.161 150.251 128.157C151.479 128.159 152.641 127.804 153.543 127.241C154.45 126.689 155.119 125.965 155.525 125.277C155.939 124.59 156.124 123.964 156.23 123.538C156.328 123.107 156.347 122.864 156.326 122.86Z" fill="#333333"/>
<path d="M165.146 132.302C161.527 135.188 159.339 139.501 159.152 144.125C158.863 151.289 158.416 161.24 158.151 161.737C157.332 163.273 135.616 161.965 133.33 161.8C132.947 161.688 132.15 161.444 130.573 160.951C130.573 160.951 125.498 156.558 124.575 157.877C123.652 159.197 127.242 160.044 127.936 162.636C128.631 165.228 121.419 163.201 120.953 162.883L119.09 162.356C119.09 162.356 120.197 165.896 121.139 167.015C124.155 170.602 131.032 172.406 131.032 172.406C131.032 172.406 159.153 181.541 170.515 173.998C174.225 171.535 174.859 147.361 173.452 138.011C172.897 134.316 169.699 131.605 165.962 131.65L165.146 132.302Z" fill="#FFBE9D"/>
<path d="M123.427 166.343C123.449 166.286 122.662 165.932 121.717 165.451C120.769 164.972 120.019 164.547 119.986 164.599C119.954 164.646 120.662 165.157 121.62 165.641C122.576 166.127 123.407 166.396 123.427 166.343Z" fill="#EB996E"/>
<path d="M169.779 128.924C173.241 132.235 176.595 138.878 175.352 152.182L156.9 151.42L157.376 133.22C157.424 131.376 158.297 129.651 159.755 128.521C162.75 126.201 167.04 126.307 169.779 128.924Z" fill="#455A64"/>
<path d="M133.034 264.599L132.538 257.621L145.603 256.608L146.438 266.809L145.632 266.923C142.042 267.403 127.346 269.11 124.88 268.567C122.128 267.96 133.034 264.599 133.034 264.599Z" fill="#556B2F"/>
<g opacity="0.3">
<path d="M141.692 267.074C141.794 265.968 142.322 264.906 143.143 264.159C143.965 263.411 145.013 262.97 146.123 262.972L146.41 266.623L141.692 267.074Z" fill="white"/>
</g>
<g opacity="0.3">
<path d="M127.72 266.435C127.72 266.435 123.917 267.859 124.452 268.462C124.987 269.065 139.903 267.899 146.437 266.809L146.393 266.519L129.007 268.027C129.007 268.027 128.483 266.408 127.72 266.435Z" fill="white"/>
</g>
<path d="M146.598 266.494C146.599 266.5 146.522 266.514 146.375 266.536C146.183 266.563 145.972 266.593 145.733 266.626C145.09 266.704 144.3 266.8 143.367 266.914C141.367 267.143 138.6 267.422 135.538 267.664C132.475 267.905 129.698 268.064 127.687 268.151C126.748 268.186 125.953 268.214 125.305 268.238C125.065 268.243 124.852 268.247 124.657 268.251C124.509 268.252 124.431 268.25 124.431 268.244C124.431 268.239 124.508 268.231 124.656 268.219C124.85 268.206 125.063 268.192 125.303 268.177C125.949 268.139 126.744 268.093 127.682 268.039C129.691 267.923 132.465 267.747 135.526 267.506C138.586 267.264 141.353 267.002 143.356 266.802C144.29 266.708 145.082 266.629 145.727 266.564C145.966 266.542 146.179 266.522 146.372 266.505C146.519 266.492 146.597 266.489 146.598 266.494Z" fill="#333333"/>
<path d="M129.026 268.23C128.978 268.24 128.896 267.676 128.494 267.131C128.1 266.58 127.589 266.328 127.613 266.286C127.619 266.246 128.198 266.449 128.622 267.038C129.053 267.623 129.066 268.236 129.026 268.23Z" fill="#333333"/>
<path d="M132.728 265.973C132.692 265.999 132.491 265.789 132.277 265.503C132.062 265.218 131.918 264.965 131.953 264.939C131.987 264.913 132.19 265.123 132.404 265.409C132.618 265.694 132.763 265.946 132.728 265.973Z" fill="#333333"/>
<path d="M133.742 265.331C133.715 265.366 133.498 265.244 133.258 265.06C133.016 264.875 132.843 264.697 132.87 264.662C132.897 264.628 133.114 264.749 133.354 264.934C133.595 265.118 133.769 265.296 133.742 265.331Z" fill="#333333"/>
<path d="M134.314 264.046C134.318 264.089 134.016 264.152 133.639 264.186C133.262 264.22 132.954 264.212 132.95 264.168C132.946 264.124 133.249 264.062 133.625 264.028C134.002 263.993 134.311 264.002 134.314 264.046Z" fill="#333333"/>
<path d="M134.475 263.157C134.493 263.195 134.172 263.372 133.732 263.438C133.292 263.507 132.933 263.436 132.938 263.395C132.942 263.349 133.29 263.348 133.707 263.282C134.126 263.219 134.459 263.115 134.475 263.157Z" fill="#333333"/>
<path d="M132.196 264.868C132.198 264.885 131.879 264.95 131.356 264.928C131.095 264.917 130.784 264.88 130.447 264.801C130.279 264.755 130.104 264.725 129.919 264.63C129.831 264.581 129.733 264.511 129.691 264.385C129.646 264.262 129.703 264.116 129.791 264.04C130.561 263.561 131.4 263.95 131.731 264.341C131.911 264.54 132.002 264.74 132.048 264.88C132.093 265.021 132.097 265.103 132.088 265.105C132.059 265.118 132.005 264.779 131.65 264.418C131.474 264.242 131.216 264.077 130.896 264.008C130.593 263.944 130.169 263.953 129.901 264.155C129.775 264.264 129.839 264.417 129.994 264.493C130.139 264.571 130.322 264.612 130.482 264.658C130.808 264.743 131.11 264.791 131.364 264.815C131.873 264.866 132.194 264.842 132.196 264.868Z" fill="#333333"/>
<path d="M131.981 264.926C131.97 264.937 131.829 264.732 131.839 264.351C131.845 264.164 131.896 263.939 132.02 263.72C132.154 263.522 132.324 263.25 132.686 263.237C132.882 263.247 132.995 263.461 132.975 263.605C132.971 263.753 132.915 263.884 132.861 263.991C132.753 264.21 132.625 264.391 132.504 264.53C132.261 264.807 132.061 264.922 132.051 264.907C132.035 264.888 132.206 264.743 132.417 264.459C132.521 264.318 132.633 264.139 132.729 263.929C132.83 263.742 132.884 263.417 132.671 263.396C132.459 263.392 132.261 263.618 132.146 263.795C132.028 263.987 131.97 264.188 131.951 264.359C131.913 264.706 132.009 264.918 131.981 264.926Z" fill="#333333"/>
<path d="M146.052 262.941C146.051 262.97 145.675 262.934 145.09 263.05C144.511 263.161 143.716 263.465 143.053 264.083C142.39 264.702 142.033 265.475 141.882 266.045C141.727 266.621 141.736 266.999 141.707 266.997C141.697 266.997 141.685 266.904 141.686 266.734C141.686 266.564 141.707 266.317 141.773 266.018C141.899 265.425 142.253 264.613 142.944 263.967C143.636 263.322 144.47 263.025 145.071 262.94C145.373 262.895 145.621 262.89 145.791 262.902C145.96 262.913 146.053 262.931 146.052 262.941Z" fill="#333333"/>
<path d="M144.273 257.61C144.317 257.606 144.462 258.803 144.596 260.284C144.731 261.765 144.805 262.969 144.761 262.973C144.717 262.977 144.573 261.78 144.438 260.298C144.303 258.818 144.229 257.614 144.273 257.61Z" fill="#333333"/>
<path d="M139.949 265.928C139.958 265.968 139.117 266.175 138.056 266.267C136.996 266.361 136.132 266.304 136.134 266.263C136.135 266.217 136.992 266.202 138.043 266.108C139.093 266.018 139.94 265.883 139.949 265.928Z" fill="#333333"/>
<path d="M142.508 265.724C142.543 265.754 142.453 265.91 142.381 266.113C142.307 266.315 142.275 266.493 142.23 266.494C142.188 266.497 142.147 266.293 142.232 266.059C142.316 265.826 142.478 265.695 142.508 265.724Z" fill="#333333"/>
<path d="M143.38 264.448C143.413 264.476 143.339 264.619 143.215 264.767C143.091 264.914 142.963 265.011 142.929 264.983C142.895 264.955 142.969 264.812 143.094 264.664C143.218 264.517 143.346 264.42 143.38 264.448Z" fill="#333333"/>
<path d="M144.718 263.792C144.712 263.837 144.538 263.849 144.352 263.932C144.163 264.01 144.035 264.127 143.998 264.1C143.961 264.079 144.057 263.884 144.289 263.786C144.521 263.685 144.728 263.75 144.718 263.792Z" fill="#333333"/>
<path d="M145.68 263.456C145.699 263.495 145.629 263.569 145.524 263.619C145.419 263.669 145.318 263.678 145.299 263.639C145.28 263.599 145.35 263.527 145.455 263.476C145.561 263.425 145.661 263.416 145.68 263.456Z" fill="#333333"/>
<path d="M92.8789 264.931L93.0553 257.938L106.157 258.185L106.007 268.418L105.194 268.455C101.575 268.588 86.7829 268.874 84.3799 268.096C81.7003 267.229 92.8789 264.931 92.8789 264.931Z" fill="#556B2F"/>
<g opacity="0.3">
<path d="M101.259 268.226C101.466 267.136 102.094 266.129 102.983 265.465C103.873 264.799 104.959 264.46 106.064 264.57L105.997 268.232L101.259 268.226Z" fill="white"/>
</g>
<g opacity="0.3">
<path d="M87.4128 266.248C87.4128 266.248 83.49 267.299 83.9646 267.952C84.4392 268.603 99.3978 268.876 106.007 268.419L105.991 268.126L88.5402 267.956C88.5402 267.956 88.1754 266.294 87.4128 266.248Z" fill="white"/>
</g>
<path d="M106.198 268.121C106.198 268.127 106.12 268.134 105.972 268.142C105.778 268.15 105.565 268.159 105.325 268.169C104.677 268.185 103.881 268.205 102.942 268.228C100.929 268.264 98.1475 268.276 95.0767 268.223C92.0047 268.169 89.2255 268.059 87.2155 267.953C86.2777 267.897 85.4827 267.85 84.8359 267.811C84.5959 267.793 84.3835 267.776 84.1897 267.761C84.0421 267.748 83.9647 267.739 83.9653 267.733C83.9653 267.728 84.0433 267.727 84.1915 267.729C84.3859 267.735 84.5989 267.742 84.8395 267.749C85.4863 267.775 86.2819 267.805 87.2209 267.841C89.2315 267.919 92.0095 268.01 95.0803 268.064C98.1493 268.118 100.929 268.123 102.941 268.116C103.881 268.112 104.677 268.109 105.324 268.108C105.565 268.109 105.778 268.109 105.972 268.11C106.12 268.112 106.198 268.116 106.198 268.121Z" fill="#333333"/>
<path d="M88.5402 268.16C88.4916 268.165 88.4646 267.596 88.116 267.015C87.7776 266.428 87.2928 266.128 87.321 266.089C87.3312 266.049 87.888 266.306 88.2528 266.935C88.6248 267.558 88.5792 268.17 88.5402 268.16Z" fill="#333333"/>
<path d="M92.4421 266.269C92.4049 266.292 92.2237 266.063 92.0383 265.759C91.8529 265.454 91.7323 265.189 91.7701 265.166C91.8073 265.144 91.9885 265.372 92.1739 265.676C92.3593 265.981 92.4793 266.246 92.4421 266.269Z" fill="#333333"/>
<path d="M93.513 265.727C93.483 265.759 93.279 265.617 93.057 265.41C92.835 265.203 92.679 265.01 92.709 264.978C92.739 264.946 92.943 265.088 93.165 265.295C93.387 265.502 93.543 265.695 93.513 265.727Z" fill="#333333"/>
<path d="M94.2061 264.503C94.2055 264.547 93.8989 264.581 93.5209 264.578C93.1429 264.576 92.8363 264.538 92.8369 264.494C92.8375 264.45 93.1441 264.417 93.5221 264.42C93.9001 264.422 94.2067 264.459 94.2061 264.503Z" fill="#333333"/>
<path d="M94.4521 263.635C94.4659 263.675 94.1299 263.819 93.6853 263.843C93.2407 263.87 92.8903 263.765 92.8993 263.724C92.9077 263.679 93.2533 263.711 93.6757 263.685C94.0987 263.662 94.4389 263.591 94.4521 263.635Z" fill="#333333"/>
<path d="M92.0184 265.118C92.019 265.136 91.695 265.169 91.1766 265.097C90.918 265.061 90.612 264.994 90.2838 264.883C90.1206 264.821 89.9502 264.775 89.7744 264.662C89.6922 264.605 89.601 264.526 89.571 264.397C89.5386 264.271 89.6088 264.13 89.7048 264.063C90.5172 263.661 91.3146 264.128 91.6056 264.55C91.7664 264.765 91.8378 264.973 91.8702 265.117C91.9014 265.261 91.8972 265.343 91.8876 265.345C91.8576 265.355 91.8366 265.012 91.5174 264.619C91.3596 264.427 91.119 264.238 90.8064 264.139C90.5106 264.045 90.0882 264.014 89.802 264.188C89.6664 264.285 89.7156 264.443 89.8626 264.535C89.9994 264.626 90.1776 264.684 90.3324 264.745C90.6492 264.86 90.9444 264.937 91.1952 264.986C91.698 265.085 92.019 265.092 92.0184 265.118Z" fill="#333333"/>
<path d="M91.7995 265.155C91.7875 265.164 91.6669 264.947 91.7131 264.569C91.7371 264.384 91.8091 264.165 91.9543 263.958C92.1061 263.774 92.3023 263.52 92.6629 263.542C92.8573 263.571 92.9491 263.795 92.9155 263.936C92.8975 264.083 92.8291 264.208 92.7655 264.309C92.6365 264.517 92.4919 264.685 92.3587 264.812C92.0899 265.065 91.8799 265.16 91.8709 265.143C91.8565 265.122 92.0413 264.995 92.2783 264.733C92.3965 264.602 92.5249 264.435 92.6401 264.234C92.7589 264.059 92.8441 263.741 92.6335 263.698C92.4229 263.674 92.2039 263.88 92.0725 264.045C91.9369 264.225 91.8595 264.42 91.8247 264.588C91.7533 264.93 91.8277 265.15 91.7995 265.155Z" fill="#333333"/>
<path d="M105.995 264.532C105.992 264.561 105.621 264.489 105.027 264.548C104.44 264.602 103.619 264.828 102.899 265.379C102.18 265.933 101.75 266.666 101.546 267.22C101.336 267.778 101.309 268.155 101.28 268.151C101.27 268.15 101.267 268.055 101.284 267.887C101.301 267.718 101.346 267.473 101.44 267.183C101.622 266.605 102.052 265.83 102.802 265.253C103.553 264.678 104.412 264.463 105.018 264.436C105.323 264.42 105.571 264.44 105.738 264.467C105.907 264.495 105.997 264.522 105.995 264.532Z" fill="#333333"/>
<path d="M104.737 259.055C104.781 259.055 104.809 260.261 104.801 261.747C104.793 263.235 104.751 264.44 104.707 264.44C104.663 264.44 104.634 263.234 104.643 261.746C104.651 260.26 104.693 259.055 104.737 259.055Z" fill="#333333"/>
<path d="M99.6329 266.919C99.6377 266.96 98.7815 267.084 97.7171 267.074C96.6521 267.066 95.7983 266.927 95.8037 266.885C95.8085 266.839 96.6635 266.907 97.7183 266.915C98.7731 266.926 99.6287 266.873 99.6329 266.919Z" fill="#333333"/>
<path d="M102.201 266.962C102.232 266.994 102.128 267.142 102.037 267.336C101.943 267.53 101.894 267.704 101.849 267.701C101.807 267.699 101.786 267.492 101.893 267.268C101.999 267.044 102.173 266.93 102.201 266.962Z" fill="#333333"/>
<path d="M103.191 265.775C103.222 265.807 103.135 265.941 102.997 266.076C102.859 266.211 102.722 266.295 102.691 266.264C102.661 266.233 102.748 266.098 102.886 265.963C103.024 265.828 103.16 265.744 103.191 265.775Z" fill="#333333"/>
<path d="M104.585 265.25C104.575 265.295 104.401 265.29 104.207 265.354C104.012 265.413 103.873 265.518 103.84 265.488C103.805 265.463 103.919 265.278 104.159 265.203C104.4 265.125 104.6 265.21 104.585 265.25Z" fill="#333333"/>
<path d="M105.576 265.009C105.591 265.05 105.515 265.115 105.405 265.156C105.295 265.196 105.194 265.195 105.179 265.154C105.164 265.112 105.241 265.047 105.35 265.007C105.46 264.967 105.561 264.968 105.576 265.009Z" fill="#333333"/>
<path d="M104.408 177.04L149.342 176.476L139.949 197.603L111.211 197.717L108.438 262.441H90.8809L92.5555 190.25C92.7103 183.527 97.7413 177.92 104.408 177.04Z" fill="#333333"/>
<path d="M109.018 257.455C109.018 257.356 104.945 257.277 99.9204 257.277C94.8948 257.277 90.822 257.357 90.822 257.455C90.822 257.552 94.8948 257.632 99.9204 257.632C104.945 257.633 109.018 257.553 109.018 257.455Z" fill="#455A64"/>
<path d="M147.107 199.327L148.376 261.482L128.062 262.474C128.062 262.474 124.832 201.584 126.445 184.302C127.548 172.473 172.678 177.559 172.678 177.559C173.332 201.107 147.107 199.327 147.107 199.327Z" fill="#333333"/>
<path d="M148.376 256.577C148.374 256.553 148.095 256.544 147.591 256.548C147.012 256.562 146.301 256.579 145.463 256.599C143.666 256.658 141.186 256.763 138.448 256.901C135.709 257.039 133.231 257.185 131.438 257.308C130.602 257.372 129.893 257.427 129.316 257.471C128.816 257.518 128.539 257.555 128.54 257.58C128.541 257.605 128.82 257.614 129.323 257.609C129.902 257.596 130.613 257.579 131.452 257.558C133.249 257.5 135.73 257.395 138.47 257.256C141.208 257.118 143.687 256.973 145.479 256.85C146.316 256.785 147.024 256.73 147.601 256.686C148.101 256.639 148.377 256.602 148.376 256.577Z" fill="#455A64"/>
<path d="M147.365 194.109C147.267 194.104 147.111 195.446 147.017 197.107C146.923 198.768 146.925 200.119 147.024 200.125C147.122 200.13 147.278 198.788 147.372 197.127C147.466 195.466 147.463 194.114 147.365 194.109Z" fill="#455A64"/>
<path d="M148.151 176.598C148.151 176.586 148.018 176.581 147.767 176.582C147.476 176.588 147.112 176.596 146.668 176.606C145.714 176.635 144.333 176.681 142.627 176.776C140.922 176.875 138.89 177.022 136.649 177.356C134.416 177.718 131.944 178.381 129.722 179.843C129.169 180.21 128.673 180.651 128.236 181.134C127.801 181.622 127.477 182.203 127.265 182.798C126.868 183.985 126.681 185.171 126.553 186.298C126.31 188.555 126.316 190.594 126.303 192.301C126.302 193.969 126.301 195.337 126.3 196.342C126.296 196.786 126.293 197.149 126.29 197.44C126.29 197.691 126.295 197.824 126.308 197.824C126.32 197.825 126.338 197.694 126.362 197.443C126.387 197.193 126.415 196.823 126.438 196.345C126.49 195.391 126.52 194.009 126.554 192.303C126.598 190.599 126.62 188.564 126.877 186.334C127.013 185.222 127.205 184.055 127.594 182.912C127.972 181.781 128.867 180.85 129.922 180.136C132.067 178.721 134.506 178.049 136.7 177.678C138.921 177.329 140.945 177.155 142.644 177.025C144.308 176.908 145.673 176.812 146.675 176.742C147.118 176.705 147.481 176.675 147.771 176.652C148.021 176.629 148.152 176.61 148.151 176.598Z" fill="#455A64"/>
<path d="M150.08 128.136C146.682 128.136 143.941 125.36 143.978 121.963C144.002 119.843 144.037 118.009 144.037 118.009C144.037 118.009 139.133 117.553 138.773 112.7C138.414 107.848 138.568 96.6438 138.568 96.6438C144.04 93.8808 150.58 94.296 155.659 97.7292L156.413 98.2386L156.181 122.093C156.148 125.44 153.426 128.136 150.08 128.136Z" fill="#FFBE9D"/>
<path d="M143.915 109.71C143.913 109.762 143.492 109.798 142.812 109.815C142.728 109.816 142.629 109.822 142.512 109.795C142.395 109.772 142.251 109.676 142.195 109.535C142.088 109.253 142.194 109.01 142.246 108.803C142.382 108.348 142.519 107.887 142.663 107.403C143.274 105.421 143.85 103.84 143.949 103.871C144.048 103.901 143.633 105.532 143.022 107.513C142.868 107.994 142.721 108.453 142.577 108.905C142.5 109.119 142.444 109.31 142.482 109.416C142.502 109.511 142.643 109.542 142.819 109.55C143.497 109.6 143.916 109.658 143.915 109.71Z" fill="#333333"/>
<path d="M144.025 117.939C144.025 117.939 147.11 118 150.245 115.749C150.245 115.749 148.964 119.336 144.091 119.198L144.025 117.939Z" fill="#EB996E"/>
<path d="M155.16 103.605C155.25 103.571 158.233 103.183 157.951 106.705C157.669 110.227 154.205 108.778 154.207 108.676C154.209 108.575 155.16 103.605 155.16 103.605Z" fill="#FFBE9D"/>
<path d="M155.385 107.527C155.401 107.517 155.443 107.575 155.543 107.631C155.64 107.685 155.812 107.731 156.001 107.677C156.383 107.57 156.744 107.005 156.812 106.371C156.847 106.051 156.804 105.74 156.71 105.479C156.623 105.212 156.472 105.019 156.287 104.971C156.104 104.913 155.962 105.015 155.911 105.11C155.856 105.205 155.873 105.277 155.854 105.282C155.843 105.29 155.783 105.217 155.822 105.074C155.843 105.005 155.89 104.926 155.978 104.864C156.068 104.803 156.196 104.777 156.325 104.802C156.595 104.842 156.82 105.112 156.922 105.399C157.04 105.689 157.096 106.039 157.057 106.398C156.977 107.106 156.561 107.741 156.04 107.848C155.787 107.893 155.586 107.801 155.486 107.71C155.384 107.613 155.372 107.533 155.385 107.527Z" fill="#EB996E"/>
<path d="M138.95 96.9354C137.75 96.6396 136.904 95.3903 136.948 94.1555C136.993 92.9207 137.845 91.7862 138.968 91.2726C140.092 90.759 141.435 90.8298 142.565 91.3308C142.906 89.5368 144.662 88.1231 146.488 88.1735C148.314 88.2245 149.989 89.7336 150.23 91.5438C150.347 90.6066 151.408 90.0828 152.351 90.0258C153.293 89.9694 154.302 90.2465 154.913 90.9641C155.525 91.6817 155.586 92.886 154.891 93.5226C155.941 93.4038 157.049 93.6228 157.904 94.2444C158.759 94.8666 159.323 95.9153 159.244 96.9696C159.166 98.0237 158.383 99.0215 157.348 99.2364C156.991 99.3101 156.904 99.0714 156.712 99.3804C156.605 99.552 156.566 100.196 156.572 100.397C156.607 101.562 156.609 102.561 156.374 103.721C155.759 103.411 154.979 103.856 154.681 104.478C154.382 105.099 154.432 105.824 154.489 106.51C154.19 106.96 153.435 106.827 153.109 106.397C152.783 105.967 152.763 105.385 152.756 104.846C152.732 102.973 152.708 101.1 152.684 99.2268C152.134 99.5322 151.427 99.5322 150.876 99.2268C150.326 98.9214 149.951 98.3208 149.92 97.692C149.129 98.4522 147.988 98.8326 146.899 98.7C145.81 98.5668 144.795 97.9235 144.21 96.9953C143.63 97.4549 143.042 97.9193 142.366 98.2211C141.691 98.5229 140.906 98.6484 140.206 98.4066C139.507 98.1654 138.931 97.4988 138.941 96.759C139.024 96.6888 139.106 96.6179 139.188 96.5477" fill="#333333"/>
<path d="M156.326 177.329H108.36L100.451 146.698H140.473L146.808 175.334L156.326 175.559V177.329Z" fill="#556B2F"/>
<path d="M141.923 104.015C141.973 104.081 141.53 104.427 140.867 104.44C140.205 104.459 139.746 104.135 139.793 104.066C139.832 103.985 140.288 104.147 140.86 104.128C141.433 104.12 141.88 103.936 141.923 104.015Z" fill="#333333"/>
<path d="M140.197 104.338C140.195 104.689 140.471 104.975 140.813 104.977C141.155 104.98 141.434 104.697 141.436 104.345" fill="#333333"/>
<path d="M148.675 104.06C148.725 104.126 148.282 104.472 147.62 104.485C146.958 104.504 146.499 104.18 146.545 104.112C146.584 104.031 147.04 104.193 147.612 104.173C148.185 104.165 148.632 103.981 148.675 104.06Z" fill="#333333"/>
<path d="M146.949 104.383C146.947 104.734 147.223 105.02 147.565 105.022C147.907 105.025 148.186 104.742 148.188 104.391" fill="#333333"/>
<path d="M149.11 102.479C149.067 102.738 148.37 102.836 147.545 102.848C146.719 102.854 146.02 102.772 145.972 102.515C145.923 102.264 146.617 101.92 147.535 101.911C148.451 101.899 149.153 102.227 149.11 102.479Z" fill="#333333"/>
<path d="M142.148 102.872C142.106 103.131 141.409 103.229 140.584 103.241C139.758 103.247 139.059 103.165 139.011 102.908C138.962 102.657 139.656 102.313 140.573 102.304C141.49 102.292 142.192 102.62 142.148 102.872Z" fill="#333333"/>
<path d="M159.676 105.429C159.676 107.255 158.197 108.734 156.371 108.734C154.545 108.734 153.91 107.255 153.91 105.429C153.91 103.603 154.546 102.124 156.371 102.124C158.196 102.124 159.676 103.603 159.676 105.429Z" fill="#455A64"/>
<path d="M156.088 102.907C156.088 102.907 158.647 90.639 150.246 91.1238L149.847 90.354C149.847 90.354 154.932 89.16 156.793 93.1158C158.245 96.1992 157.301 102.77 157.301 102.77L156.088 102.907Z" fill="#455A64"/>
<path d="M156.793 108.734C156.8 108.761 156.299 108.777 155.688 108.329C155.098 107.894 154.416 107.032 154.261 105.882C154.141 104.747 154.439 103.728 154.849 103.103C155.276 102.459 155.81 102.38 155.801 102.417C155.827 102.464 155.373 102.609 155.036 103.22C154.707 103.811 154.457 104.801 154.571 105.842C154.706 106.88 155.314 107.714 155.825 108.156C156.351 108.612 156.81 108.677 156.793 108.734Z" fill="#333333"/>
<path d="M144.127 110.973C144.176 111.042 144.082 111.193 143.89 111.245C143.698 111.298 143.54 111.215 143.548 111.131C143.555 111.044 143.674 110.982 143.808 110.944C143.942 110.909 144.076 110.902 144.127 110.973Z" fill="#333333"/>
<path d="M131.144 113.023C131.928 113.023 132.563 112.387 132.563 111.604C132.563 110.82 131.928 110.185 131.144 110.185C130.361 110.185 129.725 110.82 129.725 111.604C129.725 112.387 130.361 113.023 131.144 113.023Z" fill="#333333"/>
<path d="M132.358 111.131C132.289 111.185 131.365 110.008 130.511 108.39C129.664 106.775 128.993 105.472 129.058 105.429C129.139 105.378 129.942 106.631 130.786 108.241C131.633 109.846 132.427 111.08 132.358 111.131Z" fill="#333333"/>
<path d="M131.675 103.863C131.752 103.889 131.45 104.63 130.652 105.14C129.859 105.658 129.06 105.629 129.068 105.548C129.057 105.456 129.768 105.349 130.483 104.878C131.205 104.419 131.596 103.816 131.675 103.863Z" fill="#333333"/>
<path d="M132.291 105.2C132.374 105.218 132.104 105.968 131.289 106.411C130.48 106.862 129.702 106.689 129.73 106.61C129.735 106.519 130.428 106.539 131.138 106.137C131.857 105.752 132.211 105.155 132.291 105.2Z" fill="#333333"/>
<path d="M123.767 110.779C123.463 111.172 122.897 111.245 122.504 110.941C122.11 110.638 122.037 110.072 122.341 109.678C122.645 109.285 123.211 109.211 123.604 109.516C123.998 109.82 124.07 110.385 123.767 110.779Z" fill="#333333"/>
<path d="M123.847 110.462C123.76 110.462 123.727 109.506 123.925 108.36C124.126 107.219 124.318 106.312 124.399 106.319C124.491 106.327 124.433 107.275 124.234 108.41C124.037 109.541 123.932 110.463 123.847 110.462Z" fill="#333333"/>
<path d="M127.128 107.349C127.148 107.419 126.428 107.638 125.551 107.393C125.119 107.273 124.759 107.045 124.559 106.819C124.353 106.594 124.323 106.393 124.358 106.381C124.402 106.36 124.495 106.502 124.709 106.656C124.919 106.813 125.245 106.983 125.637 107.092C126.423 107.317 127.118 107.251 127.128 107.349Z" fill="#333333"/>
<path d="M126.495 111.809C126.192 112.203 125.626 112.276 125.232 111.972C124.839 111.668 124.766 111.103 125.07 110.709C125.373 110.315 125.939 110.242 126.333 110.546C126.726 110.85 126.799 111.416 126.495 111.809Z" fill="#333333"/>
<path d="M126.575 111.492C126.488 111.492 126.455 110.536 126.654 109.39C126.855 108.25 127.048 107.342 127.128 107.349C127.22 107.357 127.162 108.306 126.962 109.441C126.766 110.572 126.661 111.493 126.575 111.492Z" fill="#333333"/>
<path d="M127.052 107.959C127.082 108.034 126.409 108.289 125.579 108.088C124.746 107.894 124.259 107.364 124.32 107.311C124.378 107.239 124.902 107.613 125.651 107.783C126.396 107.967 127.032 107.869 127.052 107.959Z" fill="#333333"/>
<path d="M175.352 152.182C175.351 152.192 175.24 152.197 175.029 152.197C174.783 152.192 174.478 152.186 174.107 152.178C173.261 152.147 172.115 152.104 170.718 152.053C167.857 151.933 163.907 151.746 159.544 151.52C158.778 151.48 158.025 151.44 157.308 151.402L157.16 151.394L157.161 151.247C157.181 147.428 157.199 144.051 157.213 141.572C157.232 140.389 157.249 139.423 157.26 138.706C157.271 138.397 157.28 138.142 157.287 137.933C157.297 137.756 157.306 137.665 157.316 137.665C157.325 137.665 157.335 137.757 157.345 137.933C157.352 138.142 157.361 138.397 157.372 138.706C157.383 139.423 157.399 140.389 157.418 141.572C157.432 144.05 157.45 147.428 157.47 151.247L157.324 151.093C158.041 151.13 158.794 151.168 159.56 151.207C163.922 151.433 167.871 151.655 170.729 151.831C172.123 151.924 173.268 152 174.112 152.056C174.482 152.087 174.786 152.113 175.031 152.133C175.242 152.155 175.352 152.171 175.352 152.182Z" fill="#333333"/>
<path d="M166.788 126.006C166.778 126.071 165.961 125.807 164.636 125.939C163.328 126.056 161.501 126.688 160.072 128.127C158.646 129.573 157.985 131.369 157.729 132.662C157.464 133.97 157.518 134.812 157.459 134.811C157.439 134.812 157.408 134.604 157.396 134.225C157.382 133.847 157.403 133.295 157.511 132.623C157.717 131.293 158.364 129.416 159.85 127.908C161.343 126.404 163.264 125.782 164.618 125.72C165.301 125.681 165.855 125.744 166.226 125.829C166.597 125.911 166.793 125.989 166.788 126.006Z" fill="#333333"/>
<path d="M133.669 135.313C133.712 135.313 133.751 135.974 133.778 137.059C133.804 138.141 133.812 139.658 133.78 141.318C133.745 142.893 133.714 144.317 133.688 145.485C133.68 146.149 133.675 146.628 133.669 147.103C133.664 146.564 133.658 146.02 133.651 145.267C133.625 144.098 133.594 142.673 133.559 141.097C133.526 139.502 133.534 138.072 133.561 137.021C133.586 135.973 133.626 135.313 133.669 135.313Z" fill="#333333"/>
<path d="M124.42 162.013C124.42 163.512 123.205 164.728 121.706 164.728C120.206 164.728 118.991 163.513 118.991 162.013C118.991 160.514 120.206 159.299 121.706 159.299C123.205 159.299 124.42 160.514 124.42 162.013Z" fill="#F5F5F5"/>
</g>
<defs>
<filter id="filter0_d_169_4991" x="-4" y="0" width="308" height="308" filterUnits="userSpaceOnUse" color-interpolation-filters="sRGB">
<feFlood flood-opacity="0" result="BackgroundImageFix"/>
<feColorMatrix in="SourceAlpha" type="matrix" values="0 0 0 0 0 0 0 0 0 0 0 0 0 0 0 0 0 0 127 0" result="hardAlpha"/>
<feOffset dy="4"/>
<feGaussianBlur stdDeviation="2"/>
<feComposite in2="hardAlpha" operator="out"/>
<feColorMatrix type="matrix" values="0 0 0 0 0 0 0 0 0 0 0 0 0 0 0 0 0 0 0.25 0"/>
<feBlend mode="normal" in2="BackgroundImageFix" result="effect1_dropShadow_169_4991"/>
<feBlend mode="normal" in="SourceGraphic" in2="effect1_dropShadow_169_4991" result="shape"/>
</filter>
</defs>
</svg>
