<svg width="400" height="267" viewBox="0 0 400 267" fill="none" xmlns="http://www.w3.org/2000/svg">
<path d="M120.259 214.893H118.659V176.482C118.659 173.355 121.203 170.81 124.331 170.81H132.83V172.41H124.331C122.085 172.41 120.259 174.237 120.259 176.482V214.893Z" fill="#333333"/>
<path d="M132.83 173.011H131.307C131.118 173.011 130.964 172.857 130.964 172.668V170.588C130.964 170.398 131.117 170.244 131.307 170.244H132.83V173.011Z" fill="#333333"/>
<path d="M213.119 205.893H186.941V236.649H213.119V205.893Z" fill="#333333"/>
<path d="M257.058 213.128H143.003C137.385 213.128 132.83 208.573 132.83 202.955V129.276C132.83 123.658 137.385 119.104 143.003 119.104H257.058C262.676 119.104 267.231 123.658 267.231 129.276V202.955C267.23 208.573 262.676 213.128 257.058 213.128Z" fill="#333333"/>
<path d="M262.946 199.79H137.115C135.878 199.79 134.875 198.787 134.875 197.55V129.401C134.875 124.673 138.708 120.84 143.436 120.84H256.626C261.354 120.84 265.187 124.673 265.187 129.401V197.55C265.186 198.787 264.184 199.79 262.946 199.79Z" fill="#DAE1E2"/>
<path opacity="0.63" d="M262.44 198.552H137.74C137.013 198.552 136.424 197.963 136.424 197.236V129.715C136.424 125.498 139.843 122.079 144.06 122.079H256.118C260.336 122.079 263.755 125.498 263.755 129.715V197.236C263.755 197.962 263.166 198.552 262.44 198.552Z" fill="white"/>
<path d="M228.749 236.649H171.312C170.725 236.649 170.307 236.081 170.481 235.521L171.074 233.611C171.326 232.801 172.075 232.249 172.923 232.249H227.138C227.986 232.249 228.735 232.801 228.987 233.611L229.58 235.521C229.754 236.081 229.335 236.649 228.749 236.649Z" fill="#333333"/>
<path d="M213.119 213.127H186.941V217.449H213.119V213.127Z" fill="#333333"/>
<path d="M232.741 208.249C233.699 208.249 234.475 207.473 234.475 206.516C234.475 205.559 233.699 204.782 232.741 204.782C231.784 204.782 231.008 205.559 231.008 206.516C231.008 207.473 231.784 208.249 232.741 208.249Z" fill="white"/>
<path d="M241.008 208.249C241.965 208.249 242.741 207.473 242.741 206.516C242.741 205.559 241.965 204.782 241.008 204.782C240.051 204.782 239.275 205.559 239.275 206.516C239.275 207.473 240.051 208.249 241.008 208.249Z" fill="white"/>
<path d="M249.275 208.249C250.232 208.249 251.008 207.473 251.008 206.516C251.008 205.559 250.232 204.782 249.275 204.782C248.317 204.782 247.541 205.559 247.541 206.516C247.541 207.473 248.317 208.249 249.275 208.249Z" fill="white"/>
<path d="M209.944 152.804V147.337C209.944 146.802 209.51 146.369 208.976 146.369H207.569C207.157 146.369 206.793 146.089 206.7 145.687C206.213 143.565 205.384 141.573 204.265 139.778C204.042 139.419 204.084 138.957 204.382 138.659L205.372 137.669C205.75 137.291 205.75 136.678 205.372 136.3L201.507 132.435C201.129 132.057 200.516 132.057 200.138 132.435L199.149 133.423C198.851 133.722 198.389 133.764 198.03 133.541C196.235 132.421 194.243 131.591 192.119 131.103C191.717 131.011 191.438 130.646 191.438 130.235V128.832C191.438 128.297 191.004 127.864 190.47 127.864H185.003C184.468 127.864 184.035 128.298 184.035 128.832V130.235C184.035 130.646 183.755 131.011 183.354 131.103C181.229 131.59 179.237 132.421 177.441 133.54C177.083 133.764 176.621 133.722 176.322 133.423L175.335 132.436C174.957 132.058 174.344 132.058 173.966 132.436L170.101 136.301C169.723 136.679 169.723 137.292 170.101 137.67L171.089 138.658C171.388 138.957 171.43 139.419 171.206 139.777C170.087 141.573 169.258 143.565 168.771 145.688C168.678 146.09 168.314 146.37 167.902 146.37H166.497C165.962 146.37 165.529 146.803 165.529 147.338V152.804C165.529 153.339 165.962 153.772 166.497 153.772H167.902C168.314 153.772 168.679 154.052 168.771 154.453C169.259 156.577 170.089 158.569 171.207 160.363C171.43 160.722 171.388 161.183 171.09 161.482L170.1 162.472C169.722 162.85 169.722 163.463 170.1 163.841L173.965 167.707C174.343 168.085 174.956 168.085 175.334 167.707L176.324 166.716C176.623 166.418 177.085 166.375 177.443 166.598C179.237 167.716 181.229 168.545 183.352 169.032C183.754 169.124 184.034 169.489 184.034 169.901V171.311C184.034 171.846 184.467 172.279 185.002 172.279H190.468C191.003 172.279 191.436 171.845 191.436 171.311V169.901C191.436 169.489 191.716 169.124 192.118 169.032C194.241 168.545 196.232 167.716 198.026 166.598C198.385 166.375 198.846 166.418 199.145 166.716L200.135 167.707C200.514 168.085 201.127 168.085 201.505 167.707L205.37 163.841C205.748 163.463 205.748 162.85 205.37 162.472L204.379 161.482C204.081 161.183 204.038 160.722 204.262 160.363C205.38 158.569 206.21 156.577 206.697 154.454C206.789 154.052 207.154 153.772 207.566 153.772H208.974C209.51 153.772 209.944 153.338 209.944 152.804ZM187.735 165.484C179.223 165.484 172.332 158.579 172.332 150.066C172.332 141.566 179.223 134.662 187.735 134.662C196.249 134.662 203.14 141.567 203.14 150.066C203.14 158.579 196.249 165.484 187.735 165.484Z" stroke="#333333" stroke-miterlimit="10"/>
<path d="M235.086 171.309V167.583C235.086 167.219 234.791 166.924 234.427 166.924H233.468C233.187 166.924 232.939 166.733 232.876 166.459C232.544 165.013 231.979 163.655 231.216 162.431C231.064 162.187 231.093 161.873 231.296 161.669L231.97 160.995C232.228 160.737 232.228 160.319 231.97 160.061L229.336 157.427C229.078 157.17 228.661 157.17 228.403 157.427L227.729 158.101C227.525 158.305 227.211 158.333 226.966 158.181C225.743 157.418 224.385 156.852 222.938 156.519C222.665 156.457 222.474 156.209 222.474 155.927V154.972C222.474 154.607 222.179 154.312 221.814 154.312H218.089C217.725 154.312 217.429 154.607 217.429 154.972V155.927C217.429 156.208 217.238 156.457 216.965 156.519C215.517 156.852 214.159 157.418 212.936 158.18C212.691 158.332 212.377 158.303 212.173 158.1L211.5 157.427C211.243 157.17 210.825 157.17 210.567 157.427L207.933 160.061C207.675 160.319 207.675 160.737 207.933 160.995L208.606 161.668C208.81 161.871 208.838 162.187 208.686 162.431C207.924 163.654 207.358 165.013 207.027 166.459C206.964 166.733 206.716 166.924 206.435 166.924H205.477C205.113 166.924 204.817 167.219 204.817 167.583V171.309C204.817 171.673 205.113 171.969 205.477 171.969H206.435C206.716 171.969 206.964 172.159 207.027 172.433C207.36 173.88 207.925 175.238 208.688 176.461C208.84 176.705 208.811 177.02 208.608 177.223L207.933 177.898C207.676 178.156 207.676 178.573 207.933 178.831L210.568 181.466C210.825 181.723 211.243 181.723 211.501 181.466L212.176 180.79C212.379 180.587 212.694 180.558 212.938 180.71C214.161 181.472 215.518 182.037 216.965 182.369C217.239 182.431 217.43 182.679 217.43 182.961V183.922C217.43 184.286 217.725 184.581 218.09 184.581H221.815C222.179 184.581 222.475 184.286 222.475 183.922V182.961C222.475 182.68 222.666 182.431 222.939 182.369C224.386 182.037 225.743 181.472 226.966 180.71C227.21 180.558 227.525 180.587 227.728 180.79L228.403 181.466C228.661 181.724 229.079 181.724 229.337 181.466L231.971 178.832C232.228 178.574 232.228 178.156 231.971 177.899L231.296 177.224C231.092 177.021 231.063 176.706 231.216 176.461C231.978 175.238 232.543 173.881 232.875 172.434C232.938 172.161 233.186 171.97 233.467 171.97H234.427C234.791 171.969 235.086 171.673 235.086 171.309ZM219.952 179.357C214.478 179.357 210.046 174.917 210.046 169.443C210.046 163.978 214.478 159.538 219.952 159.538C225.426 159.538 229.857 163.978 229.857 169.443C229.857 174.917 225.426 179.357 219.952 179.357Z" fill="#333333"/>
<path opacity="0.35" d="M243.897 189.982H156.164C155.525 189.982 155.008 189.465 155.008 188.827C155.008 188.188 155.525 187.671 156.164 187.671H243.897C244.536 187.671 245.053 188.188 245.053 188.827C245.053 189.465 244.536 189.982 243.897 189.982Z" fill="#DAE1E2"/>
<g opacity="0.5">
<path d="M241.908 187.673L240.281 189.982H238.382L240.009 187.673H241.908Z" fill="white"/>
<path d="M244.932 188.308L243.748 189.982H241.849L243.476 187.673H243.897C244.35 187.673 244.74 187.934 244.932 188.308Z" fill="white"/>
<path d="M158.708 187.673L157.081 189.982H156.164C155.87 189.982 155.598 189.87 155.396 189.684L156.809 187.673H158.708Z" fill="white"/>
<path d="M162.174 187.673L160.548 189.982H158.649L160.276 187.673H162.174Z" fill="white"/>
<path d="M165.641 187.673L164.014 189.982H162.116L163.742 187.673H165.641Z" fill="white"/>
<path d="M169.108 187.673L167.481 189.982H165.582L167.209 187.673H169.108Z" fill="white"/>
<path d="M172.574 187.673L170.948 189.982H169.049L170.676 187.673H172.574Z" fill="white"/>
<path d="M176.041 187.673L174.414 189.982H172.516L174.142 187.673H176.041Z" fill="white"/>
<path d="M179.508 187.673L177.881 189.982H175.982L177.609 187.673H179.508Z" fill="white"/>
<path d="M182.974 187.673L181.348 189.982H179.449L181.076 187.673H182.974Z" fill="white"/>
<path d="M186.441 187.673L184.814 189.982H182.916L184.542 187.673H186.441Z" fill="white"/>
<path d="M189.908 187.673L188.281 189.982H186.382L188.009 187.673H189.908Z" fill="white"/>
<path d="M193.374 187.673L191.748 189.982H189.849L191.476 187.673H193.374Z" fill="white"/>
<path d="M196.841 187.673L195.214 189.982H193.316L194.942 187.673H196.841Z" fill="white"/>
<path d="M200.308 187.673L198.681 189.982H196.782L198.409 187.673H200.308Z" fill="white"/>
<path d="M203.774 187.673L202.148 189.982H200.249L201.876 187.673H203.774Z" fill="white"/>
<path d="M207.241 187.673L205.614 189.982H203.716L205.342 187.673H207.241Z" fill="white"/>
<path d="M210.708 187.673L209.081 189.982H207.182L208.809 187.673H210.708Z" fill="white"/>
<path d="M214.174 187.673L212.548 189.982H210.649L212.276 187.673H214.174Z" fill="white"/>
<path d="M217.641 187.673L216.014 189.982H214.116L215.742 187.673H217.641Z" fill="white"/>
<path d="M221.108 187.673L219.481 189.982H217.582L219.209 187.673H221.108Z" fill="white"/>
<path d="M224.574 187.673L222.948 189.982H221.049L222.676 187.673H224.574Z" fill="white"/>
<path d="M228.041 187.673L226.414 189.982H224.516L226.142 187.673H228.041Z" fill="white"/>
<path d="M231.508 187.673L229.881 189.982H227.982L229.609 187.673H231.508Z" fill="white"/>
<path d="M234.974 187.673L233.348 189.982H231.449L233.076 187.673H234.974Z" fill="white"/>
<path d="M238.441 187.673L236.814 189.982H234.916L236.542 187.673H238.441Z" fill="white"/>
</g>
<path d="M195.078 188.828C195.078 189.466 194.562 189.982 193.924 189.982H156.21C155.675 189.982 155.176 189.641 155.044 189.123C154.936 188.695 155.069 188.288 155.348 188.009C155.556 187.801 155.844 187.673 156.164 187.673H193.924C194.562 187.673 195.078 188.19 195.078 188.828Z" fill="#333333"/>
<g opacity="0.51">
<path d="M188.4 199.79H169.02L210.678 120.84H230.059L188.4 199.79Z" fill="#DAE1E2"/>
<path d="M203.686 199.79H192.805L234.464 120.84H245.345L203.686 199.79Z" fill="#DAE1E2"/>
</g>
<path d="M122.449 116.372H108.246C105.996 116.372 104.166 114.541 104.166 112.292V98.0896C104.166 95.8394 105.996 94.009 108.246 94.009H122.449C124.698 94.009 126.529 95.84 126.529 98.0896V112.292C126.529 114.541 124.698 116.372 122.449 116.372ZM108.246 94.5418C106.29 94.5418 104.699 96.1328 104.699 98.089V112.291C104.699 114.247 106.29 115.838 108.246 115.838H122.448C124.404 115.838 125.995 114.247 125.995 112.291V98.089C125.995 96.1328 124.404 94.5418 122.448 94.5418H108.246Z" fill="#333333"/>
<path d="M111.967 108.881C111.83 108.881 111.694 108.829 111.59 108.725L108.42 105.555C108.32 105.455 108.264 105.32 108.264 105.178C108.264 105.036 108.32 104.901 108.42 104.801L111.565 101.657C111.774 101.448 112.111 101.448 112.32 101.657C112.528 101.865 112.528 102.202 112.32 102.411L109.552 105.178L112.344 107.971C112.553 108.179 112.553 108.516 112.344 108.725C112.24 108.829 112.104 108.881 111.967 108.881Z" fill="#333333"/>
<path d="M118.728 108.881C118.591 108.881 118.454 108.829 118.35 108.725C118.142 108.516 118.142 108.179 118.35 107.971L121.143 105.178L118.375 102.411C118.166 102.202 118.166 101.865 118.375 101.656C118.584 101.448 118.921 101.448 119.129 101.656L122.274 104.801C122.374 104.901 122.43 105.036 122.43 105.178C122.43 105.32 122.374 105.455 122.274 105.555L119.105 108.725C119.001 108.829 118.864 108.881 118.728 108.881Z" fill="#333333"/>
<path d="M113.874 108.881C113.798 108.881 113.722 108.865 113.649 108.831C113.382 108.707 113.267 108.389 113.392 108.122L116.337 101.807C116.461 101.541 116.779 101.426 117.045 101.55C117.312 101.674 117.428 101.991 117.303 102.259L114.358 108.573C114.267 108.767 114.075 108.881 113.874 108.881Z" fill="white"/>
<path d="M80.2182 128.13C80.0736 128.13 79.9355 128.062 79.848 127.94L76.9648 123.908C76.9206 123.846 76.8475 123.809 76.7707 123.809H52.1355C50.1931 123.809 48.6123 122.228 48.6123 120.285V113.6C48.6123 111.657 50.1926 110.077 52.1355 110.077H80.4363C82.3787 110.077 83.959 111.658 83.959 113.6V120.285C83.959 122.057 82.6352 123.56 80.88 123.781C80.7627 123.795 80.6747 123.896 80.6747 124.014V127.674C80.6747 127.873 80.5472 128.047 80.3579 128.108C80.312 128.124 80.2646 128.13 80.2182 128.13ZM52.1355 110.555C50.456 110.555 49.0902 111.921 49.0902 113.6V120.285C49.0902 121.964 50.4566 123.331 52.1355 123.331H76.7707C77.0011 123.331 77.2187 123.443 77.3531 123.63L80.2363 127.661L80.1979 124.014C80.1979 123.655 80.4656 123.351 80.8214 123.307C82.3382 123.116 83.4822 121.817 83.4822 120.285V113.6C83.4822 111.921 82.1163 110.555 80.4368 110.555H52.1355Z" fill="#333333"/>
<path d="M77.1761 118.253C76.4481 118.253 75.8561 117.661 75.8561 116.933C75.8561 116.205 76.4481 115.612 77.1761 115.612C77.9041 115.612 78.4961 116.204 78.4961 116.933C78.4961 117.661 77.9041 118.253 77.1761 118.253ZM77.1761 116.091C76.7115 116.091 76.3334 116.468 76.3334 116.933C76.3334 117.397 76.7115 117.775 77.1761 117.775C77.6406 117.775 78.0187 117.397 78.0187 116.933C78.0182 116.468 77.6406 116.091 77.1761 116.091Z" fill="#333333"/>
<path d="M71.7308 118.253C71.0028 118.253 70.4108 117.661 70.4108 116.933C70.4108 116.205 71.0028 115.612 71.7308 115.612C72.4588 115.612 73.0513 116.204 73.0513 116.933C73.0513 117.661 72.4593 118.253 71.7308 118.253ZM71.7308 116.091C71.2662 116.091 70.8881 116.468 70.8881 116.933C70.8881 117.397 71.2657 117.775 71.7308 117.775C72.1953 117.775 72.5734 117.397 72.5734 116.933C72.574 116.468 72.1958 116.091 71.7308 116.091Z" fill="#333333"/>
<path d="M66.2859 118.253C65.5579 118.253 64.9659 117.661 64.9659 116.933C64.9659 116.205 65.5579 115.612 66.2859 115.612C67.0139 115.612 67.6065 116.204 67.6065 116.933C67.6065 117.661 67.0139 118.253 66.2859 118.253ZM66.2859 116.091C65.8214 116.091 65.4433 116.468 65.4433 116.933C65.4433 117.397 65.8209 117.775 66.2859 117.775C66.751 117.775 67.1286 117.397 67.1286 116.933C67.1286 116.468 66.7505 116.091 66.2859 116.091Z" fill="#333333"/>
<path d="M60.8412 118.253C60.1132 118.253 59.5206 117.661 59.5206 116.933C59.5206 116.205 60.1126 115.612 60.8412 115.612C61.5692 115.612 62.1612 116.204 62.1612 116.933C62.1612 117.661 61.5692 118.253 60.8412 118.253ZM60.8412 116.091C60.3766 116.091 59.9985 116.468 59.9985 116.933C59.9985 117.397 60.3766 117.775 60.8412 117.775C61.3057 117.775 61.6838 117.397 61.6838 116.933C61.6838 116.468 61.3057 116.091 60.8412 116.091Z" fill="#333333"/>
<path d="M55.3963 118.253C54.6683 118.253 54.0758 117.661 54.0758 116.933C54.0758 116.205 54.6678 115.612 55.3963 115.612C56.1243 115.612 56.7163 116.204 56.7163 116.933C56.7163 117.661 56.1238 118.253 55.3963 118.253ZM55.3963 116.091C54.9318 116.091 54.5537 116.468 54.5537 116.933C54.5537 117.397 54.9318 117.775 55.3963 117.775C55.8609 117.775 56.239 117.397 56.239 116.933C56.2385 116.468 55.8609 116.091 55.3963 116.091Z" fill="#333333"/>
<path d="M113.868 127.507C110.172 127.524 107.189 130.535 107.207 134.231C107.215 135.951 107.876 137.51 108.947 138.691L107.792 142.532L110.879 140.167C111.797 140.632 112.832 140.898 113.932 140.893C117.628 140.875 120.611 137.864 120.593 134.168C120.575 130.472 117.565 127.49 113.868 127.507Z" fill="#DAE1E2"/>
<path d="M113.604 137.645C113.456 137.645 113.314 137.588 113.206 137.484L110.558 134.941C110.33 134.722 110.323 134.358 110.542 134.13C110.761 133.901 111.125 133.893 111.354 134.114L113.529 136.202L116.639 131.963C116.826 131.707 117.185 131.652 117.442 131.839C117.697 132.027 117.752 132.386 117.565 132.642L114.067 137.41C113.969 137.544 113.819 137.628 113.654 137.643C113.637 137.644 113.62 137.645 113.604 137.645Z" fill="#556B2F"/>
<path d="M279.025 147.352C275.329 147.369 272.346 150.379 272.364 154.076C272.372 155.795 273.033 157.355 274.104 158.535L272.949 162.376L276.036 160.012C276.954 160.477 277.989 160.742 279.088 160.737C282.785 160.72 285.767 157.709 285.749 154.013C285.732 150.317 282.722 147.334 279.025 147.352Z" fill="url(#paint0_linear_169_6448)"/>
<path d="M278.761 157.489C278.613 157.489 278.471 157.432 278.363 157.328L275.715 154.785C275.486 154.566 275.479 154.202 275.699 153.973C275.918 153.745 276.282 153.737 276.511 153.957L278.686 156.046L281.796 151.807C281.983 151.551 282.342 151.496 282.598 151.683C282.854 151.871 282.909 152.23 282.722 152.486L279.224 157.253C279.126 157.387 278.975 157.472 278.811 157.486C278.794 157.488 278.777 157.489 278.761 157.489Z" fill="#556B2F"/>
<path d="M141.834 226.676C141.387 226.676 140.955 226.736 140.542 226.846C139.748 223.225 136.524 220.514 132.664 220.514C132.036 220.514 131.426 220.588 130.84 220.723C129.22 215.993 124.738 212.59 119.459 212.59C113.948 212.59 109.306 216.297 107.882 221.353C107.68 221.337 107.476 221.326 107.269 221.326C103.038 221.326 99.608 224.756 99.608 228.987C99.608 233.219 103.038 236.649 107.269 236.649H141.834C144.588 236.649 146.82 234.416 146.82 231.662C146.82 228.908 144.588 226.676 141.834 226.676Z" fill="#DAE1E2"/>
<path d="M103.305 159.348L102.339 162.527C101.125 162.528 98.9461 159.234 98.7637 158.69C97.4698 154.8 99.2704 152.788 99.2704 152.788L103.242 150.908L103.305 159.348Z" fill="url(#paint1_linear_169_6448)"/>
<path d="M84.2293 129.942C84.2293 129.942 84.2112 133.934 83.1163 135.796C80.4859 140.265 82.6939 141.649 82.6939 141.649H94.952C94.952 141.649 95.6693 138.916 93.5781 134.686C93.1024 133.725 84.2293 129.942 84.2293 129.942Z" fill="#333333"/>
<path d="M80.1835 230.058C80.1835 230.058 77.36 230.043 76.9504 227.899C76.9504 227.899 75.6741 228.576 74.9051 229.962C74.7605 230.222 74.7461 230.537 74.8752 230.805C75.1755 231.431 75.7563 232.703 76.0731 233.803C76.5136 235.331 78.6912 236.769 80.8256 236.799H84.0101C84.0101 236.799 85.6816 236.445 82.3163 234.299C80.8341 233.355 80.1835 230.058 80.1835 230.058Z" fill="#333333"/>
<path d="M98.7894 232.864C98.7894 232.864 99.5179 233.327 101.331 233.188C101.619 233.166 102.653 232.989 103.075 232.864C103.075 232.864 110.226 235.563 110.261 236.223C110.297 236.884 109.387 236.795 109.387 236.795L98.575 236.799C98.575 236.799 97.2352 235.074 98.7894 232.864Z" fill="#333333"/>
<path d="M103.076 232.862C101.561 233.566 98.5531 233.252 98.5531 233.252C98.5531 233.252 98.5371 231.049 98.0411 227.716C97.4331 223.684 95.5184 217.049 95.0064 212.942C94.4784 208.665 94.8891 205.289 95.0544 203.86C95.0544 203.833 95.0598 203.812 95.0598 203.79C95.0384 203.753 95.0171 203.726 95.0118 203.705C94.5958 202.708 93.5131 197.774 92.4998 193.284L92.4944 193.268C91.6624 189.561 90.8784 186.158 90.5584 185.534C90.4838 185.39 90.3931 185.241 90.2918 185.092C88.6011 182.548 83.6784 179.284 88.9851 168.02L100.585 170.702C100.777 172.521 101.46 175.55 101.769 179.033C102.505 187.284 102.964 198.26 102.905 202.964V203.012C103.012 208.26 103.076 232.862 103.076 232.862Z" fill="#333333"/>
<path d="M92.4997 193.284L92.4944 193.268C91.6624 189.561 90.8784 186.158 90.5584 185.534C90.4837 185.39 90.3931 185.241 90.2917 185.092L92.3717 180.537L92.4997 193.284Z" fill="#333333"/>
<path d="M93.2331 169.903L83.1803 170.491C83.1803 170.491 82.8635 171.382 82.1339 172.977C81.4902 174.385 80.8928 175.904 80.6667 178.559C80.5936 179.415 80.4507 184.566 80.4507 186.016C80.4507 191.884 80.6928 197.381 80.4854 199.919C79.9206 200.833 79.1248 202.457 78.719 204.829C78.2219 207.733 77.7734 215.685 77.0208 221.903C76.567 225.653 75.9867 228.611 75.9867 228.611C75.9867 228.611 78.216 230.4 80.183 230.058C80.183 230.058 88.1334 205.162 88.7515 201.461V201.46C89.4736 198.489 90.6592 193.209 91.6891 186.023C92.84 177.994 93.2331 169.903 93.2331 169.903Z" fill="#333333"/>
<path d="M100.466 167.42C100.466 167.42 101.077 170.367 101.077 170.719C101.077 171.072 100.959 171.399 100.769 171.444C98.5141 172.015 95.9152 172.157 92.1744 172.132C86.8832 172.096 82.5147 171.517 82.2315 171.128C81.952 170.743 84.616 163.865 82.6928 159.254C82.1221 157.885 81.5024 156.035 80.9557 154.055C79.6603 149.363 78.7573 143.91 79.8021 142.218C81.2192 139.922 83.8059 139.627 85.0528 139.732L95.6597 140.383C95.6597 140.383 98.9685 140.568 100.125 142.448C100.737 143.441 102.218 147.174 103.252 151.499C101.378 152.151 99.2629 152.905 99.2629 152.905L99.3845 157.896C99.3845 157.896 99.6112 161.24 99.8949 163.232C100.045 164.283 100.466 167.42 100.466 167.42Z" fill="#556B2F"/>
<path d="M100.453 148.901C100.453 148.901 100.124 159.229 100.791 161.058C101.904 164.108 105.278 163.365 105.683 160.43C106.195 156.718 102.044 148.293 102.044 148.293" fill="url(#paint2_linear_169_6448)"/>
<path d="M104.526 146.603L104.11 146.174V146.183C104.052 146.115 103.969 146.066 103.868 146.066H100.443C100.171 146.066 99.9291 146.237 99.8385 146.492L97.1019 154.207H101.438L104.129 146.622L104.526 146.603Z" fill="#556B2F"/>
<path d="M101.863 154.644H97.527L100.264 146.93C100.354 146.674 100.596 146.502 100.868 146.502H104.293C104.517 146.502 104.673 146.723 104.598 146.934L101.863 154.644Z" fill="#333333"/>
<path d="M85.0518 139.734C87.4736 144.727 91.3878 144.905 91.3878 144.905C96.0859 145.404 95.6587 140.386 95.6587 140.386L94.3494 140.091C93.48 139.894 92.8352 139.168 92.7264 138.282C92.7179 138.215 92.7115 138.151 92.7051 138.085C92.607 137.156 92.6283 136.195 92.6603 135.578C92.6816 135.172 92.7072 134.916 92.7072 134.916L93.096 131.63C93.096 131.63 85.9056 126.575 87.3984 131.149C88.135 133.411 88.3104 135.478 88.2998 136.99C88.2912 138.397 87.2128 139.567 85.8075 139.676L85.0518 139.734Z" fill="url(#paint3_linear_169_6448)"/>
<path d="M92.7056 138.086C92.6075 137.157 92.6288 136.196 92.6608 135.579L90.1067 134.917C90.1067 134.917 90.24 137.302 92.7056 138.086Z" fill="#DB8976"/>
<path d="M97.0875 126.129C97.5691 128.713 97.3595 135.651 94.5211 136.754C91.9067 137.77 88.8437 134.91 86.7013 131.753C84.5589 128.596 86.984 124.324 89.8437 123.562C92.7035 122.801 96.4608 122.764 97.0875 126.129Z" fill="url(#paint4_linear_169_6448)"/>
<path d="M84.6229 150.738L86.889 159.195C86.889 159.195 83.6074 162.454 82.113 160.57C80.9461 159.099 79.3429 152.325 79.3429 152.325" fill="url(#paint5_linear_169_6448)"/>
<path d="M85.1824 152.824C85.1824 152.824 83.3738 154.071 80.0378 154.602L79.6624 153.411L85.001 152.184L85.1824 152.824Z" fill="#FF8B6C"/>
<path d="M85.1824 147.782C85.6971 149.716 86.1195 152.183 86.1195 152.183C86.1195 152.183 83.304 153.535 78.6854 153.83C78.6854 153.83 77.1718 148.132 78.4123 144.115C78.895 142.553 80.4166 140.946 81.6982 140.427C81.6982 140.427 83.199 140.336 85.1824 147.782Z" fill="#556B2F"/>
<path d="M102.898 152.49C102.594 152.526 101.168 153.19 101.168 153.19L100.701 153.247L101.211 153.124C101.211 153.124 102.222 152.607 102.643 152.255C103.063 151.903 103.476 151.357 103.159 151.262C102.802 151.154 101.953 151.744 101.953 151.744L100.734 152.347L100.385 152.404C100.734 152.228 101.249 151.954 101.609 151.695C102.2 151.271 102.092 150.972 101.609 151.029C101.305 151.064 99.6272 151.762 99.6272 151.762C99.6272 151.762 98.6699 151.967 98.3163 151.937C98.4432 151.782 98.5718 151.611 98.6635 151.454C99.0038 150.872 99.1307 150.113 98.6768 149.953C98.223 149.793 98.1696 150.76 97.1019 151.482C96.5616 151.846 95.6534 153.724 95.6534 153.724C95.6534 153.724 89.4091 156.15 85.0528 156.95L80.7872 157.509C80.7872 157.509 82.423 162.716 84.031 162.35C87.2806 161.609 94.504 157.932 96.5739 156.024C97.1931 155.772 98.3462 155.683 99.384 155.45V155.451C99.384 155.451 100.797 155.184 101.129 155.075C101.508 154.951 102.01 154.667 102.523 154.299C103.037 153.93 102.943 153.67 102.523 153.719C102.259 153.75 100.922 154.239 100.922 154.239L100.291 154.27C100.653 154.204 101.088 154.119 101.293 154.052C101.729 153.909 102.307 153.582 102.898 153.158C103.488 152.733 103.38 152.434 102.898 152.49Z" fill="url(#paint6_linear_169_6448)"/>
<path d="M95.4459 125.822C95.4459 125.822 95.4715 128.476 91.5861 129.36C88.3088 130.106 87.2752 133.037 87.2752 133.037C87.2752 133.037 85.8923 131.467 85.2315 129.285C84.3333 126.323 84.84 122.257 90.0037 121.29C94.2848 120.489 97.6187 122.952 97.8731 126.187C98.0309 128.195 97.2597 129.937 97.2597 129.937C97.2597 129.937 97.6032 126.93 95.4459 125.822Z" fill="#333333"/>
<path d="M88.3409 131.938C88.3409 131.938 88.3329 132.77 88.3489 133.986C88.3697 135.574 88.2987 137.038 88.2987 137.038L87.7307 136.151C87.7307 136.151 87.1467 135.172 86.2225 133.386C84.4027 132.247 83.6081 129.415 84.6566 127.067C85.8161 124.471 88.3083 130.106 88.3083 130.106L88.3409 131.938Z" fill="#333333"/>
<path opacity="0.4" d="M93.4896 151.5C93.4896 151.5 92.6085 155.203 89.408 155.45C89.408 155.45 94.2901 155.686 93.4896 151.5Z" fill="#333333"/>
<path d="M89.9658 131.307C89.9658 131.307 89.7962 129.46 88.4298 129.941C87.6698 130.209 87.6928 131.181 87.9018 132.049C88.1082 132.903 88.7744 133.666 89.4517 133.371C89.4517 133.371 90.28 133.182 89.9658 131.307Z" fill="url(#paint7_linear_169_6448)"/>
<path opacity="0.4" d="M84.6945 146.066C84.6945 146.066 85.9414 150.34 86.119 152.183C86.119 152.183 86.4806 149.682 84.6945 146.066Z" fill="#333333"/>
<path d="M257.122 184.355L245.468 236.567H243.547L253.501 184.355H257.122Z" fill="#333333"/>
<path d="M304.697 184.355L316.35 236.567H318.271L308.318 184.355H304.697Z" fill="#333333"/>
<path d="M246.192 184.355L234.539 236.567H232.618L242.572 184.355H246.192Z" fill="#333333"/>
<path d="M293.768 184.355L305.421 236.567H307.343L297.389 184.355H293.768Z" fill="#333333"/>
<path d="M308.788 192.373H242.773V194.259H308.788V192.373Z" fill="#333333"/>
<path d="M317.853 183.074C317.853 183.782 317.279 184.355 316.572 184.355H233.9C233.192 184.355 232.618 183.781 232.618 183.074C232.618 182.367 233.192 181.793 233.9 181.793H316.572C317.279 181.793 317.853 182.367 317.853 183.074Z" fill="#333333"/>
<path d="M233.901 181.791H261.941C262.65 181.791 263.224 182.365 263.224 183.073C263.224 183.781 262.65 184.356 261.941 184.356H233.901C233.192 184.356 232.616 183.78 232.616 183.076C232.616 182.719 232.76 182.399 232.995 182.169C233.224 181.935 233.549 181.791 233.901 181.791Z" fill="#333333"/>
<path d="M317.853 183.076C317.853 183.78 317.277 184.356 316.573 184.356H316.323V181.791H316.573C317.277 181.791 317.853 182.367 317.853 183.076Z" fill="#333333"/>
<path d="M277.539 181.794L272.767 169.56C272.527 168.943 271.932 168.537 271.27 168.537L251.196 167.928C250.558 168.116 249.973 169.072 250.166 169.567L254.935 181.794H277.539Z" fill="#556B2F"/>
<path d="M279.401 181.794L274.396 168.964C274.144 168.317 273.521 167.891 272.826 167.891H251.433C250.875 167.891 250.492 168.452 250.694 168.972L255.695 181.794H279.401Z" fill="#333333"/>
<path d="M277.853 181.139H256.555C256.463 181.139 256.381 181.083 256.347 180.997L252.03 169.925C251.788 169.302 252.247 168.63 252.915 168.63H272.238C272.877 168.63 273.449 169.021 273.683 169.617L278.06 180.835C278.117 180.981 278.01 181.139 277.853 181.139Z" fill="#333333"/>
<path d="M262.356 173.63H254.759C254.438 173.63 254.15 173.434 254.032 173.136L252.699 169.754C252.597 169.498 252.787 169.22 253.062 169.22H260.658C260.979 169.22 261.267 169.417 261.385 169.715L262.719 173.097C262.82 173.353 262.631 173.63 262.356 173.63Z" fill="white"/>
<path d="M274.361 174.493H265.062C264.741 174.493 264.453 174.297 264.335 173.999L262.661 169.754C262.56 169.498 262.749 169.22 263.025 169.22H272.323C272.644 169.22 272.932 169.417 273.05 169.715L274.724 173.96C274.826 174.216 274.637 174.493 274.361 174.493Z" fill="white"/>
<path d="M275.394 176.284H265.57C265.371 176.284 265.193 176.163 265.12 175.978L264.945 175.534C264.884 175.38 264.998 175.213 265.163 175.213H274.893C275.092 175.213 275.27 175.335 275.343 175.52L275.553 176.051C275.597 176.163 275.514 176.284 275.394 176.284Z" fill="white"/>
<path d="M275.981 178.125H266.251C266.053 178.125 265.874 178.004 265.801 177.819L265.626 177.376C265.565 177.221 265.679 177.054 265.844 177.054H275.574C275.772 177.054 275.951 177.176 276.024 177.361L276.199 177.804C276.26 177.958 276.146 178.125 275.981 178.125Z" fill="white"/>
<path d="M264.324 178.776H256.728C256.407 178.776 256.119 178.58 256.001 178.282L254.457 174.366H262.627C262.948 174.366 263.236 174.562 263.354 174.861L264.687 178.243C264.789 178.499 264.6 178.776 264.324 178.776Z" fill="white"/>
<path d="M282.002 180.916H255.158V181.794H282.002V180.916Z" fill="#556B2F"/>
<path d="M300.894 159.803C300.382 159.195 300.147 158.387 300.076 158.121C299.401 155.491 300.243 151.324 300.243 151.324L297.072 153.82C297.072 153.82 294.662 155.524 294.616 155.695L294.228 158.631C293.803 161.865 300.296 161.1 300.894 159.803Z" fill="url(#paint8_linear_169_6448)"/>
<path d="M290.777 147.067C290.748 148.588 290.755 152.674 291.584 155.021C291.972 156.117 293.063 156.798 294.22 156.681C295.349 156.566 296.958 156.098 298.411 154.554C299.155 153.763 299.99 153.662 300.377 152.648C301.005 151 301.978 147.939 301.42 145.962C300.659 143.263 292.39 140.209 290.942 145.708C290.826 146.151 290.786 146.609 290.777 147.067Z" fill="url(#paint9_linear_169_6448)"/>
<path d="M299.936 142.282C297.461 138.502 293.319 141.899 289.219 142.499C288.714 142.572 288.302 143.099 288.372 144.092C288.599 146.383 290.836 147.409 292.408 147.073C292.644 148.181 292.426 149.659 293.234 150.528C293.694 151.023 294.581 151.139 295.501 151.093C295.576 151.285 295.915 153.499 296.287 154.914C296.383 155.278 296.714 155.53 297.091 155.53H299.746C300.055 155.53 300.338 155.36 300.482 155.085C301.112 153.876 302.818 150.476 303.18 147.878C303.625 144.693 303.78 141.96 299.936 142.282Z" fill="#333333"/>
<path d="M294.31 152.537C295.861 153.37 296.399 149.551 295.066 149.17C294.054 148.881 293.725 150.401 293.725 150.401C293.725 150.401 293.499 152.101 294.31 152.537Z" fill="url(#paint10_linear_169_6448)"/>
<path d="M276.506 236.647H287.731C287.731 236.647 288.358 234.648 286.999 232.172C286.999 232.172 286.095 232.897 283.389 232.407C283.389 232.407 282.26 233.365 281.48 233.74C280.695 234.12 276.203 235.002 276.506 236.647Z" fill="url(#paint11_linear_169_6448)"/>
<path d="M256.202 236.647H267.427C267.427 236.647 268.054 234.648 266.695 232.172C266.695 232.172 265.791 232.897 263.085 232.407C263.085 232.407 261.956 233.365 261.176 233.74C260.392 234.12 255.9 235.002 256.202 236.647Z" fill="url(#paint12_linear_169_6448)"/>
<path d="M306.52 191.048C306.364 189.51 305.809 188.953 305.809 188.953L297.684 191.608L290.298 193.291C287.56 193.901 284.252 194.635 281.335 195.295C278.062 196.038 275.89 198.524 276.607 201.801L277.427 205.776C278.365 210.865 281.436 224.417 282.798 232.604C285.426 232.828 286.689 232.527 287.357 232.372C287.226 229.357 287.327 222.312 287.357 219.149C287.397 214.938 287.5 208.834 286.488 204.852C293.303 204.59 301.115 204.011 304.666 202.092C308.867 199.82 306.52 191.048 306.52 191.048Z" fill="url(#paint13_linear_169_6448)"/>
<path d="M299.26 192.141C299.104 190.603 298.805 189.823 298.805 189.823C298.805 189.823 290.148 190.414 286.051 191.235C279.874 192.474 271.502 194.237 268.354 195.294C265.753 196.169 263.767 197.774 263.521 200.122L263.509 200.119C263.483 200.365 262.85 223.815 262.76 232.35C264.905 232.881 266.458 232.829 267.194 232.747C267.79 229.272 269.589 221.691 270.36 218.089C271.273 213.821 272.43 208.733 272.653 205.22C280.612 204.527 294.561 202.946 295.972 202.872C300.973 202.612 299.26 192.141 299.26 192.141Z" fill="url(#paint14_linear_169_6448)"/>
<path d="M308.779 166.533C308.691 168.396 308.32 171.029 307.458 174.805C307.316 175.426 306.453 178.805 306.416 179.405C306.241 182.285 304.832 184.443 306.17 188.831C306.487 189.881 306.566 190.422 306.566 190.856C306.566 191.16 306.182 191.473 306.024 191.56C304.37 192.514 297.932 192.656 294.694 192.656C292.165 192.656 288.523 192.302 287.31 191.723C287.143 191.644 287.023 191.56 286.956 191.473C286.456 190.806 286.915 189.843 287.152 188.51C288.21 182.497 288.042 164.836 287.487 160.811C287.504 160.801 289.47 159.083 294.294 158.131C297.551 158.076 299.734 158.068 300.466 158.138C302.236 158.305 305.141 158.854 306.883 160.934C306.887 160.938 306.891 160.946 306.895 160.95C308.204 162.508 308.878 164.5 308.779 166.533Z" fill="#556B2F"/>
<path d="M284.051 171.027C284.051 171.027 282.666 175.533 281.91 178.579C278.638 178.397 273.228 178.305 273.228 178.305C273.228 178.305 272.395 178.27 271.666 178.148C270.936 178.027 270.277 177.627 269.061 177.558C267.846 177.489 264.426 180.318 264.182 180.7C263.939 181.082 264.443 181.273 264.807 181.204C265.172 181.134 266.7 180.526 266.7 180.526C266.7 180.526 266.78 180.915 268.185 180.915C269.913 180.915 270.762 180.787 271.266 180.804C271.769 180.822 272.915 180.978 272.915 180.978C272.915 180.978 274.774 181.566 277.691 182.677C280.984 183.932 286.075 184.257 286.702 183.892C288.108 183.074 290.926 172.381 290.926 172.381L284.051 171.027Z" fill="url(#paint15_linear_169_6448)"/>
<path d="M316.048 168.32C317.736 172.858 313.578 179.207 311.471 187.557C310.167 192.729 313.403 196.14 311.208 198.322C307.996 201.515 294.711 201.862 291.051 197.175C289.335 194.978 290.175 191.939 291.259 187.018C293.287 177.808 292.222 174.337 293.551 169.642C295.674 162.141 313.704 162.017 316.048 168.32Z" fill="#333333"/>
<path d="M317.126 168.253C318.814 172.792 314.655 179.14 312.549 187.491C311.244 192.662 314.481 196.073 312.285 198.256C309.073 201.448 295.788 201.796 292.128 197.108C290.412 194.911 291.253 191.873 292.337 186.952C294.364 177.741 293.299 174.27 294.628 169.575C296.751 162.074 314.782 161.95 317.126 168.253Z" fill="#DAE1E2"/>
<path d="M308.086 205.944H273.373C272.378 205.944 271.429 205.66 271.571 204.675C271.688 203.868 272.642 203.524 273.758 203.386C281.068 202.483 289.202 202.34 289.202 202.34H308.086C309.082 202.34 309.889 203.147 309.889 204.142C309.889 205.137 309.082 205.944 308.086 205.944Z" fill="#DAE1E2"/>
<path d="M308.086 205.944H291.004C290.009 205.944 289.202 205.137 289.202 204.142C289.202 203.147 290.009 202.34 291.004 202.34H308.086C309.082 202.34 309.889 203.147 309.889 204.142C309.889 205.137 309.082 205.944 308.086 205.944Z" fill="#333333"/>
<path d="M295.116 205.944H290.412V229.729H295.116V205.944Z" fill="url(#paint16_linear_169_6448)"/>
<path d="M295.756 205.944H289.773V219.311H295.756V205.944Z" fill="#333333"/>
<path d="M278.861 235.529C278.861 236.148 278.36 236.649 277.741 236.649C277.123 236.649 276.621 236.148 276.621 235.529C276.621 234.911 277.123 234.409 277.741 234.409C278.36 234.409 278.861 234.911 278.861 235.529Z" fill="#333333"/>
<path d="M290.412 229.729C290.412 229.729 283.298 231.318 276.928 233.939C276.65 234.054 276.47 234.326 276.47 234.627V234.794C276.47 234.931 276.581 235.042 276.718 235.042H278.639C278.882 235.042 279.118 234.995 279.343 234.903C280.583 234.399 285.332 232.666 292.764 232.333V229.729H290.412Z" fill="#333333"/>
<path d="M306.667 235.529C306.667 236.148 307.169 236.649 307.787 236.649C308.406 236.649 308.907 236.148 308.907 235.529C308.907 234.911 308.406 234.409 307.787 234.409C307.169 234.409 306.667 234.911 306.667 235.529Z" fill="#333333"/>
<path d="M295.116 229.729C295.116 229.729 302.231 231.318 308.601 233.939C308.878 234.054 309.059 234.326 309.059 234.627V234.794C309.059 234.931 308.948 235.042 308.811 235.042H306.889C306.647 235.042 306.41 234.995 306.186 234.903C304.946 234.399 300.196 232.666 292.764 232.333V229.729H295.116Z" fill="#333333"/>
<path d="M293.259 236.649H292.269C292.01 236.649 291.801 236.439 291.801 236.18V234.878C291.801 234.619 292.011 234.41 292.269 234.41H293.259C293.518 234.41 293.727 234.62 293.727 234.878V236.18C293.728 236.439 293.518 236.649 293.259 236.649Z" fill="#333333"/>
<path d="M292.764 229.729H290.412C290.412 229.729 290.821 233.097 291.465 234.626C291.571 234.878 291.814 235.042 292.087 235.042H292.765H293.442C293.715 235.042 293.958 234.878 294.065 234.626C294.708 233.098 295.117 229.729 295.117 229.729H292.764Z" fill="#333333"/>
<path d="M304.466 189.822C304.195 191.993 304.099 194.206 304.099 196.273C304.099 199.235 304.299 201.89 304.478 203.665C304.478 203.665 304.645 205.26 304.253 205.944C303.911 206.548 303.428 207.261 301.07 207.261C299.645 207.261 296.382 207.261 296.382 207.261C296.382 207.261 294.795 207.086 294.545 205.944H298.449C300.311 205.944 300.374 203.956 300.374 203.694C300.374 203.673 300.374 203.665 300.374 203.665C300.095 200.277 299.708 193.873 300.299 189.822C300.982 185.13 301.853 181.584 302.499 179.33C303.241 176.521 305.445 176.475 305.445 176.475H306.427C306.427 176.475 307.604 176.467 306.87 178.905C306.095 181.622 304.924 186.118 304.466 189.822Z" fill="#DAE1E2"/>
<path d="M305.355 189.822C305.084 191.993 304.988 194.206 304.988 196.273C304.988 199.235 305.188 201.89 305.367 203.665C305.367 203.665 305.534 205.26 305.142 205.944C304.8 206.548 304.317 207.261 301.958 207.261C300.533 207.261 295.845 207.261 295.845 207.261C295.845 207.261 294.258 207.086 294.008 205.944H299.338C301.2 205.944 301.263 203.956 301.263 203.694C301.263 203.673 301.263 203.665 301.263 203.665C300.984 200.277 300.596 193.873 301.188 189.822C301.871 185.13 302.742 181.584 303.388 179.33C304.13 176.521 306.334 176.475 306.334 176.475H306.646C306.646 176.475 308.492 176.467 307.759 178.905C306.984 181.622 305.813 186.118 305.355 189.822Z" fill="#333333"/>
<path d="M268.282 190.88C272.396 190.932 278.873 190.845 280.053 192.373C281.234 193.901 284.748 205.899 285.373 206.108C285.891 206.28 288.167 206.167 288.805 206.123C288.914 206.116 288.989 206.012 288.958 205.907C288.597 204.64 284.455 192.468 282.897 191.193C281.178 189.786 269.814 190.036 268.772 190.116C267.038 190.249 267.116 190.865 268.282 190.88Z" fill="#333333"/>
<path d="M291.728 158.961C291.728 158.961 288.294 159.62 286.732 161.548C285.17 163.475 283.322 171.444 283.322 171.444C283.322 171.444 288.131 173.927 291.499 173.927C292.723 171.094 294.207 165.385 294.207 165.385" fill="#556B2F"/>
<path d="M247.036 84.7749C252.348 84.7749 256.655 80.4685 256.655 75.1563C256.655 69.844 252.348 65.5376 247.036 65.5376C241.724 65.5376 237.418 69.844 237.418 75.1563C237.418 80.4685 241.724 84.7749 247.036 84.7749Z" fill="#556B2F"/>
<path d="M157.244 66.9296C162.126 66.9296 166.084 62.9716 166.084 58.0891C166.084 53.2066 162.126 49.2485 157.244 49.2485C152.361 49.2485 148.403 53.2066 148.403 58.0891C148.403 62.9716 152.361 66.9296 157.244 66.9296Z" fill="#556B2F"/>
<path d="M252.549 72.7296C251.289 72.7296 250.069 72.8976 248.908 73.208C246.668 62.9941 237.572 55.3477 226.686 55.3477C224.915 55.3477 223.194 55.5568 221.539 55.9397C216.971 42.5968 204.33 33 189.439 33C173.896 33 160.802 43.456 156.786 57.7152C156.215 57.6699 155.64 57.64 155.057 57.64C143.122 57.64 133.448 67.3152 133.448 79.2496C133.448 91.1845 143.123 100.859 155.057 100.859H252.549C260.317 100.859 266.614 94.5621 266.614 86.7941C266.614 79.0267 260.317 72.7296 252.549 72.7296Z" fill="#556B2F"/>
<path d="M180.439 87.9573C178.257 87.9573 176.685 87.4139 175.721 86.328C174.756 85.2416 174.275 83.5131 174.275 81.1413V78.8059H178.999V81.7931C178.999 82.3451 179.083 82.7776 179.251 83.0901C179.418 83.4021 179.71 83.5584 180.126 83.5584C180.561 83.5584 180.862 83.432 181.029 83.1781C181.197 82.9248 181.281 82.5083 181.281 81.9291C181.281 81.1957 181.208 80.5829 181.063 80.0896C180.919 79.5963 180.667 79.1253 180.31 78.6779C179.952 78.2293 179.457 77.7072 178.823 77.1099L176.678 75.0731C175.076 73.5616 174.275 71.8331 174.275 69.8864C174.275 67.8501 174.748 66.2976 175.694 65.2293C176.639 64.1616 178.009 63.6272 179.801 63.6272C181.991 63.6272 183.546 64.2112 184.465 65.3787C185.383 66.5461 185.843 68.3205 185.843 70.7008H180.982V69.0576C180.982 68.7323 180.889 68.4784 180.703 68.2976C180.518 68.1163 180.267 68.0256 179.95 68.0256C179.57 68.0256 179.292 68.1323 179.115 68.3451C178.939 68.5573 178.851 68.8315 178.851 69.1664C178.851 69.5013 178.941 69.8635 179.122 70.2523C179.303 70.6416 179.661 71.0896 180.195 71.5963L182.951 74.2437C183.503 74.7685 184.01 75.3232 184.472 75.9072C184.933 76.4912 185.305 77.1696 185.586 77.9435C185.866 78.7173 186.006 79.6608 186.006 80.7744C186.006 83.0192 185.593 84.7776 184.764 86.0496C183.934 87.3216 182.493 87.9573 180.439 87.9573Z" fill="#333333"/>
<path d="M186.942 87.7402L189.25 63.8442H197.355L199.623 87.7402H195.101L194.762 83.8848H191.883L191.584 87.7402H186.942ZM192.223 80.0693H194.395L193.35 67.9178H193.133L192.223 80.0693Z" fill="#333333"/>
<path d="M200.438 87.7402L202.746 63.8442H210.851L213.119 87.7402H208.597L208.258 83.8848H205.38L205.081 87.7402H200.438ZM205.719 80.0693H207.891L206.846 67.9178H206.629L205.719 80.0693Z" fill="#333333"/>
<path d="M220.261 87.9573C218.079 87.9573 216.507 87.4139 215.542 86.328C214.578 85.2416 214.097 83.5131 214.097 81.1413V78.8059H218.821V81.7931C218.821 82.3451 218.905 82.7776 219.073 83.0901C219.239 83.4021 219.532 83.5584 219.948 83.5584C220.382 83.5584 220.684 83.432 220.851 83.1781C221.018 82.9248 221.102 82.5083 221.102 81.9291C221.102 81.1957 221.03 80.5829 220.885 80.0896C220.741 79.5963 220.489 79.1253 220.132 78.6779C219.774 78.2293 219.278 77.7072 218.645 77.1099L216.5 75.0731C214.898 73.5616 214.097 71.8331 214.097 69.8864C214.097 67.8501 214.57 66.2976 215.516 65.2293C216.461 64.1616 217.831 63.6272 219.623 63.6272C221.813 63.6272 223.368 64.2112 224.286 65.3787C225.205 66.5461 225.665 68.3205 225.665 70.7008H220.804V69.0576C220.804 68.7323 220.711 68.4784 220.526 68.2976C220.34 68.1163 220.089 68.0256 219.772 68.0256C219.392 68.0256 219.114 68.1323 218.938 68.3451C218.761 68.5573 218.673 68.8315 218.673 69.1664C218.673 69.5013 218.763 69.8635 218.945 70.2523C219.126 70.6416 219.483 71.0896 220.018 71.5963L222.773 74.2437C223.325 74.7685 223.833 75.3232 224.294 75.9072C224.756 76.4912 225.127 77.1696 225.408 77.9435C225.688 78.7173 225.829 79.6608 225.829 80.7744C225.829 83.0192 225.415 84.7776 224.586 86.0496C223.756 87.3216 222.315 87.9573 220.261 87.9573Z" fill="#333333"/>
<path d="M225.808 89.7141H174.608V90.6032H225.808V89.7141Z" fill="#333333"/>
<path d="M186.043 103.449H183.618C183.334 103.449 183.105 103.219 183.105 102.936V100.859H186.556V102.936C186.556 103.219 186.326 103.449 186.043 103.449Z" fill="#333333"/>
<path d="M185.856 103.449H183.806V119.104H185.856V103.449Z" fill="#333333"/>
<path d="M201.243 103.449H198.818C198.534 103.449 198.305 103.219 198.305 102.936V100.859H201.756V102.936C201.756 103.219 201.526 103.449 201.243 103.449Z" fill="#333333"/>
<path d="M201.055 103.449H199.006V119.104H201.055V103.449Z" fill="#333333"/>
<path d="M216.443 103.449H214.018C213.735 103.449 213.505 103.219 213.505 102.936V100.859H216.956V102.936C216.956 103.219 216.726 103.449 216.443 103.449Z" fill="#333333"/>
<path d="M216.256 103.449H214.206V119.104H216.256V103.449Z" fill="#333333"/>
<path d="M220.905 60.2848C227.576 60.2848 232.984 54.8766 232.984 48.2053C232.984 41.534 227.576 36.1259 220.905 36.1259C214.233 36.1259 208.825 41.534 208.825 48.2053C208.825 54.8766 214.233 60.2848 220.905 60.2848Z" fill="white"/>
<path d="M220.905 35.7722C214.049 35.7722 208.471 41.3498 208.471 48.2053C208.471 55.0607 214.049 60.6378 220.905 60.6378C227.76 60.6378 233.337 55.0602 233.337 48.2053C233.337 41.3498 227.76 35.7722 220.905 35.7722ZM209.537 51.0826H212.968C213.216 52.6687 213.663 54.1376 214.268 55.4245H211.675C210.683 54.1589 209.943 52.6869 209.537 51.0826ZM232.272 45.3274H228.841C228.593 43.7413 228.146 42.2725 227.541 40.9855H230.134C231.126 42.2511 231.866 43.7231 232.272 45.3274ZM228.129 45.3274H224.468C224.365 43.7957 224.179 42.3109 223.914 40.9855H226.77C227.401 42.2511 227.871 43.7231 228.129 45.3274ZM228.357 48.2047C228.357 48.9466 228.311 49.6719 228.227 50.3759H224.51C224.546 49.6543 224.565 48.9269 224.565 48.2047C224.565 47.4826 224.546 46.7551 224.51 46.0335H228.227C228.311 46.7381 228.357 47.4629 228.357 48.2047ZM218.004 50.3759C217.969 49.6789 217.95 48.9551 217.95 48.2047C217.95 47.4549 217.969 46.7311 218.004 46.0335H223.805C223.84 46.7306 223.859 47.4543 223.859 48.2047C223.859 48.9546 223.84 49.6783 223.805 50.3759H218.004ZM223.764 51.0826C223.655 52.7162 223.457 54.1808 223.199 55.4245H218.61C218.352 54.1808 218.154 52.7162 218.045 51.0826H223.764ZM213.452 48.2047C213.452 47.4629 213.498 46.7375 213.582 46.0335H217.299C217.262 46.7551 217.243 47.4826 217.243 48.2047C217.243 48.9269 217.262 49.6543 217.299 50.3759H213.582C213.498 49.6719 213.452 48.9471 213.452 48.2047ZM218.044 45.3274C218.154 43.6938 218.351 42.2293 218.609 40.9855H223.199C223.457 42.2293 223.654 43.6938 223.764 45.3274H218.044ZM223.762 40.2789C223.409 38.7594 222.941 37.5034 222.366 36.7066C223.943 37.2021 225.342 38.4831 226.391 40.2789H223.762ZM223.041 40.2789H218.769C219.346 37.8906 220.149 36.4789 220.905 36.4789C221.66 36.4789 222.463 37.8906 223.041 40.2789ZM218.047 40.2789H215.418C216.466 38.4831 217.865 37.2021 219.442 36.7066C218.867 37.5034 218.401 38.7594 218.047 40.2789ZM217.895 40.9855C217.63 42.3109 217.444 43.7957 217.34 45.3274H213.679C213.938 43.7231 214.408 42.2511 215.038 40.9855H217.895ZM212.969 45.3274H209.537C209.943 43.7231 210.683 42.2511 211.675 40.9855H214.269C213.663 42.2725 213.216 43.7413 212.969 45.3274ZM212.873 46.0341C212.79 46.7397 212.746 47.4645 212.746 48.2053C212.746 48.9461 212.791 49.6709 212.873 50.3765H209.383C209.251 49.6725 209.178 48.9477 209.178 48.2053C209.178 47.4634 209.251 46.7381 209.383 46.0341H212.873ZM213.679 51.0826H217.34C217.444 52.6143 217.63 54.0992 217.895 55.4245H215.038C214.408 54.1589 213.938 52.6869 213.679 51.0826ZM218.047 56.1311C218.4 57.6506 218.867 58.9066 219.442 59.7034C217.865 59.2079 216.466 57.9269 215.418 56.1311H218.047ZM218.769 56.1311H223.041C222.463 58.5194 221.661 59.9312 220.905 59.9312C220.148 59.9312 219.346 58.5194 218.769 56.1311ZM223.762 56.1311H226.391C225.342 57.9269 223.943 59.2079 222.366 59.7034C222.941 58.9066 223.409 57.6506 223.762 56.1311ZM223.914 55.4245C224.179 54.0986 224.365 52.6143 224.469 51.0826H228.13C227.871 52.6869 227.402 54.1594 226.771 55.4245H223.914ZM228.841 51.0826H232.272C231.866 52.6869 231.126 54.1594 230.134 55.4245H227.541C228.145 54.1376 228.593 52.6687 228.841 51.0826ZM228.937 50.3759C229.019 49.6703 229.063 48.9455 229.063 48.2047C229.063 47.4639 229.018 46.7391 228.937 46.0335H232.426C232.558 46.7375 232.631 47.4623 232.631 48.2047C232.631 48.9466 232.558 49.6719 232.426 50.3759H228.937ZM229.537 40.2789H227.186C226.452 38.9306 225.534 37.8229 224.493 37.0426C226.447 37.6725 228.179 38.8005 229.537 40.2789ZM217.316 37.0426C216.275 37.8229 215.358 38.9306 214.623 40.2789H212.272C213.63 38.801 215.362 37.6725 217.316 37.0426ZM212.272 56.1311H214.623C215.357 57.4794 216.275 58.5872 217.316 59.3674C215.362 58.7376 213.63 57.609 212.272 56.1311ZM224.493 59.3674C225.534 58.5872 226.451 57.4794 227.185 56.1311H229.537C228.179 57.609 226.447 58.7376 224.493 59.3674Z" fill="#333333"/>
<path d="M68.8848 199.376L68.8715 199.382C69.4512 197.761 69.6523 195.96 69.2752 194.063C68.4043 189.678 64.6704 186.313 60.2139 185.962C54.2885 185.494 49.3339 190.166 49.3339 195.999C49.3339 197.188 49.5509 198.324 49.9296 199.382L49.9163 199.377C49.9163 199.377 49.9717 199.526 50.0875 199.813C50.1093 199.866 50.1296 199.92 50.1525 199.972C50.872 201.731 53.3301 207.338 58.6176 215.874C58.9771 216.454 59.8256 216.454 60.1851 215.874C65.4736 207.336 67.9312 201.729 68.6501 199.971C68.6725 199.92 68.6923 199.867 68.7136 199.814C68.8288 199.526 68.8848 199.376 68.8848 199.376ZM59.3973 191.351C61.9627 191.351 64.0448 193.433 64.0448 195.998C64.0448 198.564 61.9627 200.64 59.3973 200.64C56.8384 200.64 54.7563 198.564 54.7563 195.998C54.7557 193.433 56.8379 191.351 59.3973 191.351Z" fill="#333333"/>
<path d="M59.4 218.716V219.782" stroke="white" stroke-width="1.5" stroke-linecap="round" stroke-linejoin="round"/>
<path d="M59.4 221.312V234.818" stroke="white" stroke-width="1.5" stroke-linecap="round" stroke-linejoin="round" stroke-dasharray="3.82 2.87"/>
<path d="M59.4 235.583V236.649" stroke="white" stroke-width="1.5" stroke-linecap="round" stroke-linejoin="round"/>
<path d="M306.15 113.133H295.255C294.803 113.133 294.436 112.766 294.436 112.314C294.436 111.862 294.803 111.495 295.255 111.495H306.15C306.602 111.495 306.969 111.862 306.969 112.314C306.969 112.766 306.602 113.133 306.15 113.133Z" fill="#333333"/>
<path d="M317.05 113.133H309.165C308.713 113.133 308.346 112.766 308.346 112.314C308.346 111.862 308.713 111.495 309.165 111.495H317.05C317.502 111.495 317.868 111.862 317.868 112.314C317.868 112.766 317.502 113.133 317.05 113.133Z" fill="#333333"/>
<path d="M299.883 116.733H295.254C294.802 116.733 294.436 116.366 294.436 115.914C294.436 115.462 294.802 115.095 295.254 115.095H299.883C300.336 115.095 300.702 115.462 300.702 115.914C300.702 116.366 300.336 116.733 299.883 116.733Z" fill="#333333"/>
<path d="M317.05 116.733H302.632C302.179 116.733 301.813 116.366 301.813 115.914C301.813 115.462 302.179 115.095 302.632 115.095H317.05C317.502 115.095 317.868 115.462 317.868 115.914C317.868 116.366 317.502 116.733 317.05 116.733Z" fill="#333333"/>
<path d="M309.617 120.333H295.255C294.803 120.333 294.436 119.966 294.436 119.514C294.436 119.062 294.803 118.695 295.255 118.695H309.617C310.069 118.695 310.435 119.062 310.435 119.514C310.435 119.966 310.068 120.333 309.617 120.333Z" fill="#333333"/>
<path d="M317.05 120.333H312.42C311.968 120.333 311.602 119.966 311.602 119.514C311.602 119.062 311.968 118.695 312.42 118.695H317.05C317.502 118.695 317.868 119.062 317.868 119.514C317.868 119.966 317.502 120.333 317.05 120.333Z" fill="#DAE1E2"/>
<path d="M308.189 88.2592V88.5824C308.189 89.4219 307.509 90.1019 306.67 90.1019H295.753C294.913 90.1019 294.232 90.783 294.232 91.6224V106.281C294.232 107.221 294.994 107.983 295.934 107.983H317.985C318.825 107.983 319.505 107.302 319.505 106.462V88.2587C319.505 87.384 318.796 86.6747 317.921 86.6747H309.774C308.899 86.6747 308.189 87.384 308.189 88.2592Z" fill="#556B2F"/>
<path d="M317.138 107.983H297.073L292.995 92.2438C292.876 91.7846 293.223 91.3365 293.697 91.3365H312.278C313.028 91.3365 313.683 91.8438 313.871 92.5696L317.682 107.279C317.774 107.636 317.505 107.983 317.138 107.983Z" fill="white"/>
<path d="M316.459 107.983H295.802L292.058 93.5302C291.948 93.1083 292.267 92.6971 292.702 92.6971H311.33C312.018 92.6971 312.62 93.1627 312.793 93.8294L316.459 107.983Z" fill="white"/>
<path d="M315.82 106.496L315.699 106.032L313.184 96.3771C312.946 95.4641 312.122 94.8273 311.179 94.8273H292.041C291.393 94.8273 290.921 95.439 291.084 96.0651L293.737 106.248C294.003 107.269 294.925 107.982 295.981 107.982H315.367H316.208H317.865C316.556 107.983 316.025 107.073 315.82 106.496Z" fill="#556B2F"/>
<path d="M223.914 101.782V112.659C223.914 114.422 225.344 115.851 227.107 115.851H288.988" stroke="white" stroke-width="1.5" stroke-miterlimit="10" stroke-linecap="round" stroke-linejoin="round" stroke-dasharray="4 3"/>
<path d="M373.427 236.093H26.6437C26.6421 236.093 26.6411 236.094 26.64 236.094C26.6379 236.094 26.6357 236.093 26.6336 236.093C26.2837 236.093 26 236.377 26 236.727C26 237.077 26.2837 237.36 26.6336 237.36C26.6357 237.36 26.6379 237.359 26.64 237.359C26.6416 237.359 26.6427 237.36 26.6437 237.36H373.427C373.777 237.36 374.061 237.077 374.061 236.727C374.061 236.377 373.777 236.093 373.427 236.093Z" fill="url(#paint17_linear_169_6448)"/>
<defs>
<linearGradient id="paint0_linear_169_6448" x1="273.782" y1="163.65" x2="286.448" y2="140.584" gradientUnits="userSpaceOnUse">
<stop stop-color="#DEE3FC"/>
<stop offset="1" stop-color="white"/>
</linearGradient>
<linearGradient id="paint1_linear_169_6448" x1="100.611" y1="149.473" x2="100.967" y2="158.584" gradientUnits="userSpaceOnUse">
<stop stop-color="#FFC39A"/>
<stop offset="1" stop-color="#E8A38C"/>
</linearGradient>
<linearGradient id="paint2_linear_169_6448" x1="101.304" y1="150.131" x2="103.882" y2="163.198" gradientUnits="userSpaceOnUse">
<stop stop-color="#FFC39A"/>
<stop offset="1" stop-color="#E8A38C"/>
</linearGradient>
<linearGradient id="paint3_linear_169_6448" x1="97.0971" y1="137.087" x2="85.5959" y2="137.087" gradientUnits="userSpaceOnUse">
<stop stop-color="#FFC39A"/>
<stop offset="1" stop-color="#E8A38C"/>
</linearGradient>
<linearGradient id="paint4_linear_169_6448" x1="97.0971" y1="130.052" x2="85.5958" y2="130.052" gradientUnits="userSpaceOnUse">
<stop stop-color="#FFC39A"/>
<stop offset="1" stop-color="#E8A38C"/>
</linearGradient>
<linearGradient id="paint5_linear_169_6448" x1="98.0046" y1="147.892" x2="79.4736" y2="157.937" gradientUnits="userSpaceOnUse">
<stop stop-color="#FFC39A"/>
<stop offset="1" stop-color="#E8A38C"/>
</linearGradient>
<linearGradient id="paint6_linear_169_6448" x1="100.282" y1="151.264" x2="81.6077" y2="161.386" gradientUnits="userSpaceOnUse">
<stop stop-color="#FFC39A"/>
<stop offset="1" stop-color="#E8A38C"/>
</linearGradient>
<linearGradient id="paint7_linear_169_6448" x1="97.0971" y1="131.649" x2="85.5958" y2="131.649" gradientUnits="userSpaceOnUse">
<stop stop-color="#FFC39A"/>
<stop offset="1" stop-color="#E8A38C"/>
</linearGradient>
<linearGradient id="paint8_linear_169_6448" x1="290.459" y1="156.122" x2="301.178" y2="156.122" gradientUnits="userSpaceOnUse">
<stop stop-color="#FFC39A"/>
<stop offset="1" stop-color="#E8A38C"/>
</linearGradient>
<linearGradient id="paint9_linear_169_6448" x1="290.924" y1="149.668" x2="301.124" y2="149.668" gradientUnits="userSpaceOnUse">
<stop stop-color="#FFC39A"/>
<stop offset="1" stop-color="#E8A38C"/>
</linearGradient>
<linearGradient id="paint10_linear_169_6448" x1="290.732" y1="150.895" x2="301.525" y2="150.895" gradientUnits="userSpaceOnUse">
<stop stop-color="#FFC39A"/>
<stop offset="1" stop-color="#E8A38C"/>
</linearGradient>
<linearGradient id="paint11_linear_169_6448" x1="276.491" y1="234.409" x2="287.876" y2="234.409" gradientUnits="userSpaceOnUse">
<stop stop-color="#2E2A87"/>
<stop offset="0.1239" stop-color="#28257C"/>
<stop offset="1" stop-color="#00002E"/>
</linearGradient>
<linearGradient id="paint12_linear_169_6448" x1="256.188" y1="234.409" x2="267.572" y2="234.409" gradientUnits="userSpaceOnUse">
<stop stop-color="#2E2A87"/>
<stop offset="0.1239" stop-color="#28257C"/>
<stop offset="1" stop-color="#00002E"/>
</linearGradient>
<linearGradient id="paint13_linear_169_6448" x1="276.47" y1="210.818" x2="307.173" y2="210.818" gradientUnits="userSpaceOnUse">
<stop stop-color="#2E2A87"/>
<stop offset="1" stop-color="#000E42"/>
</linearGradient>
<linearGradient id="paint14_linear_169_6448" x1="262.76" y1="211.311" x2="299.544" y2="211.311" gradientUnits="userSpaceOnUse">
<stop stop-color="#2E2A87"/>
<stop offset="1" stop-color="#000E42"/>
</linearGradient>
<linearGradient id="paint15_linear_169_6448" x1="262.163" y1="177.53" x2="343.097" y2="177.53" gradientUnits="userSpaceOnUse">
<stop stop-color="#FFC39A"/>
<stop offset="1" stop-color="#E8A38C"/>
</linearGradient>
<linearGradient id="paint16_linear_169_6448" x1="290.341" y1="217.837" x2="297.55" y2="217.837" gradientUnits="userSpaceOnUse">
<stop/>
<stop offset="1" stop-color="#191851"/>
</linearGradient>
<linearGradient id="paint17_linear_169_6448" x1="26.0001" y1="236.727" x2="374.061" y2="236.727" gradientUnits="userSpaceOnUse">
<stop stop-color="#3945BA"/>
<stop offset="1" stop-color="#0C176F"/>
</linearGradient>
</defs>
</svg>
