<svg width="500" height="334" viewBox="0 0 500 334" fill="none" xmlns="http://www.w3.org/2000/svg">
<path d="M416.374 43.4694H378.539V114.797H416.374V43.4694Z" fill="#DAE1E2"/>
<path d="M414.518 43.4694H370.075V114.797H414.518V43.4694Z" fill="#DAE1E2"/>
<path d="M407.741 49.8047H376.829V108.461H407.741V49.8047Z" fill="white"/>
<path d="M398.68 67.2987H386.662V90.0967H398.68V67.2987Z" fill="#DAE1E2"/>
<path d="M120.341 43.4694H82.5066V114.797H120.341V43.4694Z" fill="#DAE1E2"/>
<path d="M118.485 43.4694H74.042V114.797H118.485V43.4694Z" fill="#DAE1E2"/>
<path d="M111.709 49.8047H80.7966V108.461H111.709V49.8047Z" fill="white"/>
<path d="M102.647 67.2987H90.6294V90.0967H102.647V67.2987Z" fill="#DAE1E2"/>
<path d="M449.156 214.891H328.659C326.504 214.891 324.751 213.138 324.751 210.983V35.468C324.751 33.3133 326.504 31.56 328.659 31.56H449.156C451.311 31.56 453.064 33.3127 453.064 35.468V210.983C453.064 213.139 451.311 214.891 449.156 214.891ZM328.659 31.7267C326.595 31.7267 324.917 33.4047 324.917 35.468V210.983C324.917 213.047 326.596 214.725 328.659 214.725H449.156C451.219 214.725 452.897 213.046 452.897 210.983V35.468C452.897 33.4053 451.219 31.7267 449.156 31.7267H328.659Z" fill="#DAE1E2"/>
<path d="M310.204 214.891H189.707C187.552 214.891 185.799 213.138 185.799 210.983V35.468C185.799 33.3133 187.551 31.56 189.707 31.56H310.205C312.36 31.56 314.113 33.3127 314.113 35.468V210.983C314.112 213.139 312.359 214.891 310.204 214.891ZM189.707 31.7267C187.644 31.7267 185.965 33.4047 185.965 35.468V210.983C185.965 213.047 187.644 214.725 189.707 214.725H310.205C312.268 214.725 313.946 213.046 313.946 210.983V35.468C313.946 33.4053 312.268 31.7267 310.205 31.7267H189.707Z" fill="#DAE1E2"/>
<path d="M171.341 214.891H50.844C48.6894 214.891 46.936 213.138 46.936 210.983V35.468C46.936 33.3133 48.6887 31.56 50.844 31.56H171.341C173.496 31.56 175.249 33.3127 175.249 35.468V210.983C175.25 213.139 173.497 214.891 171.341 214.891ZM50.844 31.7267C48.7814 31.7267 47.1027 33.4047 47.1027 35.468V210.983C47.1027 213.047 48.7814 214.725 50.844 214.725H171.341C173.405 214.725 175.083 213.046 175.083 210.983V35.468C175.083 33.4053 173.404 31.7267 171.341 31.7267H50.844Z" fill="#DAE1E2"/>
<path d="M500 255.605H0V255.685H500V255.605Z" fill="#DAE1E2"/>
<path d="M472.903 275.189H435.751V275.469H472.903V275.189Z" fill="#DAE1E2"/>
<path d="M339.781 278.233H330.029V278.513H339.781V278.233Z" fill="#DAE1E2"/>
<path d="M75.546 266.657H27.0967V266.938H75.546V266.657Z" fill="#DAE1E2"/>
<path d="M92.6367 266.657H85.5327V266.938H92.6367V266.657Z" fill="#DAE1E2"/>
<path d="M220.799 271.393H115.724V271.674H220.799V271.393Z" fill="#DAE1E2"/>
<path d="M158.987 74.1566C157.315 76.7013 156.191 79.4966 155.593 82.3806L151.001 82.8133L151 91.7066L155.593 92.1393C156.191 95.022 157.315 97.8173 158.987 100.363L156.053 103.906L162.342 110.195L165.885 107.262C168.43 108.933 171.225 110.057 174.108 110.655L174.54 115.248L183.433 115.247L183.866 110.655C186.749 110.057 189.545 108.933 192.09 107.261L195.633 110.194L201.921 103.905L198.989 100.363C200.659 97.8173 201.783 95.022 202.382 92.1393L206.974 91.7066L206.975 82.8133L202.383 82.3806C201.784 79.498 200.659 76.7026 198.989 74.158L201.921 70.6153L195.633 64.3266L192.09 67.2593C189.545 65.588 186.749 64.4633 183.867 63.8653L183.434 59.2726L174.541 59.2733L174.109 63.866C171.226 64.4646 168.431 65.588 165.885 67.2593L162.342 64.326L156.053 70.6146L158.987 74.1566ZM187.501 78.7466C192.203 83.448 192.203 91.0713 187.501 95.7733C182.799 100.475 175.176 100.475 170.475 95.7733C165.773 91.0713 165.773 83.4486 170.475 78.7466C175.176 74.0453 182.799 74.0453 187.501 78.7466Z" fill="#DAE1E2"/>
<path d="M176.34 181.435C175.505 182.707 174.943 184.104 174.644 185.545L172.349 185.761V190.206L174.644 190.422C174.943 191.863 175.505 193.26 176.34 194.532L174.874 196.303L178.017 199.446L179.788 197.98C181.06 198.815 182.457 199.377 183.898 199.676L184.114 201.971H188.559L188.775 199.677C190.215 199.377 191.613 198.815 192.885 197.981L194.655 199.447L197.799 196.303L196.333 194.533C197.168 193.261 197.729 191.863 198.029 190.423L200.323 190.207V185.762L198.028 185.546C197.729 184.105 197.167 182.708 196.332 181.436L197.798 179.665L194.655 176.523L192.884 177.989C191.612 177.153 190.215 176.591 188.774 176.293L188.558 173.997H184.113L183.897 176.293C182.457 176.592 181.059 177.153 179.787 177.989L178.017 176.523L174.873 179.666L176.34 181.435ZM190.591 183.729C192.941 186.079 192.941 189.889 190.591 192.239C188.241 194.589 184.431 194.589 182.082 192.239C179.732 189.889 179.732 186.079 182.082 183.729C184.432 181.379 188.241 181.379 190.591 183.729Z" fill="#DAE1E2"/>
<path d="M49.6394 135.041C48.3201 137.05 47.4327 139.257 46.9601 141.533L43.3347 141.874V148.895L46.9601 149.236C47.4321 151.512 48.3201 153.718 49.6387 155.728L47.3234 158.525L52.288 163.489L55.0847 161.173C57.094 162.493 59.3007 163.38 61.576 163.852L61.9174 167.477L68.938 167.477L69.2794 163.852C71.5554 163.379 73.762 162.492 75.7714 161.173L78.568 163.488L83.5327 158.524L81.2174 155.727C82.536 153.718 83.4234 151.511 83.896 149.236L87.5207 148.895L87.5214 141.874L83.896 141.532C83.4234 139.257 82.536 137.05 81.2167 135.041L83.532 132.244L78.568 127.28L75.7714 129.595C73.762 128.276 71.5554 127.389 69.28 126.916L68.9387 123.291H61.918L61.5767 126.916C59.3007 127.389 57.0947 128.275 55.0854 129.595L52.2887 127.279L47.3241 132.244L49.6394 135.041ZM72.1487 138.664C75.8594 142.375 75.8601 148.393 72.1487 152.105C68.4367 155.817 62.4194 155.816 58.708 152.105C54.9967 148.393 54.9967 142.376 58.708 138.664C62.4194 134.953 68.4367 134.953 72.1487 138.664Z" fill="#DAE1E2"/>
<path d="M431.259 120.696C430.642 121.636 430.227 122.669 430.005 123.734L428.309 123.894V127.18L430.005 127.34C430.227 128.405 430.642 129.438 431.259 130.379L430.175 131.687L432.499 134.011L433.807 132.927C434.748 133.545 435.781 133.96 436.845 134.181L437.005 135.877H440.291L440.451 134.181C441.517 133.959 442.549 133.544 443.49 132.927L444.799 134.01L447.122 131.687L446.039 130.378C446.656 129.437 447.071 128.405 447.293 127.339L448.989 127.179V123.893L447.293 123.733C447.071 122.668 446.656 121.635 446.039 120.695L447.122 119.386L444.799 117.063L443.49 118.147C442.549 117.529 441.517 117.114 440.452 116.893L440.292 115.196H437.006L436.846 116.893C435.781 117.114 434.748 117.529 433.808 118.147L432.499 117.063L430.175 119.386L431.259 120.696ZM441.795 122.391C443.531 124.129 443.531 126.945 441.795 128.682C440.057 130.419 437.241 130.419 435.504 128.682C433.767 126.945 433.767 124.129 435.504 122.391C437.241 120.655 440.057 120.655 441.795 122.391Z" fill="#DAE1E2"/>
<path d="M305.96 79.6C305.343 80.54 304.927 81.5733 304.706 82.638L303.009 82.798V86.084L304.706 86.244C304.927 87.3093 305.343 88.342 305.96 89.2826L304.876 90.5913L307.199 92.9146L308.508 91.8307C309.449 92.448 310.481 92.8633 311.546 93.0847L311.706 94.7813H314.992L315.152 93.0847C316.217 92.8633 317.25 92.448 318.191 91.8307L319.499 92.9146L321.823 90.5913L320.739 89.2826C321.357 88.342 321.772 87.3093 321.993 86.2447L323.69 86.0847V82.7987L321.993 82.6387C321.772 81.5733 321.357 80.5407 320.739 79.6007L321.823 78.2913L319.499 75.968L318.191 77.052C317.25 76.4347 316.217 76.0193 315.153 75.798L314.993 74.1013H311.707L311.547 75.798C310.481 76.0193 309.449 76.434 308.509 77.052L307.199 75.968L304.876 78.2913L305.96 79.6ZM316.495 81.296C318.231 83.0333 318.232 85.8493 316.495 87.5867C314.757 89.324 311.941 89.324 310.204 87.5867C308.467 85.8493 308.467 83.0333 310.204 81.296C311.941 79.5587 314.758 79.5587 316.495 81.296Z" fill="#DAE1E2"/>
<path d="M86.0508 173.909C85.4334 174.849 85.0181 175.882 84.7968 176.947L83.1001 177.107V180.393L84.7968 180.553C85.0181 181.619 85.4334 182.651 86.0508 183.592L84.9668 184.901L87.2901 187.224L88.5988 186.14C89.5394 186.757 90.5721 187.173 91.6368 187.394L91.7968 189.091H95.0828L95.2428 187.394C96.3081 187.173 97.3408 186.757 98.2814 186.14L99.5901 187.224L101.913 184.901L100.829 183.591C101.447 182.651 101.862 181.618 102.083 180.553L103.78 180.393V177.107L102.083 176.947C101.862 175.882 101.447 174.849 100.829 173.909L101.913 172.6L99.5901 170.277L98.2814 171.36C97.3408 170.743 96.3081 170.327 95.2434 170.106L95.0834 168.409H91.7974L91.6374 170.106C90.5721 170.327 89.5394 170.742 88.5994 171.36L87.2901 170.276L84.9668 172.599L86.0508 173.909ZM96.5861 175.605C98.3228 177.342 98.3234 180.159 96.5861 181.895C94.8488 183.633 92.0321 183.633 90.2954 181.895C88.5581 180.158 88.5581 177.342 90.2954 175.605C92.0321 173.868 94.8488 173.867 96.5861 175.605Z" fill="#DAE1E2"/>
<path d="M383.33 133.949C382.269 135.565 381.555 137.339 381.175 139.171L378.259 139.445V145.093L381.176 145.367C381.556 147.198 382.27 148.973 383.331 150.589L381.468 152.839L385.461 156.832L387.711 154.969C389.327 156.031 391.102 156.744 392.933 157.124L393.207 160.04L398.855 160.039L399.129 157.124C400.96 156.744 402.735 156.03 404.351 154.969L406.601 156.832L410.594 152.839L408.731 150.589C409.792 148.973 410.506 147.198 410.886 145.367L413.801 145.093L413.802 139.445L410.886 139.171C410.506 137.34 409.792 135.565 408.731 133.949L410.593 131.7L406.6 127.707L404.351 129.569C402.734 128.508 400.959 127.794 399.129 127.414L398.854 124.498H393.207L392.932 127.414C391.101 127.794 389.327 128.507 387.711 129.569L385.461 127.706L381.468 131.699L383.33 133.949ZM401.436 136.863C404.421 139.849 404.421 144.689 401.436 147.675C398.45 150.66 393.61 150.66 390.625 147.675C387.639 144.689 387.639 139.849 390.625 136.863C393.61 133.878 398.45 133.878 401.436 136.863Z" fill="#DAE1E2"/>
<path d="M271.094 165.611C270.025 167.24 269.305 169.029 268.922 170.874L265.983 171.151V176.842L268.923 177.119C269.305 178.963 270.025 180.752 271.095 182.381L269.217 184.649L273.241 188.673L275.509 186.796C277.137 187.865 278.926 188.585 280.771 188.967L281.048 191.907L286.739 191.906L287.016 188.967C288.861 188.584 290.65 187.865 292.279 186.795L294.546 188.672L298.571 184.648L296.694 182.381C297.763 180.752 298.483 178.963 298.865 177.118L301.804 176.841L301.805 171.15L298.866 170.873C298.483 169.028 297.763 167.239 296.694 165.611L298.571 163.343L294.547 159.319L292.279 161.196C290.65 160.127 288.861 159.407 287.017 159.024L286.74 156.085H281.049L280.772 159.024C278.927 159.407 277.138 160.126 275.509 161.196L273.242 159.319L269.218 163.343L271.094 165.611ZM289.341 168.548C292.35 171.557 292.35 176.435 289.341 179.444C286.333 182.453 281.454 182.453 278.445 179.444C275.437 176.435 275.437 171.557 278.445 168.548C281.455 165.54 286.333 165.539 289.341 168.548Z" fill="#DAE1E2"/>
<path d="M287.774 219.255C285.979 221.987 284.773 224.989 284.129 228.086L279.197 228.551L279.197 238.101L284.129 238.566C284.772 241.662 285.979 244.664 287.774 247.397L284.624 251.202L291.377 257.955L295.182 254.805C297.915 256.6 300.917 257.807 304.013 258.449L304.478 263.381L314.029 263.381L314.493 258.449C317.59 257.806 320.592 256.599 323.325 254.805L327.13 257.955L333.884 251.201L330.734 247.397C332.528 244.663 333.735 241.661 334.378 238.565L339.309 238.101L339.31 228.55L334.379 228.085C333.736 224.989 332.528 221.988 330.734 219.255L333.884 215.45L327.131 208.697L323.326 211.847C320.592 210.052 317.59 208.844 314.495 208.202L314.03 203.27L304.479 203.271L304.015 208.203C300.919 208.845 297.917 210.052 295.183 211.847L291.379 208.697L284.625 215.451L287.774 219.255ZM318.396 224.183C323.445 229.233 323.445 237.419 318.396 242.468C313.347 247.517 305.16 247.517 300.111 242.468C295.061 237.419 295.062 229.233 300.111 224.183C305.161 219.135 313.347 219.135 318.396 224.183Z" fill="#DAE1E2"/>
<path d="M467.009 298.929C467.009 301.187 372.835 303.017 256.667 303.017C140.498 303.017 46.3247 301.187 46.3247 298.929C46.3247 296.671 140.498 294.841 256.667 294.841C372.835 294.841 467.009 296.671 467.009 298.929Z" fill="#DAE1E2"/>
<path d="M78.0533 182.771C65.896 196.991 62.3453 218.041 69.1653 235.463C76.7427 228.7 82.0787 218.391 82.416 209.375C82.754 200.359 80.394 191.484 78.0533 182.771Z" fill="#556B2F"/>
<path d="M75.9319 237.106C71.8066 243.427 69.8326 251.124 70.4053 258.649C76.9773 256.361 82.7713 248.937 86.2446 242.907C89.7179 236.877 91.6599 230.104 93.4273 223.373C86.3079 225.879 80.0573 230.785 75.9319 237.106Z" fill="#556B2F"/>
<path d="M74.416 207.605C69.532 225.156 67.044 243.362 67.0587 261.581C67.0627 266.765 67.2727 271.946 67.678 277.113C67.7033 277.432 68.2033 277.435 68.178 277.113C66.754 258.941 67.8107 240.591 71.3393 222.706C72.3327 217.673 73.5233 212.68 74.8987 207.738C74.9847 207.427 74.5027 207.295 74.416 207.605Z" fill="#333333"/>
<path d="M67.8146 264.595C72.8039 252.717 79.3639 241.591 86.9459 231.19C87.1359 230.929 86.7019 230.68 86.5139 230.937C80.5786 239.079 75.2453 247.662 70.8319 256.725C69.5926 259.271 68.4286 261.852 67.3326 264.462C67.2079 264.759 67.6919 264.888 67.8146 264.595Z" fill="#333333"/>
<path d="M60.7386 246.955C64.1786 252.225 65.8246 258.643 65.3473 264.919C59.8673 263.011 55.036 256.821 52.14 251.793C49.2433 246.765 47.624 241.117 46.1506 235.505C52.0866 237.593 57.2986 241.685 60.7386 246.955Z" fill="#556B2F"/>
<path d="M67.6659 269.077C63.5732 259.34 58.1645 250.315 51.9505 241.791C51.7625 241.533 51.3285 241.783 51.5185 242.043C57.7045 250.528 63.1092 259.516 67.1839 269.21C67.3065 269.503 67.7912 269.374 67.6659 269.077Z" fill="#333333"/>
<path d="M67.8587 272.311C75.592 264.355 83.4887 256.559 91.222 248.603C91.4467 248.373 91.0933 248.019 90.8687 248.25C83.1353 256.207 75.2387 264.002 67.5053 271.958C67.2807 272.189 67.6333 272.543 67.8587 272.311Z" fill="#333333"/>
<path d="M91.5126 244.948C84.8033 251.419 78.6899 258.507 73.2766 266.095H74.5039C79.6106 265.856 84.5679 263.337 87.7719 259.353C90.9759 255.369 92.3733 249.987 91.5126 244.948Z" fill="#556B2F"/>
<path d="M59.752 229.517C62.6326 234.228 65.3473 239.039 67.89 243.941C68.038 244.227 68.47 243.974 68.322 243.688C65.7793 238.786 63.0646 233.975 60.184 229.264C60.016 228.99 59.5833 229.241 59.752 229.517Z" fill="#333333"/>
<path d="M52.8046 205.729C51.706 210.671 50.616 217.097 50.6053 222.243C50.594 227.389 52.164 232.41 55.0886 235.859C58.0133 239.307 63.916 240.817 66.2953 238.844L52.8046 205.729Z" fill="#556B2F"/>
<path d="M81.9634 274.609H52.6541V280.041H81.9634V274.609Z" fill="#333333"/>
<path d="M77.2166 299.392H59.0166L55.7092 278.796H79.8292L77.2166 299.392Z" fill="#333333"/>
<path opacity="0.2" d="M55.9253 280.141H79.6586L79.3633 282.473H56.3L55.9253 280.141Z" fill="#333333"/>
<path d="M423.45 157.219C430.855 152.985 440.289 155.555 444.523 162.96C448.757 170.365 446.187 179.799 438.782 184.033C433.066 187.301 426.149 186.501 421.339 182.565L416.757 183.285L417.847 178.507C417.803 178.433 417.752 178.366 417.709 178.291C413.475 170.888 416.046 161.453 423.45 157.219Z" fill="#556B2F"/>
<path d="M426.194 153.796C421.263 154.745 416.924 158.339 415.071 163.005" stroke="#556B2F" stroke-width="0.5" stroke-miterlimit="10" stroke-linecap="round" stroke-linejoin="round"/>
<path d="M414.297 165.176C413.963 165.865 413.773 166.623 413.742 167.389" stroke="#556B2F" stroke-width="0.5" stroke-miterlimit="10" stroke-linecap="round" stroke-linejoin="round"/>
<path d="M429.305 176.463L422.787 170.514L424.863 168.239L429.234 172.229L436.497 165.136L438.649 167.339L429.305 176.463Z" fill="white"/>
<path d="M264.385 58.6053C272.163 54.0853 282.134 56.7267 286.654 64.506C291.174 72.2847 288.533 82.2553 280.753 86.7753C274.748 90.2647 267.447 89.4713 262.345 85.3553L257.517 86.1493L258.631 81.1013C258.585 81.0233 258.53 80.9533 258.484 80.8747C253.964 73.096 256.606 63.1253 264.385 58.6053Z" fill="#556B2F"/>
<path d="M286.682 60.756C283.518 56.5086 278.114 54.0353 272.831 54.4166" stroke="#556B2F" stroke-width="0.5" stroke-miterlimit="10" stroke-linecap="round" stroke-linejoin="round"/>
<path d="M270.415 54.6773C269.607 54.6753 268.8 54.8427 268.059 55.1653" stroke="#556B2F" stroke-width="0.5" stroke-miterlimit="10" stroke-linecap="round" stroke-linejoin="round"/>
<path d="M279.633 70.3486H264.416V74.1526H279.633V70.3486Z" fill="white"/>
<path d="M278.226 76.2233V68.5373L281.974 72.3806L278.226 76.2233Z" fill="white"/>
<path d="M364.052 155.365C364.052 155.365 363.647 162.347 360.237 174.583C358.099 182.145 355.502 189.569 352.463 196.816C350.763 200.91 348.811 205.255 346.57 209.827C345.562 211.905 344.483 214.019 343.349 216.188C342.044 253.221 321.26 290.867 321.26 290.867C320.109 291.461 316.087 290.813 316.113 289.643C319.191 284.757 325.246 237.305 329.151 214.793C329.393 211.734 329.745 208.495 330.176 205.067C331.319 195.98 333.01 186.101 334.675 177.409C337.257 163.715 339.713 152.981 339.713 152.981L346.561 153.647L364.052 155.365Z" fill="#EEC1BB"/>
<path d="M321.035 298.856H319.865L319.533 297.381L315.574 299.18H305.542C305.542 299.18 303.949 297.579 308.718 296.31C308.951 296.243 309.176 296.157 309.393 296.049C311.939 294.853 315.556 290.822 315.556 290.822H321.053C321.223 291.077 321.374 291.345 321.503 291.623C322.106 292.81 323.141 295.383 321.035 298.856Z" fill="#333333"/>
<path d="M321.503 291.604C320.783 290.794 317.482 294.348 315.062 295.563C312.902 296.633 310.473 297.11 309.393 296.021C311.939 294.825 316.473 289.225 316.473 289.225L320.361 289.615C320.361 289.615 321.251 291.083 321.503 291.604Z" fill="#EEC1BB"/>
<path d="M372.222 206.632C371.67 210.615 370.959 214.877 370.089 219.417C377.513 244.187 362.243 292.531 362.243 292.531C359.661 293.043 357.375 292.711 356.215 291.838C359.095 277.271 357.025 239.401 354.785 216.772C354.587 214.721 354.335 212.462 354.065 210.051C353.606 205.966 353.057 201.467 352.472 196.815C351.482 189.033 350.375 180.845 349.377 173.584C348.153 164.811 347.091 157.389 346.543 153.655C346.317 152.017 346.183 151.091 346.183 151.091L367.615 153.412C367.615 153.412 373.067 159.521 373.913 178.605C374.193 187.979 373.627 197.359 372.222 206.632Z" fill="#EEC1BB"/>
<path d="M362.775 298.856H361.578L361.245 297.381L357.295 299.18H347.272C347.272 299.18 345.679 297.579 350.457 296.31C350.689 296.243 350.915 296.157 351.131 296.049C353.669 294.853 357.295 290.822 357.295 290.822H362.792C362.957 291.08 363.108 291.347 363.242 291.623C363.845 292.81 364.853 295.383 362.775 298.856Z" fill="#333333"/>
<path d="M363.243 291.604C362.514 290.794 359.212 294.348 356.791 295.563C354.632 296.633 352.203 297.11 351.132 296.021C353.669 294.825 357.673 289.615 357.673 289.615H362.091C362.091 289.615 362.981 291.083 363.243 291.604Z" fill="#EEC1BB"/>
<path d="M377.85 101.548C376.75 100.597 374.972 100.962 373.458 100.784C371.161 100.514 369.31 98.854 368.321 96.9714C367.332 95.088 367.044 92.9807 366.692 90.9227C366.34 88.8647 365.885 86.7567 364.624 85.01C363.362 83.2634 360.324 81.098 358.117 82.4227L355.161 87.0034C356.935 92.37 358.378 97.826 359.48 103.336C359.972 105.797 360.461 108.399 362.247 110.316C363.997 112.193 366.767 113.109 369.485 113.284C370.863 113.373 372.288 113.285 373.548 112.773C374.807 112.262 375.879 111.275 376.158 110.059C376.437 108.843 375.767 107.439 374.486 106.973C375.723 106.451 377.009 105.893 377.834 104.914C378.656 103.935 378.835 102.399 377.85 101.548Z" fill="#333333"/>
<path d="M335.509 78.7507C332.13 82.02 331.704 85.9113 332.24 88.5747C333.375 92.0967 335.092 94.4233 336.705 97.754L342.428 74.888C340.273 75.7387 339.183 75.4633 335.509 78.7507Z" fill="#333333"/>
<path d="M345.7 74.754C352.296 74.888 358.918 80.4034 359.437 85.7547C359.956 91.1067 354.692 98.012 353.704 98.436L350.58 99.5847C350.58 99.5847 354.026 91.6167 352.596 89.488C351.166 87.3594 350.129 87.336 350.129 87.336L345.7 74.754Z" fill="#333333"/>
<path d="M340.099 76.0227C343.531 73.596 347.584 74.9834 349.989 76.0227C352.699 77.5867 354.611 80.234 355.242 83.2987C355.766 86.1754 356.401 89.6627 354.931 91.48C354.112 92.5267 352.891 93.18 351.566 93.282L334.947 82.7447C336.065 80.102 337.838 77.7887 340.099 76.0227Z" fill="#333333"/>
<path d="M346.803 114.988C348.102 115.917 349.033 115.359 350.384 114.495C358.502 109.788 355.167 106.062 355.167 106.062C353.166 104.429 352.673 102.129 352.631 98.4927C352.624 98.388 352.61 98.2833 352.588 98.1807C352.496 97.7113 352.262 97.2813 351.916 96.9507C350.997 96.0213 349.498 96.0127 348.568 96.932L348.566 96.9347L344.879 98.7547C344.878 98.81 344.877 98.8653 344.876 98.928C345.217 100.859 345.545 102.346 345.746 103.526C345.743 103.671 345.796 103.818 345.814 103.957C345.812 104.102 345.851 104.255 345.876 104.394C346.077 106.025 343.779 108.891 342.769 109.656C342.166 110.164 342.398 111.859 346.803 114.988Z" fill="#EEC1BB"/>
<path opacity="0.2" d="M344.887 98.6987C344.896 98.7587 344.894 98.8193 344.884 98.8787C345.224 100.809 345.552 102.297 345.753 103.477C345.786 103.618 345.81 103.762 345.822 103.907C345.841 104.059 345.85 104.212 345.848 104.365C348.658 103.023 350.988 100.851 352.526 98.144C352.438 97.6807 352.216 97.254 351.889 96.9147C350.978 95.9767 349.481 95.9507 348.539 96.8573L344.887 98.6987Z" fill="#333333"/>
<path d="M353.134 84.516C354.196 91.1947 354.792 93.988 352.29 98.1754C348.52 104.466 340.288 104.471 337.265 98.2774C334.592 92.6927 333.274 82.7353 338.988 78.5407C344.702 74.3467 352.064 77.8307 353.134 84.516Z" fill="#EEC1BB"/>
<path d="M357.116 89.676C356.705 91.2347 355.673 92.4227 354.595 93.026C352.974 93.9333 351.317 91.38 351.439 89.4753C351.549 87.7613 352.977 86.2593 354.763 86.1433C356.522 86.0287 357.587 87.8947 357.116 89.676Z" fill="#EEC1BB"/>
<path opacity="0.2" d="M353.345 90.322C353.218 89.688 353.352 89.006 353.71 88.4674C354.067 87.9287 354.644 87.54 355.277 87.4114" stroke="#333333" stroke-width="0.5" stroke-miterlimit="10" stroke-linecap="round" stroke-linejoin="round"/>
<path d="M344.989 88.958C345.145 89.662 344.923 90.3354 344.493 90.4614C344.063 90.5874 343.589 90.1187 343.433 89.4147C343.277 88.7107 343.499 88.0374 343.929 87.9114C344.359 87.7854 344.833 88.2534 344.989 88.958Z" fill="#333333"/>
<path d="M338.502 90.6941C338.652 91.3767 338.426 92.0321 337.998 92.1581C337.569 92.2834 337.1 91.8321 336.95 91.1494C336.8 90.4667 337.026 89.8114 337.455 89.6854C337.884 89.5601 338.352 90.0114 338.502 90.6941Z" fill="#333333"/>
<path d="M345.705 86.164C345.623 86.196 345.532 86.1947 345.451 86.1527C344.184 85.4894 343.133 86.1274 343.121 86.1347C342.965 86.2294 342.769 86.1807 342.683 86.0187C342.599 85.8567 342.657 85.6467 342.814 85.5487C342.869 85.5154 344.187 84.7127 345.759 85.5367C345.916 85.6187 345.974 85.8234 345.889 85.994C345.847 86.0747 345.781 86.134 345.705 86.164Z" fill="#333333"/>
<path d="M335.429 87.9867C335.357 87.9827 335.288 87.948 335.239 87.884C335.139 87.7514 335.161 87.5427 335.288 87.4174C336.561 86.166 337.849 86.506 337.904 86.522C338.057 86.5647 338.14 86.7427 338.088 86.92C338.037 87.0967 337.871 87.2054 337.717 87.1634C337.667 87.1494 336.664 86.902 335.652 87.8974C335.585 87.9614 335.505 87.9914 335.429 87.9867Z" fill="#333333"/>
<path d="M340.179 89.896C340.179 89.896 339.817 92.6353 339.072 94.4827C338.942 94.8053 339.173 95.1627 339.52 95.1933C340.413 95.272 341.289 94.7447 341.289 94.7447L340.179 89.896Z" fill="#D4827D"/>
<path d="M344.184 87.8727L342.579 87.9253C342.579 87.9253 343.709 88.8267 344.184 87.8727Z" fill="#333333"/>
<path d="M337.614 89.6594L336.009 89.7114C336.009 89.7114 337.139 90.6127 337.614 89.6594Z" fill="#333333"/>
<path d="M351.125 86.5567C351.125 86.5567 346.534 82.9073 345.74 79.2153C345.74 79.2153 331.595 78.6753 334.987 90.1813C334.987 90.1813 330.199 80.5693 341.005 76.8893C351.811 73.2093 356.746 87.2987 352.633 93.272C352.603 93.2233 353.972 88.8487 351.125 86.5567Z" fill="#333333"/>
<path d="M336.219 79.262C335.013 80.9314 334.369 82.9414 334.383 85.0007C334.646 86.448 336.807 87.1354 336.807 87.1354L338.639 83.5414L339.144 86.3134C343.005 85.1634 344.903 82.656 345.701 79.3907L342.79 75.868C342.789 75.8674 337.321 77.8907 336.219 79.262Z" fill="#333333"/>
<path d="M344.048 95.9407C344.491 96.012 344.964 95.8627 345.285 95.5494C345.606 95.236 345.767 94.7667 345.706 94.322" stroke="#333333" stroke-width="0.5" stroke-miterlimit="10" stroke-linecap="round" stroke-linejoin="round"/>
<path opacity="0.2" d="M357.228 93.7767C357.228 93.7767 362.212 87.5927 358.309 82.3227C358.309 82.3227 361.185 84.3014 360.638 87.7167C360.21 90.398 359.041 92.5714 357.228 93.7767Z" fill="#333333"/>
<path opacity="0.2" d="M372.222 206.632C366.359 208.611 360.247 209.763 354.065 210.051C353.607 205.967 353.057 201.468 352.473 196.816C350.772 200.91 348.82 205.255 346.579 209.827C340.861 209.307 335.296 207.695 330.186 205.076C331.329 195.989 333.02 186.109 334.685 177.418C336.957 176.085 339.412 175.093 341.973 174.476C344.407 173.89 346.901 173.588 349.405 173.576C353.051 173.559 356.691 173.894 360.273 174.575C364.926 175.445 369.476 176.797 373.851 178.605C374.151 187.977 373.606 197.357 372.222 206.632Z" fill="#333333"/>
<path d="M339.3 151.091H367.759L368.533 154.761C368.533 154.761 378.989 169.229 373.689 205.309C373.689 205.309 350.79 207.955 329.223 203.33C329.223 203.33 334.064 166.261 339.121 154.159L339.3 151.091Z" fill="#333333"/>
<path d="M366.322 139.903L368.345 155.037L337.147 153.779C337.065 150.528 339.965 141.9 339.629 139.541C338.683 136.626 333.89 132.227 332.614 128.706C331.253 123.816 334.063 110.371 334.979 109.944C336.089 109.427 337.474 109.474 338.325 109.099C341.637 108.32 349.171 105.629 352.547 105.209C353.2 105.148 353.849 105.03 354.494 104.955C354.494 104.955 367.259 104.341 367.824 109.535C367.88 109.823 364.781 123.447 366.322 139.903Z" fill="#556B2F"/>
<path opacity="0.2" d="M366.076 136.691L365.822 132.547L361.093 119.67L364.798 134.83L353.057 138.943L366.076 136.691Z" fill="#333333"/>
<path opacity="0.2" d="M352.488 150.199C352.905 150.144 356.61 146.12 356.61 146.12L367.207 146.521L366.695 142.689C367.01 142.441 354.313 143.02 354.313 143.02L352.489 146.975L352.488 150.199Z" fill="#333333"/>
<path d="M363.005 106.163C363.551 106.231 365.769 104.974 369.775 110.119C373.781 115.263 378.271 134.876 378.525 137.737C378.847 141.371 376.425 143.163 374.01 143.561C366.765 144.757 353.392 144.999 353.392 144.999V138.839L366.735 135.818C366.735 135.818 359.163 117.59 360.358 112.893C361.553 108.198 363.005 106.163 363.005 106.163Z" fill="#556B2F"/>
<path d="M357.003 104.938C356.04 110.175 352.123 114.285 346.967 115.613C345.158 116.048 343.137 115.047 341.707 113.863C340.257 112.653 339.293 110.963 338.989 109.1C345.269 106.624 350.957 104.501 357.003 104.938Z" fill="#EEC1BB"/>
<path opacity="0.2" d="M366.734 135.819C366.734 135.819 368.903 135.696 369.823 136.878C369.823 136.878 369.269 134.612 366.436 135.088L366.734 135.819Z" fill="#333333"/>
<path d="M349.082 175.346V106.655H280.488V134.1C281.731 134.572 285.793 134.883 287.029 134.423C289.193 133.617 287.781 131.122 289.871 130.138C292.955 128.686 296.797 130.733 298.414 133.733C299.668 136.061 299.903 137.281 299.788 139.292C299.903 141.303 299.668 142.523 298.414 144.851C296.797 147.852 292.955 149.898 289.871 148.446C287.781 147.462 289.481 145.029 287.316 144.223C286.081 143.763 281.731 144.011 280.488 144.484V175.347H311.162C311.199 176.017 311.122 176.687 310.885 177.322C310.079 179.487 307.777 180.775 306.793 182.865C305.341 185.949 307.388 189.791 310.389 191.408C312.717 192.662 313.936 192.897 315.947 192.782C317.959 192.897 319.178 192.662 321.506 191.408C324.507 189.791 326.553 185.949 325.101 182.865C324.117 180.775 321.816 179.487 321.009 177.322C320.773 176.687 320.696 176.017 320.733 175.347L349.082 175.346Z" fill="#556B2F"/>
<path d="M352.488 175.346V106.655H283.893V134.1C285.137 134.572 286.498 134.69 287.733 134.23C289.898 133.423 291.187 131.122 293.277 130.138C296.361 128.686 300.203 130.733 301.819 133.733C303.073 136.061 303.309 137.281 303.193 139.292C303.309 141.303 303.073 142.523 301.819 144.851C300.203 147.852 296.361 149.898 293.277 148.446C291.187 147.462 289.898 145.161 287.733 144.354C286.498 143.894 285.137 144.011 283.893 144.484V175.347H314.567C314.604 176.017 314.527 176.687 314.291 177.322C313.484 179.487 311.183 180.775 310.199 182.865C308.747 185.949 310.793 189.791 313.795 191.408C316.123 192.662 317.342 192.897 319.353 192.782C321.365 192.897 322.584 192.662 324.912 191.408C327.913 189.791 329.959 185.949 328.507 182.865C327.523 180.775 325.222 179.487 324.415 177.322C324.179 176.687 324.102 176.017 324.139 175.347L352.488 175.346Z" fill="#556B2F"/>
<g opacity="0.3">
<path d="M352.488 175.346V106.655H283.893V134.1C285.137 134.572 286.498 134.69 287.733 134.23C289.898 133.423 291.187 131.122 293.277 130.138C296.361 128.686 300.203 130.733 301.819 133.733C303.073 136.061 303.309 137.281 303.193 139.292C303.309 141.303 303.073 142.523 301.819 144.851C300.203 147.852 296.361 149.898 293.277 148.446C291.187 147.462 289.898 145.161 287.733 144.354C286.498 143.894 285.137 144.011 283.893 144.484V175.347H314.567C314.604 176.017 314.527 176.687 314.291 177.322C313.484 179.487 311.183 180.775 310.199 182.865C308.747 185.949 310.793 189.791 313.795 191.408C316.123 192.662 317.342 192.897 319.353 192.782C321.365 192.897 322.584 192.662 324.912 191.408C327.913 189.791 329.959 185.949 328.507 182.865C327.523 180.775 325.222 179.487 324.415 177.322C324.179 176.687 324.102 176.017 324.139 175.347L352.488 175.346Z" fill="white"/>
</g>
<path d="M352.488 140.043C352.488 140.043 347.884 141.194 347.379 142.277C346.875 143.361 348.579 143.278 348.579 143.278C348.579 143.278 346.71 143.485 346.691 144.289C346.667 145.256 348.451 145.161 348.451 145.161C348.451 145.161 346.933 145.392 346.963 146.109C346.995 146.853 349.017 146.889 349.017 146.889C349.017 146.889 347.978 147.255 348.281 147.741C348.585 148.228 352.874 148.387 354.137 147.585C355.399 146.782 355.405 141.271 355.159 140.068C354.912 138.865 354 138.217 352.489 136.39V140.043H352.488Z" fill="#EEC1BB"/>
<path opacity="0.2" d="M348.583 143.368C348.585 143.368 348.588 143.367 348.591 143.367L351.831 142.851C351.875 142.844 351.905 142.799 351.898 142.749C351.891 142.7 351.849 142.665 351.807 142.672L348.567 143.188C348.523 143.195 348.493 143.241 348.5 143.29C348.505 143.337 348.542 143.37 348.583 143.368Z" fill="#333333"/>
<path opacity="0.2" d="M348.548 145.247H348.55L351.702 144.999C351.746 144.995 351.779 144.952 351.775 144.903C351.771 144.853 351.739 144.823 351.689 144.819L348.537 145.067C348.493 145.07 348.46 145.113 348.464 145.163C348.467 145.212 348.505 145.249 348.548 145.247Z" fill="#333333"/>
<path opacity="0.2" d="M349.128 146.975L351.475 146.857C351.519 146.855 351.553 146.813 351.551 146.763C351.548 146.713 351.511 146.675 351.467 146.677L349.119 146.794C349.075 146.796 349.042 146.839 349.045 146.888C349.046 146.938 349.084 146.977 349.128 146.975Z" fill="#333333"/>
<path d="M299.837 138.225C299.837 138.225 304.768 139.604 305.272 140.687C305.777 141.77 304.073 141.687 304.073 141.687C304.073 141.687 305.941 141.894 305.961 142.699C305.984 143.665 304.2 143.57 304.2 143.57C304.2 143.57 305.719 143.801 305.688 144.519C305.656 145.263 303.635 145.299 303.635 145.299C303.635 145.299 304.673 145.663 304.37 146.151C304.067 146.637 299.777 146.797 298.515 145.994C297.252 145.191 297.247 139.68 297.493 138.477C297.739 137.275 297.839 137.473 299.35 135.647L299.625 136.669C299.7 136.947 299.75 137.231 299.775 137.518L299.837 138.225Z" fill="#EEC1BB"/>
<path opacity="0.2" d="M304.069 141.777C304.066 141.777 304.064 141.777 304.061 141.777L300.82 141.261C300.777 141.253 300.747 141.208 300.753 141.159C300.76 141.109 300.803 141.074 300.844 141.081L304.085 141.597C304.128 141.605 304.158 141.65 304.151 141.699C304.145 141.747 304.109 141.779 304.069 141.777Z" fill="#333333"/>
<path opacity="0.2" d="M304.103 143.657H304.101L300.949 143.409C300.905 143.405 300.873 143.362 300.877 143.313C300.88 143.263 300.912 143.233 300.963 143.229L304.115 143.477C304.159 143.48 304.191 143.523 304.187 143.573C304.183 143.621 304.146 143.659 304.103 143.657Z" fill="#333333"/>
<path opacity="0.2" d="M303.523 145.384L301.176 145.267C301.132 145.265 301.099 145.222 301.101 145.173C301.103 145.123 301.141 145.084 301.185 145.086L303.532 145.203C303.576 145.205 303.609 145.248 303.607 145.298C303.605 145.347 303.567 145.387 303.523 145.384Z" fill="#333333"/>
<path d="M198.787 291.172L205.595 291.839L210.627 274.602L200.269 273.475L198.787 291.172Z" fill="#EEC1BB"/>
<path d="M206.581 288.832H204.151C203.601 288.832 203.092 289.11 202.767 289.554C201.365 291.468 200.312 290.745 198.788 288.945C197.819 288.832 197.558 289.945 197.479 290.243L195.661 296.853C195.503 297.405 195.823 297.98 196.375 298.138C196.473 298.166 196.575 298.179 196.677 298.178C199.629 298.178 201.025 298.178 204.699 298.178H215.934C218.997 298.178 219.631 295.091 218.37 294.806C212.697 293.552 208.679 291.883 206.926 290.233C206.601 289.943 206.935 289.727 206.581 288.832Z" fill="#333333"/>
<path d="M211.855 290.711C212.111 290.527 212.264 290.233 212.268 289.918C212.289 289.749 212.213 289.583 212.07 289.489C211.308 288.95 208.269 290.37 207.928 290.537C207.89 290.55 207.86 290.58 207.847 290.618C207.821 290.688 207.858 290.765 207.928 290.791C208.675 290.967 209.438 291.066 210.205 291.084C210.781 291.139 211.359 291.009 211.855 290.711ZM211.879 289.719C211.941 289.757 211.973 289.831 211.959 289.902C211.946 290.129 211.836 290.341 211.657 290.481C210.967 290.997 209.301 290.775 208.404 290.608C209.665 290.053 211.459 289.426 211.879 289.719Z" fill="#556B2F"/>
<path d="M208.031 290.823C208.944 290.442 210.856 288.942 210.753 288.149C210.737 287.982 210.618 287.784 210.205 287.728C208.539 287.537 207.825 290.529 207.825 290.656C207.808 290.707 207.824 290.763 207.865 290.799C207.895 290.808 207.929 290.808 207.96 290.799L208.031 290.823ZM210.149 287.974C210.459 288.006 210.459 288.117 210.459 288.157C210.546 288.641 209.157 289.887 208.165 290.41C208.371 289.712 208.983 287.966 210.038 287.966L210.149 287.974Z" fill="#556B2F"/>
<path d="M208.269 290.708C207.431 290.823 206.655 291.323 206.205 292.038" stroke="#556B2F" stroke-width="0.5" stroke-miterlimit="10" stroke-linecap="round" stroke-linejoin="round"/>
<path d="M209.779 291.845C208.942 291.959 208.165 292.459 207.715 293.174" stroke="#556B2F" stroke-width="0.5" stroke-miterlimit="10" stroke-linecap="round" stroke-linejoin="round"/>
<path d="M211.658 292.801C210.821 292.915 210.044 293.416 209.594 294.131" stroke="#556B2F" stroke-width="0.5" stroke-miterlimit="10" stroke-linecap="round" stroke-linejoin="round"/>
<path opacity="0.3" d="M207.967 283.711L207.35 285.825L199.338 284.595L199.483 282.862L207.967 283.711Z" fill="#333333"/>
<path d="M238.417 291.172L245.225 291.839L250.256 274.602L239.899 273.475L238.417 291.172Z" fill="#EEC1BB"/>
<path d="M246.211 288.832H243.78C243.23 288.832 242.721 289.11 242.396 289.554C240.995 291.468 239.941 290.745 238.417 288.945C237.447 288.832 237.187 289.945 237.107 290.243L235.29 296.853C235.132 297.405 235.451 297.98 236.003 298.138C236.101 298.166 236.203 298.179 236.305 298.178C239.257 298.178 240.653 298.178 244.327 298.178H255.563C258.625 298.178 259.26 295.091 257.999 294.806C252.325 293.552 248.308 291.883 246.555 290.233C246.23 289.943 246.564 289.727 246.211 288.832Z" fill="#333333"/>
<path d="M251.485 290.711C251.741 290.527 251.894 290.233 251.898 289.918C251.919 289.749 251.842 289.583 251.699 289.489C250.937 288.95 247.898 290.37 247.557 290.537C247.519 290.55 247.489 290.58 247.476 290.618C247.45 290.688 247.487 290.765 247.557 290.791C248.304 290.967 249.067 291.066 249.834 291.084C250.41 291.139 250.988 291.009 251.485 290.711ZM251.508 289.719C251.57 289.757 251.602 289.831 251.588 289.902C251.575 290.129 251.465 290.341 251.286 290.481C250.596 290.997 248.93 290.775 248.033 290.608C249.295 290.053 251.088 289.426 251.508 289.719Z" fill="#556B2F"/>
<path d="M247.661 290.823C248.573 290.442 250.485 288.942 250.382 288.149C250.366 287.982 250.247 287.784 249.835 287.728C248.168 287.537 247.454 290.529 247.454 290.656C247.437 290.707 247.453 290.763 247.494 290.799C247.525 290.808 247.558 290.808 247.589 290.799L247.661 290.823ZM249.779 287.974C250.089 288.006 250.089 288.117 250.089 288.157C250.176 288.641 248.787 289.887 247.795 290.41C248.002 289.712 248.613 287.966 249.668 287.966L249.779 287.974Z" fill="#556B2F"/>
<path d="M247.898 290.708C247.061 290.823 246.284 291.323 245.834 292.038" stroke="#556B2F" stroke-width="0.5" stroke-miterlimit="10" stroke-linecap="round" stroke-linejoin="round"/>
<path d="M249.408 291.845C248.571 291.959 247.794 292.459 247.344 293.174" stroke="#556B2F" stroke-width="0.5" stroke-miterlimit="10" stroke-linecap="round" stroke-linejoin="round"/>
<path d="M251.288 292.801C250.451 292.915 249.674 293.416 249.224 294.131" stroke="#556B2F" stroke-width="0.5" stroke-miterlimit="10" stroke-linecap="round" stroke-linejoin="round"/>
<path opacity="0.3" d="M247.597 283.711L246.98 285.825L238.968 284.595L239.113 282.862L247.597 283.711Z" fill="#333333"/>
<path d="M252.968 161.283C252.968 161.283 258.611 186.201 261.3 207.905C262.119 214.52 262.276 223.366 260.828 229.879L249.952 283.947L236.266 282.577C238.417 259.258 241.414 230.497 242.273 218.261C239.262 203.922 232.847 186.564 226.541 169.302L252.968 161.283Z" fill="#556B2F"/>
<g opacity="0.2">
<path d="M252.968 161.283C252.968 161.283 258.611 186.201 261.3 207.905C262.119 214.52 262.276 223.366 260.828 229.879L249.952 283.947L236.266 282.577C238.417 259.258 241.414 230.497 242.273 218.261C239.262 203.922 232.847 186.564 226.541 169.302L252.968 161.283Z" fill="#333333"/>
</g>
<path d="M207.997 222.615C208.307 221.267 208.801 218.527 209.408 214.915C209.39 214.911 209.369 214.906 209.351 214.902C209.796 210.124 210.619 187.963 212.13 173.829C213.291 164.825 215.593 158.733 217.909 155.749C218.029 155.596 218.138 155.457 218.238 155.333C218.623 154.852 218.857 154.588 218.857 154.588C219.297 154.698 219.735 154.801 220.171 154.896C220.334 154.932 220.496 154.967 220.657 155.001C237.016 158.421 251.411 154.121 251.411 154.121C252.917 157.841 254.042 165.771 255.141 173.994C253.429 175.872 245.92 178.308 237.305 179.923L234.849 191.033C233.556 197.922 231.896 204.679 230.486 210.763L229.013 217.426C228.923 217.863 228.835 218.297 228.752 218.722C228.005 222.553 210.217 284.272 210.217 284.272L198.629 283.593C198.63 283.593 203.807 240.876 207.997 222.615Z" fill="#556B2F"/>
<path opacity="0.2" d="M207.997 222.615C208.307 221.267 208.801 218.527 209.408 214.915C209.39 214.911 209.369 214.906 209.351 214.902C209.796 210.124 210.619 187.963 212.13 173.829C213.291 164.825 215.593 158.733 217.909 155.749C218.029 155.596 218.138 155.457 218.238 155.333C218.623 154.852 218.857 154.588 218.857 154.588C219.297 154.698 219.735 154.801 220.171 154.896C220.334 154.932 220.496 154.967 220.657 155.001C237.016 158.421 251.411 154.121 251.411 154.121C252.917 157.841 254.042 165.771 255.141 173.994C253.429 175.872 245.92 178.308 237.305 179.923L234.849 191.033C233.556 197.922 231.896 204.679 230.486 210.763L229.013 217.426C228.923 217.863 228.835 218.297 228.752 218.722C228.005 222.553 210.217 284.272 210.217 284.272L198.629 283.593C198.63 283.593 203.807 240.876 207.997 222.615Z" fill="#333333"/>
<path opacity="0.2" d="M234.691 192.06C234.646 192.287 239.999 172.832 239.999 172.832C239.999 172.832 244.505 190.201 237.648 201.065L234.691 192.06Z" fill="#333333"/>
<path d="M223.175 104.285C223.175 104.285 225.896 106.378 229.401 109.398C230.131 110.027 230.935 110.571 231.785 111.023C234.082 112.243 236.175 112.941 236.742 111.833C236.868 111.59 236.965 111.326 237.037 111.05C237.518 109.196 237.321 106.59 235.822 105.397C234.133 104.053 233.318 102.902 233.623 101.081C233.783 100.049 234.156 98.984 234.593 97.9486L233.263 96.394L226.309 89.376C226.483 94.062 226.838 101.741 223.175 104.285Z" fill="#EEC1BB"/>
<path opacity="0.2" d="M233.566 101.481C231.653 100.345 229.555 98.376 229.807 96.126C229.919 95.1787 230.123 94.2807 230.35 93.7053L234.235 98.8487C233.915 99.678 233.799 100.226 233.566 101.481Z" fill="#333333"/>
<path d="M224.34 81.8466C224.995 88.9913 225.121 92.0213 228.808 95.7679C234.354 101.403 242.886 99.5073 244.355 92.4253C245.677 86.0506 244.385 75.4373 237.371 72.4346C230.46 69.4766 223.686 74.7019 224.34 81.8466Z" fill="#EEC1BB"/>
<path d="M233.24 84.1C233.277 84.7686 233.688 85.3193 234.158 85.3286C234.628 85.3386 234.979 84.8046 234.941 84.1353C234.904 83.4666 234.493 82.916 234.023 82.9066C233.554 82.8966 233.203 83.4306 233.24 84.1Z" fill="#333333"/>
<path d="M240.645 83.9986C240.682 84.6466 241.093 85.1799 241.561 85.1899C242.029 85.1999 242.379 84.6826 242.341 84.0339C242.304 83.3859 241.893 82.8526 241.425 82.8426C240.956 82.8326 240.607 83.3499 240.645 83.9986Z" fill="#333333"/>
<path d="M232.104 81.54C232.195 81.55 232.287 81.524 232.358 81.4587C233.459 80.4393 234.698 80.7973 234.713 80.8013C234.897 80.8547 235.082 80.7507 235.124 80.5633C235.165 80.376 235.049 80.1793 234.863 80.1233C234.798 80.104 233.243 79.6533 231.877 80.9187C231.741 81.0447 231.738 81.268 231.871 81.4173C231.935 81.4887 232.019 81.5307 232.104 81.54Z" fill="#333333"/>
<path d="M242.931 81.184C243.015 81.2046 243.105 81.194 243.181 81.146C243.339 81.048 243.379 80.8313 243.273 80.6626C242.203 78.9713 240.613 78.8686 240.545 78.8653C240.355 78.8553 240.204 79.0046 240.207 79.2C240.211 79.3946 240.367 79.5606 240.557 79.5713C240.62 79.5746 241.853 79.6726 242.703 81.0173C242.757 81.1053 242.841 81.1626 242.931 81.184Z" fill="#333333"/>
<path d="M227.385 86.3293C227.385 86.3293 229.589 82.9966 228.681 76.5073C228.529 75.4193 229.217 74.3893 230.295 74.18C233.378 73.5813 237.499 69.6926 242.527 77.416C242.527 77.416 240.129 68.1653 226.089 71.892C213.595 75.2086 222.149 85.7986 223.438 86.8873C224.727 87.9766 227.385 86.3293 227.385 86.3293Z" fill="#333333"/>
<path d="M222.179 87.6699C223.023 89.1353 224.394 90.0553 225.651 90.3706C227.543 90.8446 228.519 87.8039 227.873 85.9093C227.292 84.2039 225.434 83.0746 223.593 83.4466C221.78 83.8133 221.213 85.9946 222.179 87.6699Z" fill="#EEC1BB"/>
<path d="M238.843 90.9786C238.262 91.874 237.563 93.6086 237.563 93.6086C237.394 93.5733 237.225 93.5386 237.059 93.4946C234.785 92.962 233.905 91.964 233.62 91.018C233.466 90.5 233.497 89.9933 233.574 89.5927C233.659 89.128 233.825 88.816 233.825 88.816C234.862 89.8186 236.945 90.478 238.071 90.784C238.541 90.918 238.843 90.9786 238.843 90.9786Z" fill="#333333"/>
<path d="M238.071 90.7853L237.673 91.5513C235.532 91.0447 234.093 90.4007 233.573 89.594C233.658 89.1293 233.824 88.8173 233.824 88.8173C234.861 89.8193 236.944 90.4793 238.071 90.7853Z" fill="white"/>
<path d="M237.058 93.4953C234.784 92.9627 233.904 91.9647 233.619 91.0187C234.387 91.23 235.29 91.57 236.028 92.1107C236.594 92.5213 236.893 93.0213 237.058 93.4953Z" fill="#DC5753"/>
<path d="M238.724 83.8033C238.724 83.8033 239.842 86.478 241.103 88.1453C241.323 88.4366 241.187 88.8619 240.844 88.9879C239.962 89.3126 238.929 89.0186 238.929 89.0186L238.724 83.8033Z" fill="#D4827D"/>
<path d="M233.88 82.8906L235.52 82.5033C235.52 82.5033 234.623 83.726 233.88 82.8906Z" fill="#333333"/>
<path d="M241.256 82.86L242.896 82.4727C242.896 82.4727 241.999 83.6953 241.256 82.86Z" fill="#333333"/>
<path d="M243.778 80.438C243.778 80.438 248.105 75.3186 245.218 71.0993C244.133 69.5133 242.141 69.2773 240.383 68.5026C236.326 66.7153 233.038 66.354 227.861 71.4286C222.474 76.708 221.499 78.486 227.441 84.99C227.441 84.99 226.8 84.1393 228.997 82.2046C231.193 80.2693 233.617 78.548 232.441 76.6713C232.441 76.6713 234.267 77.376 234.397 79.1133L237.609 78.236C237.609 78.236 237.47 76.994 236.62 75.752C236.62 75.752 238.285 76.7326 238.825 78.1706L241.604 78.694C241.604 78.694 241.196 76.1446 240.411 75.2293C240.411 75.228 242.956 77.8453 243.778 80.438Z" fill="#333333"/>
<path opacity="0.2" d="M226.424 87.46C226.365 86.786 226.051 86.1366 225.561 85.6706C225.071 85.2046 224.407 84.9246 223.73 84.9" stroke="#333333" stroke-width="0.5" stroke-miterlimit="10" stroke-linecap="round" stroke-linejoin="round"/>
<path d="M260.393 146.75C259.991 146.44 259.61 146.097 259.253 145.725C258.949 145.407 258.738 144.997 258.811 144.997C258.795 144.951 258.777 144.907 258.756 144.863L258.627 144.566L258.315 143.766C258.103 143.192 257.901 142.566 257.699 141.931C257.275 140.669 256.88 139.357 256.494 138.034C255.712 135.378 254.967 132.691 254.213 129.995L252.829 124.341C252.629 123.425 252.319 122.09 251.906 120.567L251.905 120.563C250.779 116.41 248.899 110.871 246.441 108.668C242.624 105.748 240.188 109.35 238.617 113.095C237.11 116.69 240.831 126.513 240.831 126.513L245.365 126.185C245.939 128.275 246.54 130.354 247.132 132.476C247.905 135.245 248.824 137.962 249.744 140.679C250.213 142.043 250.701 143.407 251.234 144.781C251.547 145.479 251.832 146.165 252.154 146.894C252.311 147.253 252.485 147.633 252.678 148.012L253.018 148.648C253.161 148.913 253.321 149.167 253.496 149.407C254.168 150.271 254.995 150.97 255.924 151.457C256.639 151.858 257.392 152.171 258.168 152.391C259.581 152.799 261.041 152.976 262.5 152.914L263.319 148.956C262.343 148.227 261.267 147.468 260.393 146.75Z" fill="#333333"/>
<path opacity="0.5" d="M260.393 146.75C259.991 146.44 259.61 146.097 259.253 145.725C258.949 145.407 258.738 144.997 258.811 144.997C258.795 144.951 258.777 144.907 258.756 144.863L258.627 144.566L258.315 143.766C258.103 143.192 257.901 142.566 257.699 141.931C257.275 140.669 256.88 139.357 256.494 138.034C255.712 135.378 254.967 132.691 254.213 129.995L252.829 124.341C252.629 123.425 252.319 122.09 251.906 120.567L251.905 120.563C250.779 116.41 248.899 110.871 246.441 108.668C242.624 105.748 240.188 109.35 238.617 113.095C237.11 116.69 240.831 126.513 240.831 126.513L245.365 126.185C245.939 128.275 246.54 130.354 247.132 132.476C247.905 135.245 248.824 137.962 249.744 140.679C250.213 142.043 250.701 143.407 251.234 144.781C251.547 145.479 251.832 146.165 252.154 146.894C252.311 147.253 252.485 147.633 252.678 148.012L253.018 148.648C253.161 148.913 253.321 149.167 253.496 149.407C254.168 150.271 254.995 150.97 255.924 151.457C256.639 151.858 257.392 152.171 258.168 152.391C259.581 152.799 261.041 152.976 262.5 152.914L263.319 148.956C262.343 148.227 261.267 147.468 260.393 146.75Z" fill="white"/>
<g opacity="0.3">
<path d="M247.279 115.048C248.045 116.356 248.307 117.101 248.787 118.609C249.267 120.116 249.811 128.257 247.063 130.663V125.019C247.163 121.561 247.178 118.506 247.279 115.048Z" fill="#333333"/>
</g>
<path d="M213.471 125.344L209.215 110.832C211.908 106.814 225.229 103.726 225.229 103.726L232.057 106.122L234.006 104.206C234.006 104.206 237.379 104.959 240.267 105.901C244.123 107.158 246.208 108.169 247.127 110.309C247.127 110.309 248.735 115.049 247.768 124.816C247.502 127.502 247.804 141.465 248.553 146.079L253.096 160.457C237.06 172.946 214.613 161.284 214.613 161.284C215.333 159.079 217.735 152.308 218.061 150.153C217.826 147.403 218.153 143.163 216.989 138.349C216.764 137.419 213.861 126.247 213.471 125.344Z" fill="#333333"/>
<path opacity="0.5" d="M213.471 125.344L209.215 110.832C211.908 106.814 225.229 103.726 225.229 103.726L232.057 106.122L234.006 104.206C234.006 104.206 237.379 104.959 240.267 105.901C244.123 107.158 246.208 108.169 247.127 110.309C247.127 110.309 248.735 115.049 247.768 124.816C247.502 127.502 247.804 141.465 248.553 146.079L253.096 160.457C237.06 172.946 214.613 161.284 214.613 161.284C215.333 159.079 217.735 152.308 218.061 150.153C217.826 147.403 218.153 143.163 216.989 138.349C216.764 137.419 213.861 126.247 213.471 125.344Z" fill="white"/>
<path d="M262.19 140.973C262.689 134.933 267.346 130.067 273.357 129.303L272.127 131.353L274.475 129.959L263.707 143.464L262.19 140.973Z" fill="#556B2F"/>
<path opacity="0.8" d="M262.19 140.973C262.689 134.933 267.346 130.067 273.357 129.303L272.127 131.353L274.475 129.959L263.707 143.464L262.19 140.973Z" fill="white"/>
<path d="M245.321 129.887L249.023 129.775L266.743 135.784L250.593 160.457L234.698 156.488C233.792 156.237 233.261 155.299 233.512 154.393C233.549 154.259 233.603 154.129 233.673 154.007L240.092 142.399C240.22 142.169 240.22 141.89 240.092 141.66L239.221 140.111C239.037 139.794 239.037 139.403 239.221 139.086L243.527 131.016C243.892 130.357 244.569 129.931 245.321 129.887Z" fill="#556B2F"/>
<path d="M266.743 135.784L276.834 129.303L260.242 153.955L250.592 160.456L266.743 135.784Z" fill="#556B2F"/>
<path opacity="0.2" d="M266.743 135.784L276.834 129.303L260.242 153.955L250.592 160.456L266.743 135.784Z" fill="#333333"/>
<path d="M264.762 147.249C264.762 147.249 260.841 146.221 259.979 146.893C259.117 147.566 260.297 148.205 260.297 148.205C260.297 148.205 258.947 147.597 258.544 148.245C258.061 149.021 259.3 149.685 259.3 149.685C259.3 149.685 258.172 149.243 257.845 149.839C257.506 150.458 258.841 151.326 258.841 151.326C258.841 151.326 257.969 151.192 257.937 151.714C257.904 152.236 260.695 154.145 261.929 154.016C263.163 153.887 265.834 149.403 266.251 148.322C266.669 147.241 266.626 146.399 265.834 145.647L264.762 147.249Z" fill="#EEC1BB"/>
<path opacity="0.2" d="M260.256 148.28C260.258 148.281 260.259 148.282 260.261 148.283L262.679 149.207C262.711 149.219 262.753 149.195 262.773 149.152C262.792 149.109 262.781 149.063 262.749 149.051L260.332 148.127C260.299 148.115 260.257 148.139 260.238 148.182C260.219 148.223 260.228 148.265 260.256 148.28Z" fill="#333333"/>
<path opacity="0.2" d="M259.323 149.795L259.325 149.796L261.553 150.902C261.584 150.917 261.627 150.896 261.648 150.854C261.67 150.812 261.663 150.775 261.631 150.75L259.403 149.644C259.372 149.629 259.329 149.65 259.308 149.692C259.286 149.733 259.293 149.779 259.323 149.795Z" fill="#333333"/>
<path opacity="0.2" d="M258.875 151.442L260.501 152.321C260.532 152.337 260.575 152.317 260.597 152.275C260.62 152.234 260.613 152.187 260.583 152.17L258.956 151.291C258.925 151.275 258.883 151.295 258.86 151.337C258.837 151.379 258.844 151.426 258.875 151.442Z" fill="#333333"/>
<path d="M236.522 104.82L233.563 101.954L232.057 106.122L225.482 100.882L222.148 104.539L230.405 110.293L232.057 106.639L236.522 109.989V104.82Z" fill="#333333"/>
<path opacity="0.3" d="M236.522 104.82C236.732 105.143 236.522 109.989 236.522 109.989L232.057 106.639L230.405 110.293L222.47 104.82L230.592 111.897L232.056 107.6L237.036 111.897L236.522 104.82Z" fill="#333333"/>
<path opacity="0.3" d="M240.747 127.296L218.003 149.211V144.88C218.003 144.88 238.476 126.125 238.724 126.099C238.972 126.071 240.747 127.296 240.747 127.296Z" fill="#333333"/>
<path opacity="0.3" d="M219.385 129.03L216.921 118.869L216.433 130.663L219.385 129.03Z" fill="#333333"/>
<path d="M223.467 90.184C223.467 90.9387 224.079 91.5507 224.833 91.5507C225.588 91.5507 226.2 90.9387 226.2 90.184C226.2 89.4293 225.588 88.8173 224.833 88.8173C224.078 88.8167 223.467 89.4287 223.467 90.184Z" fill="#556B2F"/>
<path d="M209.215 110.831C209.215 110.831 206.14 113.825 205.105 124.039C204.362 131.371 202.483 147.18 208.181 149.21C213.878 151.24 238.724 127.485 238.724 127.485L234.691 120.561L216.433 130.662C216.433 130.662 218.295 113.917 215.077 112.387C211.859 110.857 209.215 110.831 209.215 110.831Z" fill="#333333"/>
<path opacity="0.5" d="M209.215 110.831C209.215 110.831 206.14 113.825 205.105 124.039C204.362 131.371 202.483 147.18 208.181 149.21C213.878 151.24 238.724 127.485 238.724 127.485L234.691 120.561L216.433 130.662C216.433 130.662 218.295 113.917 215.077 112.387C211.859 110.857 209.215 110.831 209.215 110.831Z" fill="white"/>
<path d="M236.251 120.049C236.251 120.049 238.647 115.249 239.785 115.037C240.923 114.826 241.839 115.205 241.839 115.205C241.839 115.205 249.585 110.642 250.101 111.843C250.38 112.493 248.66 113.925 244.967 116.031C244.967 116.031 247.093 116.814 246.237 118.06C246.237 118.06 247.802 118.778 246.967 120.333C246.967 120.333 247.685 121.707 246.782 122.585C245.879 123.462 241.623 125.884 239.158 126.245C236.693 126.607 235.256 121.817 235.256 121.817L236.251 120.049Z" fill="#EEC1BB"/>
<path d="M262.418 257.194C264.508 258.178 265.797 260.479 267.961 261.286C269.177 261.739 270.517 261.633 271.745 261.179V230.293H242.184C242.147 229.623 242.224 228.953 242.461 228.318C243.267 226.153 245.569 224.865 246.553 222.775C248.005 219.691 245.958 215.849 242.957 214.232C240.629 212.978 239.41 212.743 237.399 212.858C235.387 212.743 234.168 212.978 231.84 214.232C228.839 215.849 226.792 219.691 228.245 222.775C229.229 224.865 231.53 226.153 232.337 228.318C232.573 228.953 232.65 229.623 232.613 230.293H203.053V298.985H271.745V271.517C270.517 271.063 269.178 270.957 267.961 271.409C265.797 272.216 264.499 274.499 262.418 275.501C259.642 276.837 255.505 274.902 253.875 271.906C252.612 269.583 252.386 268.359 252.501 266.347C252.386 264.336 252.621 263.117 253.875 260.789C255.492 257.789 259.334 255.742 262.418 257.194Z" fill="#556B2F"/>
<path opacity="0.4" d="M262.418 257.194C264.508 258.178 265.797 260.479 267.961 261.286C269.177 261.739 270.517 261.633 271.745 261.179V230.293H242.184C242.147 229.623 242.224 228.953 242.461 228.318C243.267 226.153 245.569 224.865 246.553 222.775C248.005 219.691 245.958 215.849 242.957 214.232C240.629 212.978 239.41 212.743 237.399 212.858C235.387 212.743 234.168 212.978 231.84 214.232C228.839 215.849 226.792 219.691 228.245 222.775C229.229 224.865 231.53 226.153 232.337 228.318C232.573 228.953 232.65 229.623 232.613 230.293H203.053V298.985H271.745V271.517C270.517 271.063 269.178 270.957 267.961 271.409C265.797 272.216 264.499 274.499 262.418 275.501C259.642 276.837 255.505 274.902 253.875 271.906C252.612 269.583 252.386 268.359 252.501 266.347C252.386 264.336 252.621 263.117 253.875 260.789C255.492 257.789 259.334 255.742 262.418 257.194Z" fill="#333333"/>
<path d="M265.786 257.194C267.876 258.178 269.164 260.479 271.329 261.286C272.545 261.739 273.884 261.633 275.112 261.179V230.293H245.552C245.515 229.623 245.592 228.953 245.828 228.318C246.635 226.153 248.936 224.865 249.92 222.775C251.372 219.691 249.326 215.849 246.325 214.232C243.997 212.978 242.778 212.743 240.766 212.858C238.755 212.743 237.536 212.978 235.208 214.232C232.206 215.849 230.16 219.691 231.612 222.775C232.596 224.865 234.898 226.153 235.704 228.318C235.941 228.953 236.018 229.623 235.981 230.293H206.421V298.985H275.112V271.517C273.884 271.063 272.545 270.957 271.329 271.409C269.164 272.216 267.867 274.499 265.786 275.501C263.01 276.837 258.872 274.902 257.243 271.906C255.98 269.583 255.754 268.359 255.869 266.347C255.754 264.336 255.989 263.117 257.243 260.789C258.86 257.789 262.702 255.742 265.786 257.194Z" fill="#556B2F"/>
<path opacity="0.4" d="M263.707 275.979C263.707 275.979 266.085 280.242 270.171 279.887C274.256 279.531 275.112 277.755 275.112 277.755L275.055 271.893L265.941 275.383C265.312 275.899 264.559 276.076 263.707 275.979Z" fill="#333333"/>
<path d="M348.295 239.72L371.775 230.698L385.328 217.559C385.704 217.123 389.635 210.345 389.635 210.345L396.287 224.595C396.287 224.595 379.746 241.216 373.688 243.151C368.791 244.715 351.456 248.963 351.456 248.963L348.295 239.72Z" fill="#556B2F"/>
<path opacity="0.4" d="M362.688 246.145C362.688 246.145 365.519 235.048 371.847 232.739C378.175 230.431 386.355 234.051 386.121 234.207C385.886 234.363 379.034 240.743 378.8 240.821C378.625 240.879 369.915 243.95 365.407 245.439L362.688 246.145Z" fill="#333333"/>
<path d="M320.06 230.647C320.023 231.317 320.1 231.987 320.337 232.623C321.143 234.787 323.445 236.076 324.429 238.166C325.881 241.25 323.834 245.092 320.833 246.709C318.505 247.963 317.286 248.198 315.275 248.083C313.263 248.198 312.044 247.962 309.716 246.709C306.715 245.092 304.669 241.25 306.121 238.166C307.105 236.076 309.406 234.787 310.213 232.623C310.449 231.987 310.526 231.317 310.489 230.647H279.872V261.51C278.629 261.983 277.267 262.1 276.032 261.64C273.867 260.833 272.579 258.532 270.489 257.548C267.405 256.096 263.563 258.143 261.946 261.143C260.692 263.471 260.457 264.691 260.572 266.702C260.457 268.713 260.693 269.933 261.946 272.261C263.563 275.261 267.405 277.308 270.489 275.856C272.579 274.872 273.867 272.571 276.032 271.764C277.267 271.304 278.629 271.421 279.872 271.894V299.339L348.326 299.645V230.953L320.06 230.647Z" fill="#333333"/>
<g opacity="0.4">
<path d="M320.06 230.647C320.023 231.317 320.1 231.987 320.337 232.623C321.143 234.787 323.445 236.076 324.429 238.166C325.881 241.25 323.834 245.092 320.833 246.709C318.505 247.963 317.286 248.198 315.275 248.083C313.263 248.198 312.044 247.962 309.716 246.709C306.715 245.092 304.669 241.25 306.121 238.166C307.105 236.076 309.406 234.787 310.213 232.623C310.449 231.987 310.526 231.317 310.489 230.647H279.872V261.51C278.629 261.983 277.267 262.1 276.032 261.64C273.867 260.833 272.579 258.532 270.489 257.548C267.405 256.096 263.563 258.143 261.946 261.143C260.692 263.471 260.457 264.691 260.572 266.702C260.457 268.713 260.693 269.933 261.946 272.261C263.563 275.261 267.405 277.308 270.489 275.856C272.579 274.872 273.867 272.571 276.032 271.764C277.267 271.304 278.629 271.421 279.872 271.894V299.339L348.326 299.645V230.953L320.06 230.647Z" fill="#333333"/>
</g>
<path d="M323.09 230.647C323.053 231.317 323.13 231.987 323.367 232.623C324.173 234.787 326.475 236.076 327.459 238.166C328.911 241.25 326.864 245.092 323.863 246.709C321.535 247.963 320.316 248.198 318.305 248.083C316.293 248.198 315.074 247.962 312.746 246.709C309.745 245.092 307.699 241.25 309.151 238.166C310.135 236.076 312.436 234.787 313.243 232.623C313.479 231.987 313.556 231.317 313.519 230.647H282.902V261.51C281.659 261.983 280.297 262.1 279.062 261.64C276.897 260.833 275.609 258.532 273.519 257.548C270.435 256.096 266.593 258.143 264.976 261.143C263.722 263.471 263.487 264.691 263.602 266.702C263.487 268.713 263.723 269.933 264.976 272.261C266.593 275.261 270.435 277.308 273.519 275.856C275.609 274.872 276.897 272.571 279.062 271.764C280.297 271.304 281.659 271.421 282.902 271.894V299.339L351.356 299.645V230.953L323.09 230.647Z" fill="#333333"/>
<path d="M371.307 276.951L382.074 276.3C380.351 285.786 378.58 291.939 379.334 296.809L374.994 299.711L370.975 295.759C370.975 295.759 370.233 288.005 371.307 276.951Z" fill="#E9B376"/>
<path d="M370.329 289.103L374.241 289.149C376.134 292.427 377.444 291.655 379.45 289.342C380.586 289.223 380.876 290.529 380.965 290.88L383.001 298.641C383.178 299.289 382.796 299.959 382.148 300.136C382.033 300.167 381.913 300.182 381.794 300.179C378.339 300.138 376.704 300.119 372.404 300.069L359.253 299.914C355.667 299.872 354.967 296.25 356.447 295.933C363.105 294.544 367.831 292.645 369.906 290.737C370.291 290.403 369.903 290.145 370.329 289.103Z" fill="#556B2F"/>
<path d="M368.328 291.275C369.307 291.421 370.209 292.017 370.726 292.86" stroke="#333333" stroke-width="0.5" stroke-miterlimit="10" stroke-linecap="round" stroke-linejoin="round"/>
<path d="M366.544 292.585C367.523 292.731 368.425 293.327 368.942 294.17" stroke="#333333" stroke-width="0.5" stroke-miterlimit="10" stroke-linecap="round" stroke-linejoin="round"/>
<path d="M364.331 293.679C365.309 293.824 366.211 294.42 366.729 295.263" stroke="#333333" stroke-width="0.5" stroke-miterlimit="10" stroke-linecap="round" stroke-linejoin="round"/>
<path opacity="0.7" d="M382.148 300.136C382.033 300.167 381.913 300.182 381.794 300.179C378.339 300.138 376.704 300.119 372.404 300.069L359.253 299.914C357.313 299.891 356.224 298.821 355.862 297.792C356.408 297.803 382.54 298.312 382.885 298.2L383.024 298.779C383.117 299.381 382.751 299.971 382.148 300.136Z" fill="white"/>
<path d="M412.541 248.396C412.541 248.396 383.135 233.211 377.41 232.778C371.685 232.345 366.213 235.446 365.118 247.301C364.024 259.157 366.213 289.647 366.213 289.647L382.075 289.919L384.041 254.596C384.041 254.596 408.607 272.541 409.336 272.359C410.065 272.176 419.655 271.742 419.655 271.742L412.541 248.396Z" fill="#333333"/>
<path opacity="0.3" d="M412.541 248.396C412.541 248.396 383.135 233.211 377.41 232.778C371.685 232.345 366.213 235.446 365.118 247.301C364.024 259.157 366.213 289.647 366.213 289.647L382.075 289.919L384.041 254.596C384.041 254.596 408.607 272.541 409.336 272.359C410.065 272.176 419.655 271.742 419.655 271.742L412.541 248.396Z" fill="white"/>
<path opacity="0.4" d="M383.139 271.115C383.139 271.115 370.18 275.654 370.042 286.341C369.904 297.029 381.333 294.995 381.333 294.995L383.139 271.115Z" fill="#333333"/>
<path d="M423.796 298.96L420.881 288.362C431.071 287.259 437.879 289.768 442.616 287.532L446.882 291.083L444.064 296.371C444.064 296.371 436.553 298.922 423.796 298.96Z" fill="#E9B376"/>
<path d="M437.473 299.035L436.341 295.033C439.113 292.115 437.931 291.012 434.968 289.663C434.505 288.541 435.748 287.852 436.079 287.656L443.379 283.241C443.986 282.865 444.783 283.052 445.159 283.66C445.226 283.768 445.277 283.885 445.309 284.008C446.309 287.543 446.783 289.215 448.027 293.615L451.833 307.069C452.871 310.737 449.39 312.543 448.62 311.129C445.197 304.759 441.837 300.514 439.266 298.973C438.811 298.683 438.665 299.155 437.473 299.035Z" fill="#556B2F"/>
<path d="M440.291 300.421C440.144 299.379 440.48 298.28 441.184 297.499" stroke="#333333" stroke-width="0.5" stroke-miterlimit="10" stroke-linecap="round" stroke-linejoin="round"/>
<path d="M442.165 301.845C442.018 300.803 442.354 299.704 443.057 298.922" stroke="#333333" stroke-width="0.5" stroke-miterlimit="10" stroke-linecap="round" stroke-linejoin="round"/>
<path d="M443.946 303.771C443.799 302.73 444.135 301.631 444.839 300.849" stroke="#333333" stroke-width="0.5" stroke-miterlimit="10" stroke-linecap="round" stroke-linejoin="round"/>
<path opacity="0.7" d="M445.16 283.66C445.227 283.768 445.277 283.885 445.31 284.008C446.31 287.543 446.783 289.215 448.028 293.615L451.834 307.069C452.395 309.054 451.632 310.487 450.693 311.166C450.539 310.606 443.182 283.811 442.964 283.492L443.512 283.176C444.099 282.9 444.81 283.095 445.16 283.66Z" fill="white"/>
<path d="M444.767 254.185L446.044 260.594C446.044 260.594 449.317 273.307 444.729 279.693C440.347 285.793 433.881 286.881 433.881 286.881L435.21 299.142L433.881 299.97C433.881 299.97 425.422 299.97 408.107 299.179C391.659 298.429 377.521 297.643 374.603 292.535C371.684 287.429 371.011 284.948 375.783 278.856C380.095 273.35 412.933 265.24 414.076 264.911L413.617 262.113L413.085 260.132L444.767 254.185Z" fill="#333333"/>
<path opacity="0.3" d="M444.767 254.185L446.044 260.594C446.044 260.594 449.317 273.307 444.729 279.693C440.347 285.793 433.881 286.881 433.881 286.881L435.21 299.142L433.881 299.97C433.881 299.97 425.422 299.97 408.107 299.179C391.659 298.429 377.521 297.643 374.603 292.535C371.684 287.429 371.011 284.948 375.783 278.856C380.095 273.35 412.933 265.24 414.076 264.911L413.617 262.113L413.085 260.132L444.767 254.185Z" fill="white"/>
<path opacity="0.4" d="M433.881 286.881C432.871 287.145 397.201 285.994 397.201 285.994C397.201 285.994 407.744 287.802 415.541 288.46C423.337 289.117 433.881 286.881 433.881 286.881Z" fill="#333333"/>
<path opacity="0.4" d="M414.076 264.911L434.617 261.329C434.617 261.329 419.811 261.089 414.076 264.911Z" fill="#333333"/>
<path d="M361.712 250.367C361.712 250.367 359.999 247.729 357.448 247.219C354.898 246.708 352.997 245.621 351.075 245.373C349.153 245.125 350.897 247.075 352.035 247.924C353.172 248.773 354.453 249.748 353.677 250.499C352.901 251.251 343.894 253.535 342.937 254.699C341.979 255.863 343.551 255.949 343.551 255.949C343.551 255.949 341.379 256.563 341.387 257.49C341.39 257.731 341.785 258.287 342.819 258.163C345.145 257.883 349.996 257.043 349.996 257.043C349.717 257.086 343.803 258.549 342.946 258.884C341.826 259.321 341.521 260.099 341.796 260.741C342.187 261.653 349.581 260.089 349.939 260.241C349.939 260.241 345.652 260.999 345.242 262.213C344.832 263.427 347.557 263.096 349.904 262.349C352.055 261.663 356.456 260.883 358.575 259.974C361.187 258.854 362.689 257.515 362.747 254.851C362.803 252.187 361.712 250.367 361.712 250.367Z" fill="#E9B376"/>
<path d="M358.894 250.31L365.471 247.679L367.743 254.794L360.03 257.545L358.894 250.31Z" fill="#E9B376"/>
<path d="M406.605 201.102C406.605 201.102 404.819 197.068 405.198 189.081C405.196 189.073 404.76 188.993 404.758 188.985C404.807 187.869 404.894 186.828 404.993 185.92C404.994 185.894 404.992 185.886 404.992 185.886L396.286 194.643C397.098 196.974 397.344 201.794 397.3 203.865C397.3 203.865 396.854 207.703 401.586 206.735C405.044 206.026 406.605 201.102 406.605 201.102Z" fill="#E9B376"/>
<path opacity="0.2" d="M396.914 198.043L402.477 195.311C402.381 197.267 401.281 199.821 397.232 200.977C397.232 200.977 397.15 198.833 396.914 198.043Z" fill="#333333"/>
<path d="M403.884 180.904C404.744 187.545 405.364 191.273 402.685 195.251C398.656 201.235 390.166 199.829 387.33 193.56C384.778 187.917 383.8 178.005 389.746 174.215C395.605 170.481 403.023 174.263 403.884 180.904Z" fill="#E9B376"/>
<path d="M401.326 171.561C398.251 167.962 392.526 171.113 390.35 173.449C390.024 173.799 395.913 175.462 395.564 175.406L397.424 176.948C397.664 176.844 398.16 179.127 398.58 181.104C398.966 182.92 399.832 184.592 401.099 185.95C402.16 187.087 403.581 188.45 405.177 189.556C407.254 187.997 406.619 183.983 406.885 181.469C407.281 177.723 407.194 170.711 401.326 171.561Z" fill="#333333"/>
<path d="M407.529 185.877C407.33 187.667 406.317 189.193 405.139 190.09C403.368 191.44 402.225 189.439 402.012 187.335C401.821 185.442 401.928 183.07 404.045 182.547C406.131 182.031 407.757 183.829 407.529 185.877Z" fill="#E9B376"/>
<path d="M394.854 184.608C394.983 185.28 394.73 185.889 394.29 185.969C393.85 186.05 393.388 185.571 393.258 184.899C393.129 184.227 393.381 183.617 393.822 183.537C394.262 183.457 394.724 183.936 394.854 184.608Z" fill="#333333"/>
<path d="M388.291 186.007C388.42 186.679 388.168 187.289 387.728 187.369C387.287 187.449 386.825 186.969 386.696 186.298C386.566 185.626 386.818 185.017 387.259 184.937C387.7 184.856 388.162 185.335 388.291 186.007Z" fill="#333333"/>
<path d="M390.362 185.222C390.362 185.222 388.878 188.969 388.459 190.459C389.556 191.123 391.092 190.424 391.092 190.424L390.362 185.222Z" fill="#D58745"/>
<path d="M395.886 181.126C395.792 181.187 395.669 181.197 395.562 181.143C394.285 180.491 393.251 181.058 393.24 181.064C393.086 181.151 392.89 181.097 392.802 180.945C392.714 180.792 392.768 180.597 392.92 180.511C392.974 180.479 394.27 179.768 395.854 180.578C396.012 180.659 396.074 180.851 395.994 181.007C395.968 181.057 395.93 181.097 395.886 181.126Z" fill="#333333"/>
<path d="M393.705 192.141C394.796 191.939 395.536 191.233 396.224 190.259" stroke="#333333" stroke-width="0.75" stroke-miterlimit="10" stroke-linecap="round" stroke-linejoin="round"/>
<path opacity="0.2" d="M405.68 184.35C405.34 184.009 404.774 183.969 404.336 184.17C403.899 184.371 403.581 184.773 403.374 185.207C403.126 185.729 403.017 186.317 403.062 186.893" stroke="#333333" stroke-width="0.5" stroke-miterlimit="10" stroke-linecap="round" stroke-linejoin="round"/>
<path d="M384.838 183.732C384.778 183.731 384.716 183.712 384.662 183.674C384.516 183.573 384.479 183.373 384.579 183.228C385.58 181.773 387.051 181.816 387.117 181.809C387.294 181.815 387.434 181.963 387.43 182.139C387.426 182.315 387.28 182.453 387.105 182.449C387.044 182.445 385.91 182.427 385.106 183.595C385.044 183.687 384.942 183.735 384.838 183.732Z" fill="#333333"/>
<path d="M401.326 171.561C401.326 171.561 397.237 166.509 390.166 168.176C384.478 169.517 381.511 173.678 381.4 177.659C381.353 179.369 381.732 180.642 382.181 181.537C382.52 182.213 383.492 182.112 383.71 181.387C383.772 181.181 383.846 180.979 383.932 180.781C383.955 180.826 383.98 180.871 384.006 180.913C384.42 181.608 385.522 181.353 385.539 180.544C385.544 180.289 385.574 180.033 385.626 179.781C385.63 179.787 385.634 179.793 385.638 179.799C386.017 180.409 386.967 180.224 387.118 179.523C387.787 176.429 391.558 174.104 394.966 175.487L397.424 176.947C400.243 175.301 401.326 171.561 401.326 171.561Z" fill="#333333"/>
<path opacity="0.4" d="M411.939 260.319L411.551 262.92L400.081 266.373L402.725 268.067L414.076 264.911L414.544 259.858L411.939 260.319Z" fill="#333333"/>
<path d="M420.508 201.919C415.358 198.617 406.282 200.187 406.282 200.187L389.635 210.345L401.018 237.103C401.018 237.103 405.769 248.483 408.331 256.061C408.966 257.939 410.18 260.558 412.146 260.302L443.766 254.585C445.311 254.306 446.287 252.765 445.868 251.251C442.816 240.225 425.121 204.877 420.508 201.919Z" fill="#556B2F"/>
<path opacity="0.4" d="M423.48 216.801C423.48 216.801 418.413 226.34 409.516 234.657C405.924 238.015 403.428 242.858 403.428 242.858L401.198 237.16L423.48 216.801Z" fill="#333333"/>
<path d="M407.805 209.451L386.25 236.329L360.943 247.819L363.466 258.294C363.466 258.294 383.985 252.757 392.232 247.618C400.478 242.479 414.075 228.107 414.075 228.107C414.075 228.107 425.932 218.591 425.366 210.893C424.802 203.193 413.515 201.395 407.805 209.451Z" fill="#556B2F"/>
<path d="M396.104 206.397C396.104 206.397 396.904 202.291 397.292 202.457C397.68 202.622 401.534 204.935 401.534 204.935L405.843 198.479L408.43 200.191L402.476 212.533L396.104 206.397Z" fill="#556B2F"/>
<path opacity="0.4" d="M394.211 223.624L389.24 216.801L393.256 227.485L395.212 225.405L408.937 208.055L394.211 223.624Z" fill="#333333"/>
<path opacity="0.4" d="M396.104 206.397C396.321 206.475 399.89 208.881 399.696 208.921C399.5 208.96 401.198 206.042 401.198 206.042L404.982 207.481L408.088 199.963L405.03 208.623L401.446 206.89L399.696 210.064L396.104 206.397Z" fill="#333333"/>
<path d="M150.481 155.299C150.518 154.629 150.441 153.959 150.205 153.323C149.398 151.159 147.097 149.87 146.113 147.78C144.661 144.696 146.707 140.854 149.708 139.237C152.036 137.983 153.255 137.748 155.267 137.863C157.278 137.748 158.497 137.984 160.825 139.237C163.826 140.854 165.873 144.696 164.421 147.78C163.437 149.87 161.135 151.159 160.329 153.323C160.092 153.959 160.015 154.629 160.052 155.299H190.669V124.436C191.913 123.963 193.274 123.846 194.509 124.306C196.674 125.113 197.963 127.414 200.053 128.398C203.137 129.85 206.979 127.803 208.595 124.803C209.849 122.475 210.085 121.255 209.969 119.244C210.085 117.233 209.849 116.013 208.595 113.685C206.979 110.684 203.137 108.638 200.053 110.09C197.963 111.074 196.674 113.375 194.509 114.182C193.275 114.642 191.913 114.525 190.669 114.052V86.6067L122.215 86.3007V154.992L150.481 155.299Z" fill="#333333"/>
<g opacity="0.4">
<path d="M150.481 155.299C150.518 154.629 150.441 153.959 150.205 153.323C149.398 151.159 147.097 149.87 146.113 147.78C144.661 144.696 146.707 140.854 149.708 139.237C152.036 137.983 153.255 137.748 155.267 137.863C157.278 137.748 158.497 137.984 160.825 139.237C163.826 140.854 165.873 144.696 164.421 147.78C163.437 149.87 161.135 151.159 160.329 153.323C160.092 153.959 160.015 154.629 160.052 155.299H190.669V124.436C191.913 123.963 193.274 123.846 194.509 124.306C196.674 125.113 197.963 127.414 200.053 128.398C203.137 129.85 206.979 127.803 208.595 124.803C209.849 122.475 210.085 121.255 209.969 119.244C210.085 117.233 209.849 116.013 208.595 113.685C206.979 110.684 203.137 108.638 200.053 110.09C197.963 111.074 196.674 113.375 194.509 114.182C193.275 114.642 191.913 114.525 190.669 114.052V86.6067L122.215 86.3007V154.992L150.481 155.299Z" fill="#333333"/>
</g>
<path d="M152.557 155.299C152.593 154.629 152.517 153.959 152.28 153.323C151.473 151.159 149.172 149.87 148.188 147.78C146.736 144.696 148.783 140.854 151.783 139.237C154.111 137.983 155.331 137.748 157.342 137.863C159.353 137.748 160.573 137.984 162.901 139.237C165.902 140.854 167.948 144.696 166.496 147.78C165.512 149.87 163.211 151.159 162.404 153.323C162.167 153.959 162.091 154.629 162.127 155.299H192.745V124.436C193.988 123.963 195.349 123.846 196.585 124.306C198.75 125.113 200.038 127.414 202.128 128.398C205.212 129.85 209.054 127.803 210.671 124.803C211.925 122.475 212.16 121.255 212.045 119.244C212.16 117.233 211.924 116.013 210.671 113.685C209.054 110.684 205.212 108.638 202.128 110.09C200.038 111.074 198.749 113.375 196.585 114.182C195.35 114.642 193.988 114.525 192.745 114.052V86.6067L124.291 86.3007V154.992L152.557 155.299Z" fill="#333333"/>
<path d="M107.043 118.531C107.043 118.531 102.045 136.24 105.242 139.323C108.439 142.405 119.629 140.35 119.058 140.122C118.487 139.893 121.913 118.596 122.141 119.368C122.369 120.141 107.043 118.531 107.043 118.531Z" fill="#B97964"/>
<path d="M113.262 278.432L113.247 293.795L120.38 294.35L122.887 279.917C119.625 277.561 116.414 276.999 113.262 278.432Z" fill="#B97964"/>
<path d="M113.183 292.192C112.481 294.219 112.435 302.515 112.435 302.515L127.555 302.533C128.454 299.533 127.063 297.485 125.3 297.213C124.542 297.098 123.651 296.255 123.001 295.519C122.996 295.423 122.071 290.815 121.5 290.595C121.5 290.595 121.106 290.115 120.771 290.594C120.435 291.072 120.144 292.629 120.144 292.629C117.785 289.457 115.471 289.88 113.183 292.192Z" fill="#333333"/>
<path d="M112.999 294.601C114.708 293.919 116.541 294.178 118.03 295.311C118.291 295.51 118.538 295.046 118.28 294.849C116.693 293.642 114.687 293.359 112.868 294.085C112.572 294.203 112.7 294.72 112.999 294.601Z" fill="white"/>
<path d="M127.511 301.32C127.51 301.32 127.51 301.32 127.511 301.32L112.612 301.303C112.475 301.303 112.365 301.183 112.365 301.035C112.365 300.887 112.476 300.767 112.613 300.767L127.511 300.785C127.648 300.785 127.758 300.905 127.758 301.053C127.757 301.2 127.647 301.32 127.511 301.32Z" fill="white"/>
<path d="M144.037 276.429L144.019 293.768L150.883 294.334L154.26 278.103C151.504 275.886 148.304 274.799 144.037 276.429Z" fill="#B97964"/>
<path d="M143.709 292.228C143.007 294.255 142.961 302.551 142.961 302.551L160.332 302.572C161.231 299.572 159.353 297.793 157.59 297.521C156.832 297.406 154.177 296.291 153.527 295.555C153.522 295.459 152.598 290.851 152.027 290.631C152.027 290.631 151.633 290.151 151.297 290.63C150.962 291.108 150.671 292.665 150.671 292.665C148.311 289.492 145.997 289.916 143.709 292.228Z" fill="#333333"/>
<path d="M143.525 294.637C145.234 293.955 147.067 294.214 148.557 295.347C148.817 295.545 149.065 295.081 148.806 294.885C147.219 293.677 145.213 293.394 143.394 294.12C143.098 294.239 143.226 294.756 143.525 294.637Z" fill="white"/>
<path d="M160.333 301.359L143.137 301.339C143.001 301.339 142.891 301.219 142.891 301.071C142.891 300.923 143.001 300.803 143.138 300.803L160.334 300.823C160.471 300.823 160.581 300.943 160.581 301.091C160.581 301.239 160.47 301.359 160.333 301.359Z" fill="white"/>
<path d="M110.304 286.003L125.505 286.813C128.916 275.76 132.287 236.129 132.635 224.231C133.051 210.015 138.142 174.335 133.641 166.911C129.141 159.486 108.782 165.399 108.782 165.399C108.782 165.399 111.319 208.844 110.305 222.699C109.425 234.707 108.065 270.006 110.304 286.003Z" fill="#333333"/>
<path d="M127.146 282.808L126.158 287.887L109.685 287.351L109.081 282.475L127.146 282.808Z" fill="#556B2F"/>
<path d="M140.663 286.003L155.733 286.813C157.568 274.577 164.939 230.018 164.333 221.483C163.594 211.057 154.865 165.927 151.62 162.448C148.375 158.969 124.611 167.988 124.611 167.988C124.611 167.988 134.377 206.796 142.078 223.58C143.677 227.066 139.426 271.122 140.663 286.003Z" fill="#333333"/>
<path d="M157.457 283.189L156.688 287.887L139.94 286.813L139.603 281.894L157.457 283.189Z" fill="#556B2F"/>
<path opacity="0.3" d="M134.119 202.201L129.693 187.411L121.842 184.849L127.98 189.607L132.917 216.567L134.119 202.201Z" fill="#333333"/>
<path d="M142.587 71.2033C142.587 71.8413 142.867 72.3226 143.269 72.39C143.673 72.4573 144.042 71.92 144.075 71.2706C144.109 70.6213 143.807 70.1513 143.403 70.084C143.001 70.0166 142.665 70.5873 142.587 71.2033Z" fill="#333333"/>
<path d="M142.844 71.114C143.068 73.1707 143.577 75.1867 144.355 77.1033C143.346 77.474 142.225 77.384 141.288 76.8574L142.844 71.114Z" fill="#A24E3F"/>
<path d="M141.433 69.1547C141.351 69.1627 141.268 69.1433 141.198 69.0987C141.053 68.9553 141.051 68.7213 141.194 68.576C141.195 68.5747 141.197 68.5733 141.198 68.572C141.945 67.642 143.097 67.1327 144.288 67.206C144.485 67.224 144.631 67.3973 144.613 67.5947C144.613 67.596 144.613 67.5967 144.613 67.598C144.579 67.7967 144.4 67.9367 144.199 67.9227C143.256 67.88 142.35 68.2973 141.77 69.042C141.685 69.1367 141.557 69.1793 141.433 69.1547Z" fill="#333333"/>
<path d="M142.855 79.6774C142.772 80.018 142.668 80.354 142.546 80.6827C141.861 82.5614 140.615 84.1934 138.971 85.364C138.557 85.662 138.121 85.928 137.664 86.158C134.082 88.042 129.663 87.3507 126.852 84.468C123.234 80.8767 123.328 76.728 122.916 69.706C122.807 68.1967 123.057 66.684 123.647 65.2867C125.719 60.3827 131.443 58.0587 136.431 60.0967C136.433 60.0974 136.434 60.098 136.435 60.098C143.414 62.904 144.377 73.348 142.855 79.6774Z" fill="#B97964"/>
<path opacity="0.2" d="M138.945 85.364C138.532 85.662 138.095 85.928 137.639 86.158C135.215 87.4287 132.337 87.5527 129.809 86.496C130.133 85.652 130.563 84.8513 131.09 84.1133C133.776 83.782 136.503 84.2167 138.945 85.364Z" fill="#333333"/>
<path d="M124.567 94.4733C128.091 97.6166 136.711 96.4593 136.711 96.4593C136.711 96.4593 142.091 95.006 140.956 93.358C137.793 92.8426 136.255 91.3893 135.619 89.5213C135.275 88.368 135.167 87.1586 135.301 85.964C135.351 85.2973 135.441 84.6346 135.567 83.978L124.91 76.2206C126.303 81.342 128.013 90.7633 124.567 94.4733Z" fill="#B97964"/>
<path d="M138.945 73.2893L140.484 73.8553L139.719 70.7627C139.719 70.7627 141.971 67.3827 139.719 64.4507C139.719 64.4507 145.942 62.592 142.427 59.3807C141.12 58.1807 139.496 59.3807 135.199 57.5467C132.869 56.5413 125.581 56.4653 125.221 59.3807C125.221 59.3807 119.969 59.3807 119.403 68.1687C119.067 73.3813 121.104 78.4707 124.963 82.0607C124.963 82.0607 131.306 83.5307 134.417 81.03C137.527 78.528 138.945 73.2893 138.945 73.2893Z" fill="#333333"/>
<path d="M134.888 73.7873C135.16 75.1253 136.032 76.2713 137.26 76.9053C138.713 77.514 139.675 75.5027 139.46 73.39C139.262 71.514 138.274 68.8773 136.718 69.2327C135.164 69.588 134.381 71.8947 134.888 73.7873Z" fill="#B97964"/>
<path d="M113.73 92.784C113.73 92.784 111.254 93.5367 110.022 93.988C107.454 94.9287 105.759 97.7873 104.83 100.594C102.559 107.452 98.8899 123.689 98.8899 123.689L112.205 126.487L119.309 111.19L113.73 92.784Z" fill="#556B2F"/>
<path opacity="0.5" d="M113.73 92.784C113.73 92.784 110.167 93.4473 108.291 94.9967C106.863 96.176 105.726 97.8867 104.83 100.594C102.559 107.452 98.8899 123.689 98.8899 123.689L112.205 126.487L119.309 111.19L113.73 92.784Z" fill="white"/>
<path d="M145.978 93.5713C142.051 93.1487 129.97 90.4193 113.73 92.784L109.93 152.831C109.93 152.831 109.442 162.018 108.003 169.901C124.507 176.988 144.031 174.961 155.071 169.004C154.943 169.255 154.582 162.702 154.016 153.104C153.018 136.191 151.385 109.819 149.279 94.5513C149.221 94.1747 146.369 93.6133 145.978 93.5713Z" fill="#556B2F"/>
<g opacity="0.5">
<path d="M145.978 93.5713C142.051 93.1487 129.97 90.4193 113.73 92.784L109.93 152.831C109.93 152.831 109.442 162.018 108.003 169.901C124.507 176.988 144.031 174.961 155.071 169.004C154.943 169.255 154.582 162.702 154.016 153.104C153.018 136.191 151.385 109.819 149.279 94.5513C149.221 94.1747 146.369 93.6133 145.978 93.5713Z" fill="white"/>
</g>
<path d="M124.388 92.1593C124.857 90.7633 125.511 89.7813 126.348 89.2133L135.392 89.9106L139.632 92.706L124.388 92.1593Z" fill="#556B2F"/>
<path opacity="0.5" d="M124.388 92.1593C124.857 90.7633 125.511 89.7813 126.348 89.2133L135.392 89.9106L139.632 92.706L124.388 92.1593Z" fill="white"/>
<path opacity="0.2" d="M145.557 112.261C147.005 119.024 149.088 132.282 153.017 136.903L152.083 123.485L145.557 112.261Z" fill="#333333"/>
<path opacity="0.2" d="M111.359 126.301L111.709 108.959L108.069 125.476L111.359 126.301Z" fill="#333333"/>
<path d="M152.491 117.61C151.983 117.805 161.777 139.84 165.764 140.037C169.751 140.233 188.472 131.715 188.472 131.715L184.272 126.701L170.122 127.513L162.905 112.15L152.491 117.61Z" fill="#B97964"/>
<path d="M147.566 94.3267C142.487 97.6813 139.969 105.277 153.586 128.727L168.291 119.747C165.316 114.259 162.165 110.269 158.662 102.321C151.603 92.1573 147.566 94.3267 147.566 94.3267Z" fill="#556B2F"/>
<path opacity="0.5" d="M147.566 94.3267C142.487 97.6813 139.969 105.277 153.586 128.727L168.291 119.747C165.316 114.259 162.165 110.269 158.662 102.321C151.603 92.1573 147.566 94.3267 147.566 94.3267Z" fill="white"/>
<path d="M195.067 126.553C195.067 125.267 194.671 123.869 193.979 123.826C193.286 123.783 189.588 123.822 189.588 123.822C189.588 122.784 191.535 121.649 190.901 120.94C190.073 120.015 185.281 123.966 184.978 124.773C184.385 126.355 184.088 126.751 184.088 126.751L186.621 132.565C186.621 132.565 191.309 135.653 192.397 134.565C193.485 133.477 193.386 132.314 193.386 132.314C193.386 132.314 194.474 130.806 194.375 129.817C194.275 128.827 195.067 127.839 195.067 126.553Z" fill="#B97964"/>
</svg>
